<?xml version="1.0" encoding="UTF-8" standalone="no"?>
<!-- Created with Inkscape (http://www.inkscape.org/) -->

<svg
   width="32"
   height="32"
   viewBox="0 0 8.4666665 8.4666665"
   version="1.1"
   id="svg5"
   inkscape:version="1.1.1 (3bf5ae0d25, 2021-09-20)"
   sodipodi:docname="audio-mode-stretch-symbolic.svg"
   xmlns:inkscape="http://www.inkscape.org/namespaces/inkscape"
   xmlns:sodipodi="http://sodipodi.sourceforge.net/DTD/sodipodi-0.dtd"
   xmlns="http://www.w3.org/2000/svg"
   xmlns:svg="http://www.w3.org/2000/svg">
  <sodipodi:namedview
     id="namedview7"
     pagecolor="#ffffff"
     bordercolor="#ff6600"
     borderopacity="1.0"
     inkscape:pageshadow="2"
     inkscape:pageopacity="0.0"
     inkscape:pagecheckerboard="0"
     inkscape:document-units="px"
     showgrid="true"
     inkscape:zoom="17.598686"
     inkscape:cx="13.154391"
     inkscape:cy="14.77383"
     inkscape:window-width="2560"
     inkscape:window-height="1380"
     inkscape:window-x="0"
     inkscape:window-y="32"
     inkscape:window-maximized="1"
     inkscape:current-layer="text2168"
     fit-margin-top="0"
     fit-margin-left="0"
     fit-margin-right="0"
     fit-margin-bottom="0"
     inkscape:snap-to-guides="false"
     inkscape:snap-grids="true"
     units="px"
     width="32px"
     scale-x="0.5">
    <inkscape:grid
       type="xygrid"
       id="grid1371"
       originx="0"
       originy="0" />
  </sodipodi:namedview>
  <defs
     id="defs2" />
  <g
     inkscape:label="Layer 1"
     inkscape:groupmode="layer"
     id="layer1"
     transform="translate(-40.968096,-41.529032)">
    <g
       aria-label="ð…ð„ž"
       id="text2168"
       style="font-size:10.5833px;line-height:1.25;letter-spacing:0px;word-spacing:0px;stroke-width:0.264583">
      <path
         style="color:#000000;fill:#000000;-inkscape-stroke:none"
         d="m 41.761719,43.910156 v 3.705078 h 0.529297 v -3.705078 z"
         id="path10659" />
      <path
         style="color:#000000;fill:#000000;-inkscape-stroke:none"
         d="m 48.111328,43.910156 v 3.705078 h 0.529297 v -3.705078 z"
         id="path10659-6" />
      <path
         style="color:#000000;fill:#000000;-inkscape-stroke:none"
         d="m 43.613281,44.703125 c -0.198437,0 -0.376198,0.08714 -0.492187,0.203125 -0.115989,0.115989 -0.179264,0.250681 -0.220703,0.375 -0.03742,0.112272 -0.02656,0.131159 -0.03711,0.216797 h -0.835937 v 0.529297 h 1.322265 v -0.265625 c 0,0 0.0033,-0.164264 0.05273,-0.3125 0.02471,-0.07412 0.05896,-0.137083 0.0918,-0.169922 0.03284,-0.03284 0.053,-0.04687 0.11914,-0.04687 0.110243,0 0.229664,0.05712 0.34961,0.173828 0.0539,0.05245 0.08769,0.13563 0.134765,0.205078 -0.0079,0.01763 -0.02584,0.03115 -0.0332,0.04883 -0.09472,0.227341 -0.148919,0.453207 -0.130859,0.669922 0.009,0.108358 0.03638,0.220952 0.117187,0.322266 0.08081,0.101314 0.225131,0.167969 0.357422,0.167968 0.132292,10e-7 0.276612,-0.06665 0.357422,-0.167968 0.08081,-0.101314 0.108158,-0.213908 0.117187,-0.322266 0.01806,-0.216715 -0.03613,-0.442581 -0.130859,-0.669922 -0.0074,-0.01767 -0.02531,-0.0312 -0.0332,-0.04883 0.047,-0.06929 0.08097,-0.152735 0.134766,-0.205078 0.119945,-0.116703 0.237413,-0.173828 0.347656,-0.173828 0.110243,0 0.229664,0.05712 0.349609,0.173828 0.0539,0.05245 0.08769,0.13563 0.134766,0.205078 -0.0079,0.01765 -0.02583,0.03113 -0.0332,0.04883 -0.09472,0.227341 -0.148919,0.453207 -0.13086,0.669922 0.009,0.108358 0.03638,0.220952 0.117188,0.322266 0.08081,0.101314 0.22513,0.167969 0.357422,0.167968 0.132291,10e-7 0.274659,-0.06665 0.355468,-0.167968 0.08081,-0.101314 0.108158,-0.213908 0.117188,-0.322266 0.01806,-0.216715 -0.03613,-0.442581 -0.130859,-0.669922 -0.0074,-0.0177 -0.02529,-0.03117 -0.0332,-0.04883 0.04707,-0.06945 0.08086,-0.152632 0.134766,-0.205078 0.119945,-0.116703 0.239367,-0.173828 0.349609,-0.173828 0.06615,0 0.0863,0.01404 0.119141,0.04687 0.03284,0.03284 0.06709,0.0958 0.0918,0.169922 0.04941,0.148236 0.05273,0.3125 0.05273,0.3125 v 0.265625 h 1.324219 v -0.529297 h -0.837891 c -0.01056,-0.08561 0.0022,-0.104614 -0.03516,-0.216797 -0.04144,-0.124319 -0.106667,-0.259011 -0.222656,-0.375 -0.115989,-0.115989 -0.29375,-0.203125 -0.492188,-0.203125 -0.286631,0 -0.532771,0.143266 -0.71875,0.324219 -0.03321,0.03231 -0.044,0.07838 -0.07422,0.113281 -0.03043,-0.0352 -0.0427,-0.08071 -0.07617,-0.113281 -0.185979,-0.180953 -0.432118,-0.324219 -0.71875,-0.324219 -0.286632,0 -0.530818,0.143266 -0.716797,0.324219 -0.03383,0.03291 -0.04545,0.07964 -0.07617,0.115234 -0.03072,-0.03559 -0.04234,-0.08232 -0.07617,-0.115234 -0.185979,-0.180953 -0.432118,-0.324219 -0.71875,-0.324219 z"
         id="path10934" />
    </g>
  </g>
</svg>
