<?xml version="1.0" encoding="UTF-8" standalone="no"?>
<!-- Created with Inkscape (http://www.inkscape.org/) -->

<svg
   width="32"
   height="32"
   viewBox="0 0 8.4666665 8.4666665"
   version="1.1"
   id="svg5"
   inkscape:version="1.1.1 (3bf5ae0d25, 2021-09-20)"
   sodipodi:docname="audio-mode-peaks-symbolic.svg"
   xmlns:inkscape="http://www.inkscape.org/namespaces/inkscape"
   xmlns:sodipodi="http://sodipodi.sourceforge.net/DTD/sodipodi-0.dtd"
   xmlns="http://www.w3.org/2000/svg"
   xmlns:svg="http://www.w3.org/2000/svg">
  <sodipodi:namedview
     id="namedview7"
     pagecolor="#ffffff"
     bordercolor="#ff6600"
     borderopacity="1.0"
     inkscape:pageshadow="2"
     inkscape:pageopacity="0.0"
     inkscape:pagecheckerboard="0"
     inkscape:document-units="px"
     showgrid="true"
     inkscape:zoom="15.472836"
     inkscape:cx="10.534591"
     inkscape:cy="19.324189"
     inkscape:window-width="1920"
     inkscape:window-height="1020"
     inkscape:window-x="0"
     inkscape:window-y="32"
     inkscape:window-maximized="1"
     inkscape:current-layer="text2168"
     fit-margin-top="0"
     fit-margin-left="0"
     fit-margin-right="0"
     fit-margin-bottom="0"
     inkscape:snap-to-guides="true"
     inkscape:snap-grids="true"
     units="px"
     width="32px"
     scale-x="0.5">
    <inkscape:grid
       type="xygrid"
       id="grid1371"
       originx="0"
       originy="0" />
  </sodipodi:namedview>
  <defs
     id="defs2">
    <inkscape:path-effect
       effect="bspline"
       id="path-effect1052"
       is_visible="true"
       lpeversion="1"
       weight="33.333333"
       steps="2"
       helper_size="0"
       apply_no_weight="true"
       apply_with_weight="true"
       only_selected="false" />
    <inkscape:path-effect
       effect="bspline"
       id="path-effect2243"
       is_visible="true"
       lpeversion="1"
       weight="33.333333"
       steps="2"
       helper_size="0"
       apply_no_weight="true"
       apply_with_weight="true"
       only_selected="false" />
    <inkscape:path-effect
       effect="bspline"
       id="path-effect2195"
       is_visible="true"
       lpeversion="1"
       weight="33.333333"
       steps="2"
       helper_size="0"
       apply_no_weight="true"
       apply_with_weight="true"
       only_selected="false" />
    <inkscape:path-effect
       effect="bspline"
       id="path-effect1109"
       is_visible="true"
       lpeversion="1"
       weight="33.333333"
       steps="2"
       helper_size="0"
       apply_no_weight="true"
       apply_with_weight="true"
       only_selected="false" />
  </defs>
  <g
     inkscape:label="Layer 1"
     inkscape:groupmode="layer"
     id="layer1"
     transform="translate(-40.968096,-41.529032)">
    <g
       aria-label="ð…ð„ž"
       id="text2168"
       style="font-size:10.5833px;line-height:1.25;letter-spacing:0px;word-spacing:0px;stroke-width:0.264583">
      <path
         style="opacity:0.286845;stroke:#000000;stroke-width:0.153788px;stroke-linecap:butt;stroke-linejoin:miter;stroke-opacity:1"
         d="m 42.228438,45.7105 c -1.05e-4,-0.102554 0.102421,-0.256343 0.204948,-0.410134 0.102527,-0.15379 0.205051,-0.307575 0.333299,-0.384487 0.128248,-0.07691 0.282032,-0.07691 0.589628,0.0513 0.307597,0.128211 0.768954,0.38452 1.127795,0.538276 0.35884,0.153756 0.615149,0.205018 0.640744,0.25625 0.02559,0.05123 -0.179453,0.102495 -0.487058,0.230652 -0.307604,0.128157 -0.7177,0.333205 -1.025279,0.486995 -0.307579,0.153789 -0.512628,0.256313 -0.66637,0.256405 -0.153743,9.1e-5 -0.256268,-0.102434 -0.333217,-0.256211 -0.07695,-0.153777 -0.128211,-0.358824 -0.205037,-0.487026 -0.07682,-0.128202 -0.179349,-0.179465 -0.179453,-0.282018 z"
         id="path2241"
         inkscape:path-effect="#path-effect2243"
         inkscape:original-d="m 42.125832,45.761698 c 0.102679,-0.153634 0.205205,-0.307423 0.307577,-0.461366 0.102682,-0.153637 0.205205,-0.307423 0.307577,-0.461365 0.153947,1.54e-4 0.307731,1.54e-4 0.461366,0 0.461529,0.256473 0.922886,0.512783 1.384098,0.768943 0.256474,0.05142 0.512783,0.10268 0.768944,0.153788 -0.204902,0.05142 -0.40995,0.102681 -0.615155,0.15379 -0.409957,0.205208 -0.820053,0.410256 -1.230309,0.615154 -0.204902,0.102682 -0.40995,0.205206 -0.615155,0.307577 -0.102373,-0.102373 -0.204898,-0.204898 -0.307578,-0.307577 -0.05111,-0.204902 -0.102372,-0.409949 -0.153788,-0.615154 -0.102374,-0.05111 -0.204898,-0.102373 -0.307577,-0.15379 z" />
      <path
         style="color:#000000;stroke-width:0.153788;stroke-linecap:round;-inkscape-stroke:none"
         d="m 42.91998,44.592014 c -0.120229,-0.01657 -0.267776,0.02006 -0.361011,0.135096 -0.09325,0.115053 -0.132718,0.260451 -0.180505,0.403013 -0.04779,0.142562 -0.09986,0.280642 -0.154393,0.350793 -0.05452,0.07014 -0.120399,0.103322 -0.215698,0.123742 -0.0953,0.02042 -0.215747,0.02157 -0.343981,0.02157 a 0.13509058,0.13509058 0 0 0 -0.135095,0.135094 0.13509058,0.13509058 0 0 0 0.135095,0.135096 c 0.128234,0 0.264209,0.0018 0.399608,-0.02724 0.135399,-0.02901 0.274314,-0.09492 0.373497,-0.222509 0.09918,-0.12758 0.1492,-0.286063 0.197534,-0.43026 0.04833,-0.144198 0.09896,-0.275821 0.13396,-0.319006 0.03502,-0.0432 0.05431,-0.04562 0.113525,-0.03746 0.05921,0.0081 0.145337,0.04452 0.22932,0.09082 0.167991,0.09262 0.325641,0.212551 0.615307,0.374633 0.289656,0.162077 0.703421,0.362394 1.054648,0.466589 0.351208,0.104188 0.6264,0.104471 0.880955,0.104443 a 0.13509058,0.13509058 0 0 0 0.135094,-0.135095 0.13509058,0.13509058 0 0 0 -0.135094,-0.135095 c -0.254556,2.8e-5 -0.488554,4.17e-4 -0.803758,-0.09309 -0.315187,-0.09351 -0.724287,-0.288391 -1.000157,-0.442753 -0.275859,-0.154357 -0.42561,-0.271693 -0.616441,-0.376904 -0.09543,-0.05261 -0.202181,-0.104905 -0.32241,-0.121471 z"
         id="path1107" />
      <path
         style="color:#000000;stroke-width:0.153788;stroke-linecap:round;-inkscape-stroke:none"
         d="m 41.664392,45.626228 a 0.13509058,0.13509058 0 0 0 -0.135095,0.135095 0.13509058,0.13509058 0 0 0 0.135095,0.135095 c 0.128234,0 0.248681,0.0012 0.343981,0.02157 0.0953,0.02042 0.161174,0.05473 0.215698,0.124877 0.05453,0.07015 0.106608,0.207095 0.154393,0.349657 0.04779,0.142564 0.08725,0.287961 0.180505,0.403015 0.09323,0.115032 0.240782,0.152795 0.361011,0.13623 0.120229,-0.01657 0.226984,-0.07 0.32241,-0.122608 0.190832,-0.10521 0.340582,-0.221411 0.616441,-0.375768 0.27587,-0.154361 0.68497,-0.35038 1.000157,-0.443883 0.315204,-0.09351 0.549203,-0.09312 0.803758,-0.09309 a 0.13509058,0.13509058 0 0 0 0.135094,-0.135095 0.13509058,0.13509058 0 0 0 -0.135094,-0.135095 c -0.254556,-2.8e-5 -0.529747,2.55e-4 -0.880955,0.104443 -0.351227,0.104194 -0.764992,0.304512 -1.054648,0.466589 -0.289666,0.162082 -0.447317,0.28315 -0.615307,0.375768 -0.08399,0.0463 -0.170109,0.08267 -0.22932,0.09082 -0.05921,0.0081 -0.07851,0.0057 -0.113525,-0.03746 -0.035,-0.04318 -0.08563,-0.174808 -0.13396,-0.319005 -0.04833,-0.144198 -0.09836,-0.303815 -0.197534,-0.431396 -0.09918,-0.127591 -0.238098,-0.192361 -0.373497,-0.221374 -0.135399,-0.02901 -0.271374,-0.02839 -0.399608,-0.02839 z"
         id="path1107-3" />
      <path
         style="font-size:10.5833px;line-height:1.25;letter-spacing:0px;word-spacing:0px;opacity:0.286845;stroke:#000000;stroke-width:0.153788px;stroke-linecap:butt;stroke-linejoin:miter;stroke-opacity:1"
         d="m 45.303638,45.697325 c -1.04e-4,-0.102554 0.102421,-0.256344 0.204948,-0.410134 0.102526,-0.15379 0.20505,-0.307576 0.333298,-0.384487 0.128248,-0.07691 0.282033,-0.07691 0.589629,0.0513 0.307597,0.128211 0.768954,0.38452 1.127795,0.538277 0.35884,0.153756 0.615148,0.205017 0.640743,0.25625 0.02559,0.05123 -0.179452,0.102494 -0.487057,0.230651 -0.307605,0.128158 -0.7177,0.333205 -1.025279,0.486995 -0.30758,0.15379 -0.512627,0.256313 -0.666371,0.256404 -0.153743,9.2e-5 -0.256268,-0.102433 -0.333217,-0.256209 -0.07695,-0.153777 -0.128211,-0.358825 -0.205034,-0.487026 -0.07682,-0.1282 -0.179352,-0.179465 -0.179455,-0.282019 z"
         id="path2241-3"
         inkscape:path-effect="#path-effect1052"
         inkscape:original-d="m 45.201032,45.748524 c 0.102679,-0.153635 0.205205,-0.307424 0.307576,-0.461367 0.102683,-0.153637 0.205206,-0.307423 0.307577,-0.461365 0.153947,1.54e-4 0.307732,1.54e-4 0.461367,0 0.461529,0.256473 0.922886,0.512783 1.384098,0.768943 0.256474,0.05142 0.512782,0.10268 0.768944,0.153789 -0.204902,0.05142 -0.40995,0.10268 -0.615155,0.153789 -0.409958,0.205208 -0.820053,0.410256 -1.23031,0.615155 -0.204902,0.102681 -0.409949,0.205205 -0.615154,0.307576 -0.102374,-0.102373 -0.204899,-0.204898 -0.307578,-0.307576 -0.05111,-0.204902 -0.102372,-0.40995 -0.153789,-0.615155 -0.102373,-0.0511 -0.204897,-0.102373 -0.307576,-0.153789 z" />
      <path
         style="color:#000000;font-size:10.5833px;line-height:1.25;letter-spacing:0px;word-spacing:0px;stroke-width:0.153788;stroke-linecap:round;-inkscape-stroke:none"
         d="m 45.995179,44.57884 c -0.120229,-0.01657 -0.267776,0.02006 -0.36101,0.135095 -0.09325,0.115053 -0.132718,0.260451 -0.180505,0.403013 -0.04779,0.142562 -0.09986,0.280642 -0.154394,0.350793 -0.05452,0.07014 -0.120399,0.103322 -0.215698,0.123742 -0.0953,0.02042 -0.215747,0.02157 -0.343981,0.02157 a 0.13509058,0.13509058 0 0 0 -0.135094,0.135095 0.13509058,0.13509058 0 0 0 0.135094,0.135095 c 0.128234,0 0.26421,0.0018 0.399609,-0.02724 0.135399,-0.02901 0.274313,-0.09492 0.373497,-0.222509 0.09918,-0.12758 0.149199,-0.286063 0.197534,-0.43026 0.04833,-0.144198 0.09896,-0.275821 0.133959,-0.319006 0.03502,-0.0432 0.05431,-0.04562 0.113525,-0.03746 0.05921,0.0081 0.145337,0.04452 0.229321,0.09082 0.167991,0.09262 0.32564,0.212551 0.615307,0.374633 0.289655,0.162077 0.703421,0.362394 1.054647,0.466589 0.351208,0.104188 0.626401,0.104471 0.880955,0.104443 a 0.13509058,0.13509058 0 0 0 0.135095,-0.135095 0.13509058,0.13509058 0 0 0 -0.135095,-0.135095 c -0.254555,2.8e-5 -0.488554,4.17e-4 -0.803758,-0.09309 -0.315186,-0.09351 -0.724286,-0.288392 -1.000156,-0.442754 -0.275859,-0.154357 -0.42561,-0.271693 -0.616441,-0.376903 -0.09543,-0.05262 -0.202182,-0.104906 -0.322411,-0.121472 z"
         id="path1107-6" />
      <path
         style="color:#000000;font-size:10.5833px;line-height:1.25;letter-spacing:0px;word-spacing:0px;stroke-width:0.153788;stroke-linecap:round;-inkscape-stroke:none"
         d="m 44.739591,45.613053 a 0.13509058,0.13509058 0 0 0 -0.135094,0.135095 0.13509058,0.13509058 0 0 0 0.135094,0.135095 c 0.128234,0 0.248682,0.0012 0.343981,0.02157 0.0953,0.02042 0.161175,0.05474 0.215698,0.124877 0.05453,0.07015 0.106608,0.207095 0.154394,0.349657 0.04779,0.142564 0.08725,0.287961 0.180505,0.403015 0.09323,0.115032 0.240781,0.152795 0.36101,0.13623 0.120229,-0.01657 0.226985,-0.07 0.322411,-0.122608 0.190832,-0.10521 0.340582,-0.22141 0.616441,-0.375768 0.27587,-0.154361 0.68497,-0.35038 1.000156,-0.443882 0.315204,-0.09351 0.549204,-0.09312 0.803758,-0.09309 a 0.13509058,0.13509058 0 0 0 0.135095,-0.135095 0.13509058,0.13509058 0 0 0 -0.135095,-0.135095 c -0.254555,-2.8e-5 -0.529747,2.55e-4 -0.880955,0.104443 -0.351226,0.104194 -0.764992,0.304513 -1.054647,0.466589 -0.289667,0.162082 -0.447317,0.28315 -0.615307,0.375768 -0.08399,0.0463 -0.17011,0.08266 -0.229321,0.09082 -0.05921,0.0081 -0.07851,0.0057 -0.113525,-0.03746 -0.035,-0.04318 -0.08562,-0.174808 -0.133959,-0.319005 -0.04833,-0.144198 -0.09836,-0.303815 -0.197534,-0.431396 -0.09918,-0.127591 -0.238098,-0.192361 -0.373497,-0.221374 -0.135399,-0.02901 -0.271375,-0.02839 -0.399609,-0.02839 z"
         id="path1107-3-7" />
    </g>
  </g>
</svg>
