<?xml version="1.0" encoding="UTF-8" standalone="no"?>
<!-- Created with Inkscape (http://www.inkscape.org/) -->

<svg
   width="32"
   height="32"
   viewBox="0 0 8.4666665 8.4666665"
   version="1.1"
   id="svg5"
   inkscape:version="1.1.1 (3bf5ae0d25, 2021-09-20)"
   sodipodi:docname="chord-minor-symbolic.svg"
   xmlns:inkscape="http://www.inkscape.org/namespaces/inkscape"
   xmlns:sodipodi="http://sodipodi.sourceforge.net/DTD/sodipodi-0.dtd"
   xmlns="http://www.w3.org/2000/svg"
   xmlns:svg="http://www.w3.org/2000/svg">
  <sodipodi:namedview
     id="namedview7"
     pagecolor="#ffffff"
     bordercolor="#ff6600"
     borderopacity="1.0"
     inkscape:pageshadow="2"
     inkscape:pageopacity="0.0"
     inkscape:pagecheckerboard="0"
     inkscape:document-units="px"
     showgrid="true"
     inkscape:zoom="13.364606"
     inkscape:cx="14.890076"
     inkscape:cy="15.937619"
     inkscape:window-width="1920"
     inkscape:window-height="1020"
     inkscape:window-x="0"
     inkscape:window-y="32"
     inkscape:window-maximized="1"
     inkscape:current-layer="text2168"
     fit-margin-top="0"
     fit-margin-left="0"
     fit-margin-right="0"
     fit-margin-bottom="0"
     inkscape:snap-to-guides="true"
     inkscape:snap-grids="true"
     units="px"
     width="32px"
     scale-x="0.5">
    <inkscape:grid
       type="xygrid"
       id="grid1371"
       originx="0"
       originy="0" />
  </sodipodi:namedview>
  <defs
     id="defs2" />
  <g
     inkscape:label="Layer 1"
     inkscape:groupmode="layer"
     id="layer1"
     transform="translate(-40.968096,-41.529032)">
    <g
       aria-label="ð…ð„ž"
       id="text2168"
       style="font-size:10.5833px;line-height:1.25;letter-spacing:0px;word-spacing:0px;stroke-width:0.264583">
      <path
         d="m 43.7636,43.401275 q 0,-0.358994 0.261969,-0.630665 0.261967,-0.271672 0.708283,-0.426911 0.45602,-0.155239 0.999364,-0.155239 0.553042,0 1.018767,0.155239 0.46572,0.145539 0.747092,0.417208 0.281376,0.271673 0.281376,0.640368 0,0.3784 -0.271671,0.659772 -0.271671,0.271671 -0.727689,0.426913 -0.446319,0.145539 -0.98966,0.145539 -0.543343,0 -1.009064,-0.145539 Q 44.326348,44.342421 44.044973,44.070751 43.7636,43.789377 43.7636,43.401275 Z m 2.231583,1.038172 q 0.329887,0 0.446316,-0.242565 0.126122,-0.242559 0.126122,-0.57245 0,-0.339587 -0.14554,-0.620959 -0.135839,-0.281376 -0.368698,-0.44632 -0.232859,-0.174657 -0.523936,-0.174657 -0.329887,0 -0.446317,0.242564 -0.106719,0.242561 -0.106719,0.57245 0,0.329884 0.135838,0.611258 0.13584,0.281375 0.358994,0.456022 0.232862,0.174659 0.523936,0.174659 z"
         id="path823-47-1"
         style="font-size:10.5833px;line-height:1.25;letter-spacing:0px;word-spacing:0px;stroke-width:0.242566" />
      <path
         d="m 43.7636,45.782525 q 0,-0.358994 0.261969,-0.630665 0.261967,-0.271672 0.708283,-0.426911 0.45602,-0.155239 0.999364,-0.155239 0.553042,0 1.018767,0.155239 0.46572,0.145539 0.747092,0.417208 0.281376,0.271673 0.281376,0.640368 0,0.3784 -0.271671,0.659772 -0.271671,0.271671 -0.727689,0.426913 -0.446319,0.145539 -0.98966,0.145539 -0.543343,0 -1.009064,-0.145539 Q 44.326348,46.723671 44.044973,46.452001 43.7636,46.170627 43.7636,45.782525 Z m 2.231583,1.038172 q 0.329887,0 0.446316,-0.242565 0.126122,-0.242559 0.126122,-0.57245 0,-0.339587 -0.14554,-0.620959 -0.135839,-0.281376 -0.368698,-0.44632 -0.232859,-0.174657 -0.523936,-0.174657 -0.329887,0 -0.446317,0.242564 -0.106719,0.242561 -0.106719,0.57245 0,0.329884 0.135838,0.611258 0.13584,0.281375 0.358994,0.456022 0.232862,0.174659 0.523936,0.174659 z"
         id="path823-47-1-1"
         style="font-size:10.5833px;line-height:1.25;letter-spacing:0px;word-spacing:0px;stroke-width:0.242566" />
      <path
         d="m 43.7636,48.163775 q 0,-0.358994 0.261969,-0.630665 0.261967,-0.271672 0.708283,-0.426911 0.45602,-0.155239 0.999364,-0.155239 0.553042,0 1.018767,0.155239 0.46572,0.145539 0.747092,0.417208 0.281376,0.271673 0.281376,0.640368 0,0.3784 -0.271671,0.659772 -0.271671,0.271671 -0.727689,0.426913 -0.446319,0.145539 -0.98966,0.145539 -0.543343,0 -1.009064,-0.145539 Q 44.326348,49.104921 44.044973,48.833251 43.7636,48.551877 43.7636,48.163775 Z m 2.231583,1.038172 q 0.329887,0 0.446316,-0.242565 0.126122,-0.242559 0.126122,-0.57245 0,-0.339587 -0.14554,-0.620959 -0.135839,-0.281376 -0.368698,-0.44632 -0.232859,-0.174657 -0.523936,-0.174657 -0.329887,0 -0.446317,0.242564 -0.106719,0.242561 -0.106719,0.57245 0,0.329884 0.135838,0.611258 0.13584,0.281375 0.358994,0.456022 0.232862,0.174659 0.523936,0.174659 z"
         id="path823-47-1-5"
         style="font-size:10.5833px;line-height:1.25;letter-spacing:0px;word-spacing:0px;stroke-width:0.242566" />
      <rect
         style="opacity:0.2197056;stroke-width:0.245342;stroke-linejoin:round;stroke-dasharray:0.981369, 0.245342"
         id="rect1224"
         width="6.3500037"
         height="0.52916658"
         x="42.555595"
         y="43.116531" />
      <rect
         style="opacity:0.2197056;stroke-width:0.245342;stroke-linejoin:round;stroke-dasharray:0.981369, 0.245342"
         id="rect1226"
         width="6.3499985"
         height="0.52916664"
         x="42.555595"
         y="45.49778" />
      <rect
         style="font-size:10.5833px;line-height:1.25;letter-spacing:0px;word-spacing:0px;opacity:0.2197056;stroke-width:0.245342;stroke-linejoin:round;stroke-dasharray:0.981369, 0.245342"
         id="rect1226-5"
         width="6.3499985"
         height="0.52916664"
         x="42.555595"
         y="47.879032" />
      <g
         aria-label="â™­"
         id="text10078"
         style="font-size:6.26596px;line-height:1.25;letter-spacing:0px;word-spacing:0px;stroke-width:0.0414467"
         transform="matrix(0.79414486,0,0,0.79414486,8.6569966,9.5727639)">
        <path
           d="m 41.58696,42.434489 h 0.13768 l 0.0153,0.01836 v 2.940228 h 0.0092 q 0.520124,-0.725114 0.963759,-0.725114 0.694518,0.0092 0.755709,0.795484 -0.08873,1.300309 -1.890803,1.569549 l -0.0092,-0.0092 v -4.570969 z m 0.152977,3.285958 v 1.086141 q 1.278893,-0.302896 1.278893,-1.236059 0.0031,-0.03977 0.0031,-0.07649 0,-0.452813 -0.455873,-0.47729 -0.364086,0 -0.826079,0.703697 z"
           id="path11224" />
      </g>
    </g>
  </g>
</svg>
