<?xml version="1.0" encoding="UTF-8" standalone="no"?>
<!-- Created with Inkscape (http://www.inkscape.org/) -->

<svg
   width="32"
   height="32"
   viewBox="0 0 8.4666665 8.4666665"
   version="1.1"
   id="svg5"
   inkscape:version="1.1.1 (3bf5ae0d25, 2021-09-20)"
   sodipodi:docname="chord-inversion-1-symbolic.svg"
   xmlns:inkscape="http://www.inkscape.org/namespaces/inkscape"
   xmlns:sodipodi="http://sodipodi.sourceforge.net/DTD/sodipodi-0.dtd"
   xmlns="http://www.w3.org/2000/svg"
   xmlns:svg="http://www.w3.org/2000/svg">
  <sodipodi:namedview
     id="namedview7"
     pagecolor="#ffffff"
     bordercolor="#ff6600"
     borderopacity="1.0"
     inkscape:pageshadow="2"
     inkscape:pageopacity="0.0"
     inkscape:pagecheckerboard="0"
     inkscape:document-units="px"
     showgrid="true"
     inkscape:zoom="16.675042"
     inkscape:cx="12.293822"
     inkscape:cy="10.914515"
     inkscape:window-width="1920"
     inkscape:window-height="1020"
     inkscape:window-x="0"
     inkscape:window-y="32"
     inkscape:window-maximized="1"
     inkscape:current-layer="text2168"
     fit-margin-top="0"
     fit-margin-left="0"
     fit-margin-right="0"
     fit-margin-bottom="0"
     inkscape:snap-to-guides="true"
     inkscape:snap-grids="true"
     units="px"
     width="32px"
     scale-x="0.5">
    <inkscape:grid
       type="xygrid"
       id="grid1371"
       originx="0"
       originy="0" />
  </sodipodi:namedview>
  <defs
     id="defs2">
    <marker
       style="overflow:visible;"
       id="Arrow1Mend"
       refX="0.0"
       refY="0.0"
       orient="auto"
       inkscape:stockid="Arrow1Mend"
       inkscape:isstock="true">
      <path
         transform="scale(0.4) rotate(180) translate(10,0)"
         style="fill-rule:evenodd;fill:context-stroke;stroke:context-stroke;stroke-width:1.0pt;"
         d="M 0.0,0.0 L 5.0,-5.0 L -12.5,0.0 L 5.0,5.0 L 0.0,0.0 z "
         id="path4369" />
    </marker>
    <marker
       style="overflow:visible;"
       id="marker6095"
       refX="0.0"
       refY="0.0"
       orient="auto"
       inkscape:stockid="Arrow1Lend"
       inkscape:isstock="true">
      <path
         transform="scale(0.8) rotate(180) translate(12.5,0)"
         style="fill-rule:evenodd;fill:context-stroke;stroke:context-stroke;stroke-width:1.0pt;"
         d="M 0.0,0.0 L 5.0,-5.0 L -12.5,0.0 L 5.0,5.0 L 0.0,0.0 z "
         id="path6093" />
    </marker>
    <marker
       style="overflow:visible;"
       id="Arrow2Send"
       refX="0.0"
       refY="0.0"
       orient="auto"
       inkscape:stockid="Arrow2Send"
       inkscape:isstock="true">
      <path
         transform="scale(0.3) rotate(180) translate(-2.3,0)"
         d="M 8.7185878,4.0337352 L -2.2072895,0.016013256 L 8.7185884,-4.0017078 C 6.9730900,-1.6296469 6.9831476,1.6157441 8.7185878,4.0337352 z "
         style="stroke:context-stroke;fill-rule:evenodd;fill:context-stroke;stroke-width:0.62500000;stroke-linejoin:round;"
         id="path4393" />
    </marker>
    <marker
       style="overflow:visible;"
       id="Arrow1Send"
       refX="0.0"
       refY="0.0"
       orient="auto"
       inkscape:stockid="Arrow1Send"
       inkscape:isstock="true">
      <path
         transform="scale(0.2) rotate(180) translate(6,0)"
         style="fill-rule:evenodd;fill:context-stroke;stroke:context-stroke;stroke-width:1.0pt;"
         d="M 0.0,0.0 L 5.0,-5.0 L -12.5,0.0 L 5.0,5.0 L 0.0,0.0 z "
         id="path4375" />
    </marker>
    <marker
       style="overflow:visible;"
       id="Arrow1Lend"
       refX="0.0"
       refY="0.0"
       orient="auto"
       inkscape:stockid="Arrow1Lend"
       inkscape:isstock="true">
      <path
         transform="scale(0.8) rotate(180) translate(12.5,0)"
         style="fill-rule:evenodd;fill:context-stroke;stroke:context-stroke;stroke-width:1.0pt;"
         d="M 0.0,0.0 L 5.0,-5.0 L -12.5,0.0 L 5.0,5.0 L 0.0,0.0 z "
         id="path4363" />
    </marker>
    <marker
       style="overflow:visible"
       id="Arrow1Lstart"
       refX="0.0"
       refY="0.0"
       orient="auto"
       inkscape:stockid="Arrow1Lstart"
       inkscape:isstock="true">
      <path
         transform="scale(0.8) translate(12.5,0)"
         style="fill-rule:evenodd;fill:context-stroke;stroke:context-stroke;stroke-width:1.0pt"
         d="M 0.0,0.0 L 5.0,-5.0 L -12.5,0.0 L 5.0,5.0 L 0.0,0.0 z "
         id="path4360" />
    </marker>
  </defs>
  <g
     inkscape:label="Layer 1"
     inkscape:groupmode="layer"
     id="layer1"
     transform="translate(-40.968096,-41.529032)">
    <g
       aria-label="ð…ð„ž"
       id="text2168"
       style="font-size:10.5833px;line-height:1.25;letter-spacing:0px;word-spacing:0px;stroke-width:0.264583">
      <rect
         style="font-size:10.5833px;line-height:1.25;letter-spacing:0px;word-spacing:0px;opacity:0.219706;stroke-width:0.245342;stroke-linejoin:round;stroke-dasharray:0.981369, 0.245342"
         id="rect1226-5"
         width="6.3499985"
         height="0.52916664"
         x="41.497265"
         y="43.910282" />
      <path
         d="m 42.295507,45.934539 q 0,-0.305173 0.222695,-0.536115 0.222693,-0.230944 0.602098,-0.36291 0.387654,-0.131966 0.849541,-0.131966 0.470131,0 0.866034,0.131966 0.395901,0.12372 0.63509,0.354661 0.239193,0.230944 0.239193,0.544364 0,0.321671 -0.230943,0.560861 -0.230942,0.230942 -0.618595,0.36291 -0.379407,0.123721 -0.841291,0.123721 -0.461886,0 -0.857787,-0.123721 -0.387653,-0.12372 -0.626845,-0.354661 -0.23919,-0.239191 -0.23919,-0.56911 z m 1.897027,0.882531 q 0.280431,0 0.379405,-0.206199 0.107214,-0.206195 0.107214,-0.486629 0,-0.288678 -0.123721,-0.527866 -0.115474,-0.239192 -0.313423,-0.379408 -0.197949,-0.148473 -0.445389,-0.148473 -0.28043,0 -0.379405,0.206199 -0.09072,0.206197 -0.09072,0.486629 0,0.280428 0.115474,0.519619 0.115475,0.239191 0.305173,0.387656 0.197952,0.148474 0.445389,0.148474 z"
         id="path823-47-1"
         style="font-size:10.5833px;line-height:1.25;letter-spacing:0px;word-spacing:0px;opacity:0.490408;stroke-width:0.206201" />
      <path
         d="m 42.295507,47.958796 q 0,-0.305174 0.222695,-0.536117 0.222693,-0.230943 0.602098,-0.362909 0.387654,-0.131965 0.849541,-0.131965 0.470131,0 0.866034,0.131965 0.395901,0.123721 0.63509,0.354661 0.239193,0.230945 0.239193,0.544365 0,0.321671 -0.230943,0.56086 -0.230942,0.230942 -0.618595,0.362911 -0.379407,0.12372 -0.841291,0.12372 -0.461886,0 -0.857787,-0.12372 -0.387653,-0.12372 -0.626845,-0.354662 -0.23919,-0.23919 -0.23919,-0.569109 z m 1.897027,0.882531 q 0.280431,0 0.379405,-0.2062 0.107214,-0.206194 0.107214,-0.486629 0,-0.288677 -0.123721,-0.527866 -0.115474,-0.239193 -0.313423,-0.379409 -0.197949,-0.148472 -0.445389,-0.148472 -0.28043,0 -0.379405,0.206199 -0.09072,0.206197 -0.09072,0.486629 0,0.280429 0.115474,0.519619 0.115475,0.239192 0.305173,0.387656 0.197952,0.148475 0.445389,0.148475 z"
         id="path823-47-1-1"
         style="font-size:10.5833px;line-height:1.25;letter-spacing:0px;word-spacing:0px;opacity:0.490408;stroke-width:0.206201" />
      <path
         d="m 42.291013,42.851949 q 0,-0.305174 0.222695,-0.536117 0.222693,-0.230943 0.602098,-0.362909 0.387654,-0.131965 0.849541,-0.131965 0.470131,0 0.866034,0.131965 0.395901,0.12372 0.63509,0.354661 0.239193,0.230944 0.239193,0.544365 0,0.321671 -0.230943,0.56086 -0.230942,0.230942 -0.618595,0.362911 -0.379407,0.12372 -0.841291,0.12372 -0.461886,0 -0.857787,-0.12372 -0.387653,-0.12372 -0.626845,-0.354662 -0.23919,-0.239191 -0.23919,-0.569109 z m 1.897027,0.882531 q 0.280431,0 0.379405,-0.206201 0.107214,-0.206195 0.107214,-0.486629 0,-0.288676 -0.123721,-0.527865 -0.115474,-0.239193 -0.313423,-0.379409 -0.197949,-0.148473 -0.445389,-0.148473 -0.28043,0 -0.379405,0.2062 -0.09072,0.206196 -0.09072,0.486629 0,0.280428 0.115474,0.519619 0.115475,0.239192 0.305173,0.387656 0.197952,0.148474 0.445389,0.148474 z"
         id="path823-47-1-5"
         style="font-size:10.5833px;line-height:1.25;letter-spacing:0px;word-spacing:0px;fill-opacity:1;stroke-width:0.206201" />
      <rect
         style="opacity:0.219706;stroke-width:0.245342;stroke-linejoin:round;stroke-dasharray:0.981369, 0.245342"
         id="rect1224"
         width="6.3500037"
         height="0.52916658"
         x="41.497261"
         y="45.762363" />
      <rect
         style="opacity:0.219706;stroke-width:0.245342;stroke-linejoin:round;stroke-dasharray:0.981369, 0.245342"
         id="rect1226"
         width="6.3499985"
         height="0.52916664"
         x="41.497261"
         y="47.879032" />
      <path
         style="color:#000000;font-size:10.5833px;line-height:1.25;letter-spacing:0px;word-spacing:0px;fill:#000000;fill-rule:evenodd;stroke-width:0.316661;stroke-linejoin:round;-inkscape-stroke:none"
         d="m 48.001646,43.116532 -2.206356,-0.15934 c -0.05567,-0.0041 -0.08574,0.0639 -0.04523,0.102315 l 1.57534,1.551416 c 0.04188,0.04762 0.119229,0.0052 0.101629,-0.05569 -0.106376,-0.529858 0.134132,-1.066003 0.599292,-1.327431 0.05196,-0.02861 0.03453,-0.107303 -0.02468,-0.111265 z"
         id="path6146-4" />
      <path
         style="color:#000000;fill:#000000;stroke-linecap:round;-inkscape-stroke:none"
         d="m 46.576172,43.121094 a 0.26458332,0.26458332 0 0 0 -0.310547,0.208984 0.26458332,0.26458332 0 0 0 0.207031,0.310547 c 0.621543,0.124309 1.081389,0.360156 1.398438,0.763672 0.317048,0.403516 0.505859,0.998476 0.505859,1.886719 0,1.751287 -1.011995,2.703868 -1.671875,2.923828 a 0.26458332,0.26458332 0 0 0 -0.167969,0.335937 0.26458332,0.26458332 0 0 0 0.335938,0.166016 c 0.927619,-0.309206 2.033203,-1.472907 2.033203,-3.425781 0,-0.963839 -0.208585,-1.690366 -0.619141,-2.212891 -0.410555,-0.522525 -1.009565,-0.816757 -1.710937,-0.957031 z"
         id="path6148" />
    </g>
  </g>
</svg>
