<?xml version="1.0" encoding="UTF-8" standalone="no"?>
<!-- Created with Inkscape (http://www.inkscape.org/) -->

<svg
   width="32"
   height="32"
   viewBox="0 0 8.4666665 8.4666665"
   version="1.1"
   id="svg5"
   inkscape:version="1.1.1 (3bf5ae0d25, 2021-09-20)"
   sodipodi:docname="chord-inversion-0-symbolic.svg"
   xmlns:inkscape="http://www.inkscape.org/namespaces/inkscape"
   xmlns:sodipodi="http://sodipodi.sourceforge.net/DTD/sodipodi-0.dtd"
   xmlns="http://www.w3.org/2000/svg"
   xmlns:svg="http://www.w3.org/2000/svg">
  <sodipodi:namedview
     id="namedview7"
     pagecolor="#ffffff"
     bordercolor="#ff6600"
     borderopacity="1.0"
     inkscape:pageshadow="2"
     inkscape:pageopacity="0.0"
     inkscape:pagecheckerboard="0"
     inkscape:document-units="px"
     showgrid="true"
     inkscape:zoom="13.364606"
     inkscape:cx="14.890076"
     inkscape:cy="15.862795"
     inkscape:window-width="1920"
     inkscape:window-height="1020"
     inkscape:window-x="0"
     inkscape:window-y="32"
     inkscape:window-maximized="1"
     inkscape:current-layer="text2168"
     fit-margin-top="0"
     fit-margin-left="0"
     fit-margin-right="0"
     fit-margin-bottom="0"
     inkscape:snap-to-guides="true"
     inkscape:snap-grids="true"
     units="px"
     width="32px"
     scale-x="0.5">
    <inkscape:grid
       type="xygrid"
       id="grid1371"
       originx="0"
       originy="0" />
  </sodipodi:namedview>
  <defs
     id="defs2">
    <inkscape:path-effect
       effect="bspline"
       id="path-effect1380"
       is_visible="true"
       lpeversion="1"
       weight="33.333333"
       steps="2"
       helper_size="0"
       apply_no_weight="true"
       apply_with_weight="true"
       only_selected="false" />
  </defs>
  <g
     inkscape:label="Layer 1"
     inkscape:groupmode="layer"
     id="layer1"
     transform="translate(-40.968096,-41.529032)">
    <g
       aria-label="ð…ð„ž"
       id="text2168"
       style="font-size:10.5833px;line-height:1.25;letter-spacing:0px;word-spacing:0px;stroke-width:0.264583">
      <rect
         style="font-size:10.5833px;line-height:1.25;letter-spacing:0px;word-spacing:0px;opacity:0.219706;stroke-width:0.245342;stroke-linejoin:round;stroke-dasharray:0.981369, 0.245342"
         id="rect1226-5"
         width="6.3499985"
         height="0.52916664"
         x="41.497261"
         y="48.672783" />
      <path
         d="m 42.77973,44.787424 q 0,-0.305173 0.222695,-0.536115 0.222693,-0.230944 0.602098,-0.36291 0.387654,-0.131966 0.849541,-0.131966 0.470131,0 0.866034,0.131966 0.395901,0.12372 0.63509,0.354661 0.239193,0.230944 0.239193,0.544364 0,0.321671 -0.230943,0.560861 -0.230942,0.230942 -0.618595,0.36291 -0.379407,0.123721 -0.841291,0.123721 -0.461886,0 -0.857787,-0.123721 -0.387653,-0.12372 -0.626845,-0.354661 -0.23919,-0.239191 -0.23919,-0.56911 z m 1.897027,0.882531 q 0.280431,0 0.379405,-0.206199 0.107214,-0.206195 0.107214,-0.486629 0,-0.288678 -0.123721,-0.527866 -0.115474,-0.239192 -0.313423,-0.379408 -0.197949,-0.148473 -0.445389,-0.148473 -0.28043,0 -0.379405,0.206199 -0.09072,0.206197 -0.09072,0.486629 0,0.280428 0.115474,0.519619 0.115475,0.239191 0.305173,0.387656 0.197952,0.148474 0.445389,0.148474 z"
         id="path823-47-1"
         style="font-size:10.5833px;line-height:1.25;letter-spacing:0px;word-spacing:0px;stroke-width:0.206201;opacity:0.49040754" />
      <path
         d="m 42.77973,46.811681 q 0,-0.305174 0.222695,-0.536117 0.222693,-0.230943 0.602098,-0.362909 0.387654,-0.131965 0.849541,-0.131965 0.470131,0 0.866034,0.131965 0.395901,0.123721 0.63509,0.354661 0.239193,0.230945 0.239193,0.544365 0,0.321671 -0.230943,0.56086 -0.230942,0.230942 -0.618595,0.362911 -0.379407,0.12372 -0.841291,0.12372 -0.461886,0 -0.857787,-0.12372 -0.387653,-0.12372 -0.626845,-0.354662 -0.23919,-0.23919 -0.23919,-0.569109 z m 1.897027,0.882531 q 0.280431,0 0.379405,-0.2062 0.107214,-0.206194 0.107214,-0.486629 0,-0.288677 -0.123721,-0.527866 -0.115474,-0.239193 -0.313423,-0.379409 -0.197949,-0.148472 -0.445389,-0.148472 -0.28043,0 -0.379405,0.206199 -0.09072,0.206197 -0.09072,0.486629 0,0.280429 0.115474,0.519619 0.115475,0.239192 0.305173,0.387656 0.197952,0.148475 0.445389,0.148475 z"
         id="path823-47-1-1"
         style="font-size:10.5833px;line-height:1.25;letter-spacing:0px;word-spacing:0px;stroke-width:0.206201;opacity:0.49040754" />
      <path
         d="m 42.77973,48.835938 q 0,-0.305174 0.222695,-0.536117 0.222693,-0.230943 0.602098,-0.362909 0.387654,-0.131965 0.849541,-0.131965 0.470131,0 0.866034,0.131965 0.395901,0.12372 0.63509,0.354661 0.239193,0.230944 0.239193,0.544365 0,0.321671 -0.230943,0.56086 -0.230942,0.230942 -0.618595,0.362911 -0.379407,0.12372 -0.841291,0.12372 -0.461886,0 -0.857787,-0.12372 -0.387653,-0.12372 -0.626845,-0.354662 -0.23919,-0.239191 -0.23919,-0.569109 z m 1.897027,0.882531 q 0.280431,0 0.379405,-0.206201 0.107214,-0.206195 0.107214,-0.486629 0,-0.288676 -0.123721,-0.527865 -0.115474,-0.239193 -0.313423,-0.379409 -0.197949,-0.148473 -0.445389,-0.148473 -0.28043,0 -0.379405,0.2062 -0.09072,0.206196 -0.09072,0.486629 0,0.280428 0.115474,0.519619 0.115475,0.239192 0.305173,0.387656 0.197952,0.148474 0.445389,0.148474 z"
         id="path823-47-1-5"
         style="font-size:10.5833px;line-height:1.25;letter-spacing:0px;word-spacing:0px;fill-opacity:1;stroke-width:0.206201" />
      <rect
         style="opacity:0.219706;stroke-width:0.245342;stroke-linejoin:round;stroke-dasharray:0.981369, 0.245342"
         id="rect1224"
         width="6.3500037"
         height="0.52916658"
         x="41.497261"
         y="44.439445" />
      <rect
         style="opacity:0.219706;stroke-width:0.245342;stroke-linejoin:round;stroke-dasharray:0.981369, 0.245342"
         id="rect1226"
         width="6.3499985"
         height="0.52916664"
         x="41.497261"
         y="46.556114" />
      <path
         style="color:#000000;font-size:10.5833px;line-height:1.25;letter-spacing:0px;word-spacing:0px;fill:#000000;fill-rule:evenodd;stroke-width:0.316661;stroke-linejoin:round;-inkscape-stroke:none"
         d="m 48.464007,48.143615 -2.112082,0.657649 c -0.05332,0.01652 -0.05647,0.0908 -0.0047,0.111767 l 2.033198,0.86873 c 0.05638,0.02903 0.112889,-0.03871 0.07426,-0.08897 -0.29258,-0.454381 -0.264546,-1.04133 0.07297,-1.454613 0.03792,-0.04561 -0.0071,-0.112501 -0.06362,-0.09456 z"
         id="path6146-4" />
      <path
         style="color:#000000;fill:#000000;stroke-linecap:round;-inkscape-stroke:none"
         d="m 47.582031,48.671875 a 0.26458332,0.26458332 0 0 0 -0.263672,0.265625 0.26458332,0.26458332 0 0 0 0.263672,0.263672 H 48.90625 A 0.26458332,0.26458332 0 0 0 49.169922,48.9375 0.26458332,0.26458332 0 0 0 48.90625,48.671875 Z"
         id="path1378" />
    </g>
  </g>
</svg>
