<?xml version="1.0" encoding="UTF-8" standalone="no"?>
<!-- Created with Inkscape (http://www.inkscape.org/) -->

<svg
   width="32"
   height="32"
   viewBox="0 0 8.4666665 8.4666665"
   version="1.1"
   id="svg5"
   inkscape:version="1.1.1 (3bf5ae0d25, 2021-09-20)"
   sodipodi:docname="chord-diminished-symbolic.svg"
   xmlns:inkscape="http://www.inkscape.org/namespaces/inkscape"
   xmlns:sodipodi="http://sodipodi.sourceforge.net/DTD/sodipodi-0.dtd"
   xmlns="http://www.w3.org/2000/svg"
   xmlns:svg="http://www.w3.org/2000/svg">
  <sodipodi:namedview
     id="namedview7"
     pagecolor="#ffffff"
     bordercolor="#ff6600"
     borderopacity="1.0"
     inkscape:pageshadow="2"
     inkscape:pageopacity="0.0"
     inkscape:pagecheckerboard="0"
     inkscape:document-units="px"
     showgrid="true"
     inkscape:zoom="15.472836"
     inkscape:cx="10.534591"
     inkscape:cy="6.4629393"
     inkscape:window-width="1920"
     inkscape:window-height="1020"
     inkscape:window-x="0"
     inkscape:window-y="32"
     inkscape:window-maximized="1"
     inkscape:current-layer="text2168"
     fit-margin-top="0"
     fit-margin-left="0"
     fit-margin-right="0"
     fit-margin-bottom="0"
     inkscape:snap-to-guides="true"
     inkscape:snap-grids="true"
     units="px"
     width="32px"
     scale-x="0.5">
    <inkscape:grid
       type="xygrid"
       id="grid1371"
       originx="0"
       originy="0" />
  </sodipodi:namedview>
  <defs
     id="defs2" />
  <g
     inkscape:label="Layer 1"
     inkscape:groupmode="layer"
     id="layer1"
     transform="translate(-40.968096,-41.529032)">
    <g
       aria-label="ð…ð„ž"
       id="text2168"
       style="font-size:10.5833px;line-height:1.25;letter-spacing:0px;word-spacing:0px;stroke-width:0.264583">
      <path
         style="font-size:10.5833px;line-height:1.25;letter-spacing:0px;word-spacing:0px;stroke-width:0.185617"
         d="m 44.143096,43.381115 q 0,-0.27471 0.200464,-0.482598 0.200463,-0.20789 0.541994,-0.326682 0.348956,-0.118792 0.764734,-0.118792 0.4232,0 0.779583,0.118792 0.356378,0.11137 0.57169,0.319257 0.215315,0.20789 0.215315,0.490023 0,0.28956 -0.207888,0.504872 -0.207889,0.207888 -0.556843,0.326683 -0.341533,0.111369 -0.757309,0.111369 -0.415778,0 -0.772158,-0.111369 -0.348955,-0.11137 -0.564269,-0.319258 -0.215313,-0.215313 -0.215313,-0.512297 z"
         id="path823-47-1" />
      <path
         style="font-size:10.5833px;line-height:1.25;letter-spacing:0px;word-spacing:0px;stroke-width:0.185617"
         d="m 44.143096,45.762365 q 0,-0.27471 0.200464,-0.482598 0.200463,-0.20789 0.541994,-0.326682 0.348956,-0.118792 0.764734,-0.118792 0.4232,0 0.779583,0.118792 0.356378,0.11137 0.57169,0.319257 0.215315,0.20789 0.215315,0.490023 0,0.28956 -0.207888,0.504872 -0.207889,0.207888 -0.556843,0.326683 -0.341533,0.111369 -0.757309,0.111369 -0.415778,0 -0.772158,-0.111369 -0.348955,-0.11137 -0.564269,-0.319258 -0.215313,-0.215313 -0.215313,-0.512297 z"
         id="path823-47-1-1" />
      <path
         style="font-size:10.5833px;line-height:1.25;letter-spacing:0px;word-spacing:0px;stroke-width:0.185617"
         d="m 44.143096,48.143615 q 0,-0.27471 0.200464,-0.482598 0.200463,-0.20789 0.541994,-0.326682 0.348956,-0.118792 0.764734,-0.118792 0.4232,0 0.779583,0.118792 0.356378,0.11137 0.57169,0.319257 0.215315,0.20789 0.215315,0.490023 0,0.28956 -0.207888,0.504872 -0.207889,0.207888 -0.556843,0.326683 -0.341533,0.111369 -0.757309,0.111369 -0.415778,0 -0.772158,-0.111369 -0.348955,-0.11137 -0.564269,-0.319258 -0.215313,-0.215313 -0.215313,-0.512297 z"
         id="path823-47-1-5" />
      <rect
         style="opacity:0.2197056;stroke-width:0.245342;stroke-linejoin:round;stroke-dasharray:0.981369, 0.245342"
         id="rect1224"
         width="6.3500037"
         height="0.52916658"
         x="42.555595"
         y="43.116531" />
      <rect
         style="opacity:0.2197056;stroke-width:0.245342;stroke-linejoin:round;stroke-dasharray:0.981369, 0.245342"
         id="rect1226"
         width="6.3499985"
         height="0.52916664"
         x="42.555595"
         y="45.49778" />
      <rect
         style="font-size:10.5833px;line-height:1.25;letter-spacing:0px;word-spacing:0px;opacity:0.2197056;stroke-width:0.245342;stroke-linejoin:round;stroke-dasharray:0.981369, 0.245342"
         id="rect1226-5"
         width="6.3499985"
         height="0.52916664"
         x="42.555595"
         y="47.879032" />
      <g
         aria-label="â™­"
         id="text10078"
         style="font-size:6.26596px;line-height:1.25;letter-spacing:0px;word-spacing:0px;stroke-width:0.0414467"
         transform="matrix(0.79414486,0,0,0.79414486,8.8289743,9.3932192)">
        <path
           d="m 41.58696,42.434489 h 0.13768 l 0.0153,0.01836 v 2.940228 h 0.0092 q 0.520124,-0.725114 0.963759,-0.725114 0.694518,0.0092 0.755709,0.795484 -0.08873,1.300309 -1.890803,1.569549 l -0.0092,-0.0092 v -4.570969 z m 0.152977,3.285958 v 1.086141 q 1.278893,-0.302896 1.278893,-1.236059 0.0031,-0.03977 0.0031,-0.07649 0,-0.452813 -0.455873,-0.47729 -0.364086,0 -0.826079,0.703697 z"
           id="path11224" />
      </g>
      <g
         aria-label="â™­"
         id="text10078-9"
         style="font-size:6.26596px;line-height:1.25;letter-spacing:0px;word-spacing:0px;stroke-width:0.0414467"
         transform="matrix(0.79414486,0,0,0.79414486,8.8289743,7.0119692)">
        <path
           d="m 41.58696,42.434489 h 0.13768 l 0.0153,0.01836 v 2.940228 h 0.0092 q 0.520124,-0.725114 0.963759,-0.725114 0.694518,0.0092 0.755709,0.795484 -0.08873,1.300309 -1.890803,1.569549 l -0.0092,-0.0092 v -4.570969 z m 0.152977,3.285958 v 1.086141 q 1.278893,-0.302896 1.278893,-1.236059 0.0031,-0.03977 0.0031,-0.07649 0,-0.452813 -0.455873,-0.47729 -0.364086,0 -0.826079,0.703697 z"
           id="path11224-8" />
      </g>
    </g>
  </g>
</svg>
