<?xml version="1.0" encoding="UTF-8" standalone="no"?>
<!-- Created with Inkscape (http://www.inkscape.org/) -->

<svg
   width="64"
   height="64"
   viewBox="0 0 16.933333 16.933333"
   version="1.1"
   id="svg5"
   inkscape:version="1.1.1 (3bf5ae0d25, 2021-09-20)"
   sodipodi:docname="chord-minor-symbolic.svg"
   xmlns:inkscape="http://www.inkscape.org/namespaces/inkscape"
   xmlns:sodipodi="http://sodipodi.sourceforge.net/DTD/sodipodi-0.dtd"
   xmlns="http://www.w3.org/2000/svg"
   xmlns:svg="http://www.w3.org/2000/svg">
  <sodipodi:namedview
     id="namedview7"
     pagecolor="#ffffff"
     bordercolor="#ff6600"
     borderopacity="1.0"
     inkscape:pageshadow="2"
     inkscape:pageopacity="0.0"
     inkscape:pagecheckerboard="0"
     inkscape:document-units="mm"
     showgrid="true"
     inkscape:zoom="6.6601827"
     inkscape:cx="1.8768254"
     inkscape:cy="36.035048"
     inkscape:window-width="1920"
     inkscape:window-height="1020"
     inkscape:window-x="0"
     inkscape:window-y="32"
     inkscape:window-maximized="1"
     inkscape:current-layer="text2168"
     fit-margin-top="0"
     fit-margin-left="0"
     fit-margin-right="0"
     fit-margin-bottom="0"
     inkscape:snap-to-guides="true"
     inkscape:snap-grids="true"
     units="px"
     width="32px"
     scale-x="0.5">
    <inkscape:grid
       type="xygrid"
       id="grid1371"
       originx="-40.968097"
       originy="-41.529031" />
  </sodipodi:namedview>
  <defs
     id="defs2" />
  <g
     inkscape:label="Layer 1"
     inkscape:groupmode="layer"
     id="layer1"
     transform="translate(-40.968096,-41.529032)">
    <g
       aria-label="ð…ð„ž"
       id="text2168"
       style="font-size:10.5833px;line-height:1.25;letter-spacing:0px;word-spacing:0px;stroke-width:0.264583">
      <path
         d="m 47.215945,52.133124 q 0,-0.619612 0.45215,-1.088511 0.452149,-0.468894 1.222476,-0.736838 0.787078,-0.267939 1.724871,-0.267939 0.954537,0 1.758363,0.267939 0.803819,0.251197 1.289461,0.720092 0.485645,0.468896 0.485645,1.105257 0,0.653104 -0.468896,1.138745 -0.468897,0.4689 -1.255972,0.736839 -0.77033,0.251195 -1.708123,0.251195 -0.937793,0 -1.741615,-0.251195 -0.787074,-0.251198 -1.27272,-0.720092 -0.48564,-0.48564 -0.48564,-1.155492 z m 3.851644,1.791853 q 0.569378,0 0.770332,-0.418656 0.217679,-0.418661 0.217679,-0.988033 0,-0.586119 -0.251195,-1.071764 -0.234455,-0.485642 -0.636364,-0.770329 -0.401907,-0.301456 -0.904297,-0.301456 -0.569375,0 -0.770329,0.418657 -0.184196,0.418658 -0.184196,0.988033 0,0.56937 0.234454,1.055014 0.234454,0.485643 0.61961,0.787076 0.401913,0.301454 0.904299,0.301454 z"
         id="path823"
         style="stroke-width:0.41866" />
      <path
         d="m 47.215945,47.946537 q 0,-0.619614 0.45215,-1.08851 0.452149,-0.468897 1.222476,-0.736839 0.787078,-0.267939 1.724871,-0.267939 0.954537,0 1.758363,0.267939 0.803819,0.251197 1.289461,0.720089 0.485645,0.468899 0.485645,1.10526 0,0.653105 -0.468896,1.138745 -0.468897,0.468901 -1.255972,0.736839 -0.77033,0.251196 -1.708123,0.251196 -0.937793,0 -1.741615,-0.251196 -0.787074,-0.251197 -1.27272,-0.720091 -0.48564,-0.485644 -0.48564,-1.155493 z m 3.851644,1.791853 q 0.569378,0 0.770332,-0.418656 0.217679,-0.41866 0.217679,-0.988031 0,-0.58612 -0.251195,-1.071766 -0.234455,-0.485641 -0.636364,-0.770329 -0.401907,-0.301455 -0.904297,-0.301455 -0.569375,0 -0.770329,0.418653 -0.184196,0.418661 -0.184196,0.988036 0,0.569371 0.234454,1.055016 0.234454,0.485642 0.61961,0.787074 0.401913,0.301456 0.904299,0.301456 z"
         id="path823-4"
         style="font-size:10.5833px;line-height:1.25;letter-spacing:0px;word-spacing:0px;stroke-width:0.41866" />
      <path
         d="m 47.234851,43.742449 q 0,-0.61961 0.45215,-1.088505 0.452151,-0.4689 1.222478,-0.736838 0.787076,-0.267939 1.724869,-0.267939 0.954536,0 1.758362,0.267939 0.80382,0.251195 1.289467,0.720089 0.485639,0.468899 0.485639,1.105254 0,0.653109 -0.468897,1.138751 -0.468895,0.468895 -1.255971,0.736837 -0.770327,0.251197 -1.708123,0.251197 -0.937792,0 -1.741612,-0.251197 -0.787076,-0.251196 -1.272718,-0.72009 -0.485644,-0.485643 -0.485644,-1.155498 z m 3.85165,1.791855 q 0.569371,0 0.770329,-0.418658 0.217679,-0.418656 0.217679,-0.98803 0,-0.586124 -0.251196,-1.071761 -0.234454,-0.485645 -0.636361,-0.770333 -0.40191,-0.301455 -0.904297,-0.301455 -0.569374,0 -0.770331,0.418657 -0.184196,0.418659 -0.184196,0.988034 0,0.569372 0.234453,1.055014 0.234454,0.485643 0.619611,0.787076 0.401915,0.301456 0.904309,0.301456 z"
         id="path823-4-3"
         style="font-size:10.5833px;line-height:1.25;letter-spacing:0px;word-spacing:0px;stroke-width:0.41866" />
      <path
         d="m 47.215945,56.319707 q 0,-0.619611 0.45215,-1.088507 0.452149,-0.468897 1.222476,-0.736836 0.787078,-0.267939 1.724871,-0.267939 0.954537,0 1.758363,0.267939 0.803819,0.251196 1.289461,0.720089 0.485645,0.4689 0.485645,1.105254 0,0.653108 -0.468896,1.138749 -0.468897,0.468896 -1.255972,0.736838 -0.77033,0.251196 -1.708123,0.251196 -0.937793,0 -1.741615,-0.251196 -0.787074,-0.251198 -1.27272,-0.720091 -0.48564,-0.485644 -0.48564,-1.155496 z m 3.851644,1.791853 q 0.569378,0 0.770332,-0.418656 0.217679,-0.418653 0.217679,-0.988032 0,-0.58612 -0.251195,-1.071759 -0.234455,-0.485647 -0.636364,-0.770332 -0.401907,-0.301455 -0.904297,-0.301455 -0.569375,0 -0.770329,0.418657 -0.184196,0.418654 -0.184196,0.988032 0,0.569371 0.234454,1.055015 0.234454,0.485643 0.61961,0.787078 0.401913,0.301456 0.904299,0.301456 z"
         id="path823-47"
         style="font-size:10.5833px;line-height:1.25;letter-spacing:0px;word-spacing:0px;stroke-width:0.41866" />
      <path
         d="m 34.591154,39.424155 q -0.222991,-0.844192 -0.366348,-1.672461 -0.143352,-0.828265 -0.143352,-1.688387 0,-0.748624 0.09556,-1.40168 0.1115,-0.668982 0.302621,-1.22647 0.207059,-0.637126 0.541558,-1.194618 0.334492,-0.573411 0.700841,-0.93976 0.382278,-0.366348 0.668982,-0.366348 0.382278,0 1.051263,1.353894 0.33449,0.684915 0.493773,1.481321 0.159295,0.79641 0.159295,1.70432 0,1.130899 -0.302623,2.261802 -0.302621,1.114973 -0.891978,2.10252 -0.573414,0.987548 -1.385753,1.736173 l 0.557488,2.675936 q 0.238922,-0.03174 0.398205,-0.0478 0.159295,-0.01591 0.238924,-0.01591 0.971616,0 1.73617,0.55749 0.764553,0.541558 1.210543,1.433537 0.461918,0.891977 0.461918,1.959166 0,1.226468 -0.637127,2.214017 -0.6212,0.971619 -1.879527,1.433538 0.07963,0.270788 0.461917,2.261801 0.09556,0.477848 0.143352,0.748627 0.0478,0.286721 0.0637,0.493773 0.01591,0.207057 0.01591,0.477846 0,0.79641 -0.398203,1.417607 -0.382278,0.637127 -1.051264,0.987549 -0.653052,0.350419 -1.465392,0.350419 -0.828265,0 -1.465392,-0.318553 -0.637127,-0.302621 -1.003475,-0.860122 -0.366351,-0.541559 -0.366351,-1.258326 0,-0.764553 0.414136,-1.274257 0.430058,-0.509702 1.210539,-0.509702 0.668986,0 1.083119,0.477846 0.430061,0.493777 0.430061,1.162759 0,0.573415 -0.398205,1.003475 -0.398205,0.430061 -1.035331,0.430061 H 34.08141 q 0.414131,0.621201 1.306111,0.621201 1.099044,0 1.720246,-0.71677 0.621197,-0.716767 0.621197,-1.83174 0,-0.27079 -0.0637,-0.7327 -0.06369,-0.445988 -0.22299,-1.083114 -0.159294,-0.637129 -0.254856,-1.051261 -0.07963,-0.414133 -0.1115,-0.589343 -0.541558,0.159295 -1.274255,0.159295 -1.369825,0 -2.675937,-0.79641 -1.274255,-0.796406 -2.00695,-2.102518 -0.732697,-1.306112 -0.732697,-2.81929 0,-1.433538 0.653056,-2.691864 0.653057,-1.258327 1.608746,-2.309587 0.971621,-1.051261 1.94324,-2.006953 z m 0.430062,-0.398205 q 0.366348,-0.191124 0.78048,-0.700839 0.414134,-0.525631 0.796411,-1.194614 0.382277,-0.668986 0.621198,-1.337968 0.238922,-0.684915 0.238922,-1.226473 0,-0.573411 -0.175193,-0.907905 -0.175194,-0.334492 -0.605271,-0.334492 -0.382278,0 -0.748625,0.350419 -0.350419,0.35042 -0.637128,0.939763 -0.270788,0.573416 -0.430061,1.290183 -0.159295,0.71677 -0.159295,1.465396 0,0.509698 0.09556,0.923835 0.111499,0.414132 0.222991,0.732695 z m 0.907906,7.119902 q -0.43006,0.09556 -0.812338,0.414132 -0.382276,0.302621 -0.6212,0.748626 -0.22299,0.430058 -0.22299,0.923831 0,0.398207 0.207057,0.828269 0.207059,0.414133 0.509703,0.668982 0.207059,0.191126 0.414133,0.286721 0.238923,0.111499 0.238923,0.207058 0,0.0478 -0.159295,0.09556 -0.605271,-0.143369 -1.099044,-0.541561 -0.477846,-0.398205 -0.764552,-0.95569 -0.270788,-0.573417 -0.270788,-1.210544 0,-0.684912 0.270788,-1.322038 0.286722,-0.637126 0.780478,-1.146829 0.509706,-0.509702 1.146833,-0.764553 l -0.461901,-2.405155 q -1.84767,1.497251 -2.723721,2.946714 -0.860125,1.433536 -0.860125,2.851144 0,1.035334 0.541561,1.927312 0.541559,0.891981 1.481322,1.449465 0.93976,0.541559 2.118448,0.541559 0.318554,0 0.637129,-0.0637 0.33449,-0.0637 0.700839,-0.159294 z m 1.545034,5.160731 q 1.560963,-0.668985 1.560963,-2.73965 0,-0.684911 -0.350419,-1.242397 -0.350422,-0.573416 -0.939763,-0.907906 -0.589343,-0.334492 -1.322039,-0.334492 z"
         id="path825"
         style="opacity:0.672998;fill:#000000;fill-opacity:1;stroke-width:0.398207" />
      <rect
         style="opacity:0.591656;stroke-width:0.858152;stroke-miterlimit:4;stroke-dasharray:none"
         id="rect1527"
         width="27.417788"
         height="0.85680586"
         x="30.523153"
         y="47.247921" />
      <rect
         style="font-size:10.5833px;line-height:1.25;letter-spacing:0px;word-spacing:0px;opacity:0.591656;stroke-width:0.858152;stroke-miterlimit:4;stroke-dasharray:none"
         id="rect1527-7"
         width="27.417788"
         height="0.85680586"
         x="30.523153"
         y="51.53194" />
      <rect
         style="font-size:10.5833px;line-height:1.25;letter-spacing:0px;word-spacing:0px;opacity:0.591656;stroke-width:0.858152;stroke-miterlimit:4;stroke-dasharray:none"
         id="rect1527-8"
         width="27.417788"
         height="0.85680586"
         x="30.523153"
         y="42.96389" />
      <rect
         style="font-size:10.5833px;line-height:1.25;letter-spacing:0px;word-spacing:0px;opacity:0.591656;stroke-width:0.858152;stroke-miterlimit:4;stroke-dasharray:none"
         id="rect1527-5"
         width="27.417788"
         height="0.85680586"
         x="30.523153"
         y="38.679855" />
      <rect
         style="font-size:10.5833px;line-height:1.25;letter-spacing:0px;word-spacing:0px;opacity:0.591656;stroke-width:0.858152;stroke-miterlimit:4;stroke-dasharray:none"
         id="rect1527-74"
         width="27.417788"
         height="0.85680586"
         x="30.523153"
         y="34.395836" />
      <rect
         style="font-size:10.5833px;line-height:1.25;letter-spacing:0px;word-spacing:0px;opacity:0.591656;stroke-width:0.546969;stroke-miterlimit:4;stroke-dasharray:none"
         id="rect1527-1"
         width="11.138475"
         height="0.85680586"
         x="45.088852"
         y="55.815975" />
    </g>
  </g>
</svg>
