<?xml version="1.0" encoding="UTF-8" standalone="no"?>
<!-- Created with Inkscape (http://www.inkscape.org/) -->

<svg
   width="32"
   height="32"
   viewBox="0 0 8.4666665 8.4666665"
   version="1.1"
   id="svg5"
   inkscape:version="1.1.1 (3bf5ae0d25, 2021-09-20)"
   sodipodi:docname="chord-augmented-symbolic.svg"
   xmlns:inkscape="http://www.inkscape.org/namespaces/inkscape"
   xmlns:sodipodi="http://sodipodi.sourceforge.net/DTD/sodipodi-0.dtd"
   xmlns="http://www.w3.org/2000/svg"
   xmlns:svg="http://www.w3.org/2000/svg">
  <sodipodi:namedview
     id="namedview7"
     pagecolor="#ffffff"
     bordercolor="#ff6600"
     borderopacity="1.0"
     inkscape:pageshadow="2"
     inkscape:pageopacity="0.0"
     inkscape:pagecheckerboard="0"
     inkscape:document-units="px"
     showgrid="true"
     inkscape:zoom="15.472836"
     inkscape:cx="10.534591"
     inkscape:cy="6.4629393"
     inkscape:window-width="1920"
     inkscape:window-height="1020"
     inkscape:window-x="0"
     inkscape:window-y="32"
     inkscape:window-maximized="1"
     inkscape:current-layer="text2168"
     fit-margin-top="0"
     fit-margin-left="0"
     fit-margin-right="0"
     fit-margin-bottom="0"
     inkscape:snap-to-guides="true"
     inkscape:snap-grids="true"
     units="px"
     width="32px"
     scale-x="0.5">
    <inkscape:grid
       type="xygrid"
       id="grid1371"
       originx="0"
       originy="0" />
  </sodipodi:namedview>
  <defs
     id="defs2" />
  <g
     inkscape:label="Layer 1"
     inkscape:groupmode="layer"
     id="layer1"
     transform="translate(-40.968096,-41.529032)">
    <g
       aria-label="ð…ð„ž"
       id="text2168"
       style="font-size:10.5833px;line-height:1.25;letter-spacing:0px;word-spacing:0px;stroke-width:0.264583">
      <path
         style="font-size:10.5833px;line-height:1.25;letter-spacing:0px;word-spacing:0px;stroke-width:0.185617"
         d="m 44.143096,43.381115 q 0,-0.27471 0.200464,-0.482598 0.200463,-0.20789 0.541994,-0.326682 0.348956,-0.118792 0.764734,-0.118792 0.4232,0 0.779583,0.118792 0.356378,0.11137 0.57169,0.319257 0.215315,0.20789 0.215315,0.490023 0,0.28956 -0.207888,0.504872 -0.207889,0.207888 -0.556843,0.326683 -0.341533,0.111369 -0.757309,0.111369 -0.415778,0 -0.772158,-0.111369 -0.348955,-0.11137 -0.564269,-0.319258 -0.215313,-0.215313 -0.215313,-0.512297 z"
         id="path823-47-1" />
      <path
         style="font-size:10.5833px;line-height:1.25;letter-spacing:0px;word-spacing:0px;stroke-width:0.185617"
         d="m 44.143096,45.762365 q 0,-0.27471 0.200464,-0.482598 0.200463,-0.20789 0.541994,-0.326682 0.348956,-0.118792 0.764734,-0.118792 0.4232,0 0.779583,0.118792 0.356378,0.11137 0.57169,0.319257 0.215315,0.20789 0.215315,0.490023 0,0.28956 -0.207888,0.504872 -0.207889,0.207888 -0.556843,0.326683 -0.341533,0.111369 -0.757309,0.111369 -0.415778,0 -0.772158,-0.111369 -0.348955,-0.11137 -0.564269,-0.319258 -0.215313,-0.215313 -0.215313,-0.512297 z"
         id="path823-47-1-1" />
      <path
         style="font-size:10.5833px;line-height:1.25;letter-spacing:0px;word-spacing:0px;stroke-width:0.185617"
         d="m 44.143096,48.143615 q 0,-0.27471 0.200464,-0.482598 0.200463,-0.20789 0.541994,-0.326682 0.348956,-0.118792 0.764734,-0.118792 0.4232,0 0.779583,0.118792 0.356378,0.11137 0.57169,0.319257 0.215315,0.20789 0.215315,0.490023 0,0.28956 -0.207888,0.504872 -0.207889,0.207888 -0.556843,0.326683 -0.341533,0.111369 -0.757309,0.111369 -0.415778,0 -0.772158,-0.111369 -0.348955,-0.11137 -0.564269,-0.319258 -0.215313,-0.215313 -0.215313,-0.512297 z"
         id="path823-47-1-5" />
      <rect
         style="opacity:0.2197056;stroke-width:0.245342;stroke-linejoin:round;stroke-dasharray:0.981369, 0.245342"
         id="rect1224"
         width="6.3500037"
         height="0.52916658"
         x="42.555595"
         y="43.116531" />
      <rect
         style="opacity:0.2197056;stroke-width:0.245342;stroke-linejoin:round;stroke-dasharray:0.981369, 0.245342"
         id="rect1226"
         width="6.3499985"
         height="0.52916664"
         x="42.555595"
         y="45.49778" />
      <rect
         style="font-size:10.5833px;line-height:1.25;letter-spacing:0px;word-spacing:0px;opacity:0.2197056;stroke-width:0.245342;stroke-linejoin:round;stroke-dasharray:0.981369, 0.245342"
         id="rect1226-5"
         width="6.3499985"
         height="0.52916664"
         x="42.555595"
         y="47.879032" />
      <g
         aria-label="â™¯"
         id="text12349"
         style="font-size:6.85401px;line-height:1.25;letter-spacing:0px;word-spacing:0px;stroke-width:0.0453365"
         transform="matrix(0.80636349,0,0,0.80636349,8.1068442,8.4023866)">
        <path
           d="m 43.126502,40.982426 h 0.153947 l 0.01673,0.01673 v 1.017392 l 0.398255,-0.200801 0.01004,0.0067 v 0.471882 q -0.01004,0.02343 -0.408295,0.224228 v 1.248313 l 0.408299,-0.18407 v 0.451802 q -0.0033,0.01339 -0.408295,0.237615 v 0.993965 l -0.01673,0.01339 h -0.153947 l -0.01673,-0.01339 v -0.913645 l -0.963845,0.468536 v 1.157953 l -0.01673,0.01339 H 41.98864 l -0.01673,-0.01339 V 44.90474 l -0.431723,0.200801 v -0.475229 q 0,-0.02008 0.431723,-0.220881 v -1.268394 h -0.0067 l -0.425029,0.187415 v -0.46519 l 0.431723,-0.217534 v -0.960499 l 0.01673,-0.01339 h 0.140561 l 0.01673,0.01339 v 0.876832 l 0.963845,-0.448456 v -1.114446 z m -0.980579,2.084984 v 1.2617 l 0.963845,-0.465189 v -1.244967 z"
           id="path13039" />
      </g>
    </g>
  </g>
</svg>
