<?xml version="1.0" encoding="UTF-8" standalone="no"?>
<!-- Created with Inkscape (http://www.inkscape.org/) -->

<svg
   width="32"
   height="32"
   viewBox="0 0 8.4666665 8.4666665"
   version="1.1"
   id="svg5"
   inkscape:version="1.1.1 (3bf5ae0d25, 2021-09-20)"
   sodipodi:docname="chord-diminished-seventh-symbolic.svg"
   xmlns:inkscape="http://www.inkscape.org/namespaces/inkscape"
   xmlns:sodipodi="http://sodipodi.sourceforge.net/DTD/sodipodi-0.dtd"
   xmlns="http://www.w3.org/2000/svg"
   xmlns:svg="http://www.w3.org/2000/svg">
  <sodipodi:namedview
     id="namedview7"
     pagecolor="#ffffff"
     bordercolor="#ff6600"
     borderopacity="1.0"
     inkscape:pageshadow="2"
     inkscape:pageopacity="0.0"
     inkscape:pagecheckerboard="0"
     inkscape:document-units="px"
     showgrid="true"
     inkscape:zoom="15.902021"
     inkscape:cx="21.38093"
     inkscape:cy="9.5585334"
     inkscape:window-width="1920"
     inkscape:window-height="1020"
     inkscape:window-x="0"
     inkscape:window-y="32"
     inkscape:window-maximized="1"
     inkscape:current-layer="text2168"
     fit-margin-top="0"
     fit-margin-left="0"
     fit-margin-right="0"
     fit-margin-bottom="0"
     inkscape:snap-to-guides="true"
     inkscape:snap-grids="true"
     units="px"
     width="32px"
     scale-x="0.5">
    <inkscape:grid
       type="xygrid"
       id="grid1371"
       originx="0"
       originy="0" />
  </sodipodi:namedview>
  <defs
     id="defs2" />
  <g
     inkscape:label="Layer 1"
     inkscape:groupmode="layer"
     id="layer1"
     transform="translate(-40.968096,-41.529032)">
    <g
       aria-label="ð…ð„ž"
       id="text2168"
       style="font-size:10.5833px;line-height:1.25;letter-spacing:0px;word-spacing:0px;stroke-width:0.264583">
      <rect
         style="opacity:0.219706;stroke-width:0.234897;stroke-linejoin:round;stroke-dasharray:0.939589, 0.234897"
         id="rect1224"
         width="5.8208361"
         height="0.52916658"
         x="42.820179"
         y="44.439449" />
      <rect
         style="font-size:10.5833px;line-height:1.25;letter-spacing:0px;word-spacing:0px;opacity:0.219706;stroke-width:0.234897;stroke-linejoin:round;stroke-dasharray:0.939589, 0.234897"
         id="rect1224-4"
         width="5.8208361"
         height="0.52916658"
         x="42.820179"
         y="42.322784" />
      <rect
         style="opacity:0.219706;stroke-width:0.234897;stroke-linejoin:round;stroke-dasharray:0.939589, 0.234897"
         id="rect1226"
         width="5.8208313"
         height="0.52916664"
         x="42.820179"
         y="46.556118" />
      <rect
         style="font-size:10.5833px;line-height:1.25;letter-spacing:0px;word-spacing:0px;opacity:0.219706;stroke-width:0.234897;stroke-linejoin:round;stroke-dasharray:0.939589, 0.234897"
         id="rect1226-5"
         width="5.8208313"
         height="0.52916664"
         x="42.820179"
         y="48.672787" />
      <path
         style="font-size:10.5833px;line-height:1.25;letter-spacing:0px;word-spacing:0px;stroke-width:0.168029"
         d="m 46.524346,43.645699 q 0,-0.248678 0.18147,-0.436869 0.181468,-0.188192 0.490638,-0.295729 0.315891,-0.107524 0.692275,-0.107524 0.383099,0 0.705714,0.107524 0.322609,0.100831 0.51752,0.289008 0.194913,0.18819 0.194913,0.44359 0,0.262124 -0.18819,0.457035 -0.188191,0.18819 -0.50408,0.295728 -0.309172,0.100831 -0.685552,0.100831 -0.376382,0 -0.698995,-0.100831 -0.315889,-0.10082 -0.510801,-0.289007 -0.194912,-0.19491 -0.194912,-0.463756 z"
         id="path823-47-1" />
      <path
         style="font-size:10.5833px;line-height:1.25;letter-spacing:0px;word-spacing:0px;stroke-width:0.168029"
         d="m 44.40768,46.820701 q 0,-0.248678 0.18147,-0.436869 0.181468,-0.188192 0.490638,-0.295729 0.315891,-0.107524 0.692275,-0.107524 0.383099,0 0.705714,0.107524 0.322609,0.100831 0.51752,0.289008 0.194913,0.18819 0.194913,0.44359 0,0.262124 -0.18819,0.457035 -0.188191,0.18819 -0.50408,0.295728 -0.309172,0.100831 -0.685552,0.100831 -0.376382,0 -0.698995,-0.100831 -0.315889,-0.10082 -0.510801,-0.289007 -0.194912,-0.19491 -0.194912,-0.463756 z"
         id="path823-47-1-4" />
      <path
         style="font-size:10.5833px;line-height:1.25;letter-spacing:0px;word-spacing:0px;stroke-width:0.168029"
         d="m 44.407679,48.937365 q 0,-0.248678 0.18147,-0.436869 0.181468,-0.188192 0.490638,-0.295729 0.315891,-0.107524 0.692275,-0.107524 0.383099,0 0.705714,0.107524 0.322609,0.100831 0.51752,0.289008 0.194913,0.18819 0.194913,0.44359 0,0.262124 -0.18819,0.457035 -0.188191,0.18819 -0.50408,0.295728 -0.309172,0.100831 -0.685552,0.100831 -0.376382,0 -0.698995,-0.100831 -0.315889,-0.10082 -0.510801,-0.289007 -0.194912,-0.19491 -0.194912,-0.463756 z"
         id="path823-47-1-1" />
      <path
         style="font-size:10.5833px;line-height:1.25;letter-spacing:0px;word-spacing:0px;stroke-width:0.168029"
         d="m 44.40768,44.704035 q 0,-0.248678 0.18147,-0.436869 0.181468,-0.188192 0.490638,-0.295729 0.315891,-0.107524 0.692275,-0.107524 0.383099,0 0.705714,0.107524 0.322609,0.100831 0.51752,0.289008 0.194913,0.18819 0.194913,0.44359 0,0.262124 -0.18819,0.457035 -0.188191,0.18819 -0.50408,0.295728 -0.309172,0.100831 -0.685552,0.100831 -0.376382,0 -0.698995,-0.100831 -0.315889,-0.10082 -0.510801,-0.289007 -0.194912,-0.19491 -0.194912,-0.463756 z"
         id="path823-47-1-0" />
      <g
         aria-label="â™­"
         id="text10078-9-3"
         style="font-size:6.26596px;line-height:1.25;letter-spacing:0px;word-spacing:0px;stroke-width:0.0414467"
         transform="matrix(0.71571442,0,0,0.71571442,12.560149,14.205214)">
        <path
           d="m 41.58696,42.434489 h 0.13768 l 0.0153,0.01836 v 2.940228 h 0.0092 q 0.520124,-0.725114 0.963759,-0.725114 0.694518,0.0092 0.755709,0.795484 -0.08873,1.300309 -1.890803,1.569549 l -0.0092,-0.0092 v -4.570969 z m 0.152977,3.285958 v 1.086141 q 1.278893,-0.302896 1.278893,-1.236059 0.0031,-0.03977 0.0031,-0.07649 0,-0.452813 -0.455873,-0.47729 -0.364086,0 -0.826079,0.703697 z"
           id="path11224-8-0" />
      </g>
      <g
         aria-label="â™­"
         id="text10078-9-4"
         style="font-size:6.26596px;line-height:1.25;letter-spacing:0px;word-spacing:0px;stroke-width:0.0414467"
         transform="matrix(0.71571442,0,0,0.71571442,12.560149,12.088547)">
        <path
           d="m 41.58696,42.434489 h 0.13768 l 0.0153,0.01836 v 2.940228 h 0.0092 q 0.520124,-0.725114 0.963759,-0.725114 0.694518,0.0092 0.755709,0.795484 -0.08873,1.300309 -1.890803,1.569549 l -0.0092,-0.0092 v -4.570969 z m 0.152977,3.285958 v 1.086141 q 1.278893,-0.302896 1.278893,-1.236059 0.0031,-0.03977 0.0031,-0.07649 0,-0.452813 -0.455873,-0.47729 -0.364086,0 -0.826079,0.703697 z"
           id="path11224-8-4" />
      </g>
    </g>
  </g>
</svg>
