<?xml version="1.0" encoding="UTF-8" standalone="no"?>
<!-- Created with Inkscape (http://www.inkscape.org/) -->

<svg
   width="32"
   height="32"
   viewBox="0 0 8.4666665 8.4666665"
   version="1.1"
   id="svg5"
   inkscape:version="1.1.1 (3bf5ae0d25, 2021-09-20)"
   sodipodi:docname="chord-augmented-symbolic.svg"
   xmlns:inkscape="http://www.inkscape.org/namespaces/inkscape"
   xmlns:sodipodi="http://sodipodi.sourceforge.net/DTD/sodipodi-0.dtd"
   xmlns="http://www.w3.org/2000/svg"
   xmlns:svg="http://www.w3.org/2000/svg">
  <sodipodi:namedview
     id="namedview7"
     pagecolor="#ffffff"
     bordercolor="#ff6600"
     borderopacity="1.0"
     inkscape:pageshadow="2"
     inkscape:pageopacity="0.0"
     inkscape:pagecheckerboard="0"
     inkscape:document-units="px"
     showgrid="true"
     inkscape:zoom="13.364606"
     inkscape:cx="14.890076"
     inkscape:cy="15.937619"
     inkscape:window-width="1920"
     inkscape:window-height="1020"
     inkscape:window-x="0"
     inkscape:window-y="32"
     inkscape:window-maximized="1"
     inkscape:current-layer="text2168"
     fit-margin-top="0"
     fit-margin-left="0"
     fit-margin-right="0"
     fit-margin-bottom="0"
     inkscape:snap-to-guides="true"
     inkscape:snap-grids="true"
     units="px"
     width="32px"
     scale-x="0.5">
    <inkscape:grid
       type="xygrid"
       id="grid1371"
       originx="0"
       originy="0" />
  </sodipodi:namedview>
  <defs
     id="defs2" />
  <g
     inkscape:label="Layer 1"
     inkscape:groupmode="layer"
     id="layer1"
     transform="translate(-40.968096,-41.529032)">
    <g
       aria-label="ð…ð„ž"
       id="text2168"
       style="font-size:10.5833px;line-height:1.25;letter-spacing:0px;word-spacing:0px;stroke-width:0.264583">
      <path
         d="m 43.7636,43.401275 q 0,-0.358994 0.261969,-0.630665 0.261967,-0.271672 0.708283,-0.426911 0.45602,-0.155239 0.999364,-0.155239 0.553042,0 1.018767,0.155239 0.46572,0.145539 0.747092,0.417208 0.281376,0.271673 0.281376,0.640368 0,0.3784 -0.271671,0.659772 -0.271671,0.271671 -0.727689,0.426913 -0.446319,0.145539 -0.98966,0.145539 -0.543343,0 -1.009064,-0.145539 Q 44.326348,44.342421 44.044973,44.070751 43.7636,43.789377 43.7636,43.401275 Z m 2.231583,1.038172 q 0.329887,0 0.446316,-0.242565 0.126122,-0.242559 0.126122,-0.57245 0,-0.339587 -0.14554,-0.620959 -0.135839,-0.281376 -0.368698,-0.44632 -0.232859,-0.174657 -0.523936,-0.174657 -0.329887,0 -0.446317,0.242564 -0.106719,0.242561 -0.106719,0.57245 0,0.329884 0.135838,0.611258 0.13584,0.281375 0.358994,0.456022 0.232862,0.174659 0.523936,0.174659 z"
         id="path823-47-1"
         style="font-size:10.5833px;line-height:1.25;letter-spacing:0px;word-spacing:0px;stroke-width:0.242566" />
      <path
         d="m 43.7636,45.782525 q 0,-0.358994 0.261969,-0.630665 0.261967,-0.271672 0.708283,-0.426911 0.45602,-0.155239 0.999364,-0.155239 0.553042,0 1.018767,0.155239 0.46572,0.145539 0.747092,0.417208 0.281376,0.271673 0.281376,0.640368 0,0.3784 -0.271671,0.659772 -0.271671,0.271671 -0.727689,0.426913 -0.446319,0.145539 -0.98966,0.145539 -0.543343,0 -1.009064,-0.145539 Q 44.326348,46.723671 44.044973,46.452001 43.7636,46.170627 43.7636,45.782525 Z m 2.231583,1.038172 q 0.329887,0 0.446316,-0.242565 0.126122,-0.242559 0.126122,-0.57245 0,-0.339587 -0.14554,-0.620959 -0.135839,-0.281376 -0.368698,-0.44632 -0.232859,-0.174657 -0.523936,-0.174657 -0.329887,0 -0.446317,0.242564 -0.106719,0.242561 -0.106719,0.57245 0,0.329884 0.135838,0.611258 0.13584,0.281375 0.358994,0.456022 0.232862,0.174659 0.523936,0.174659 z"
         id="path823-47-1-1"
         style="font-size:10.5833px;line-height:1.25;letter-spacing:0px;word-spacing:0px;stroke-width:0.242566" />
      <path
         d="m 43.7636,48.163775 q 0,-0.358994 0.261969,-0.630665 0.261967,-0.271672 0.708283,-0.426911 0.45602,-0.155239 0.999364,-0.155239 0.553042,0 1.018767,0.155239 0.46572,0.145539 0.747092,0.417208 0.281376,0.271673 0.281376,0.640368 0,0.3784 -0.271671,0.659772 -0.271671,0.271671 -0.727689,0.426913 -0.446319,0.145539 -0.98966,0.145539 -0.543343,0 -1.009064,-0.145539 Q 44.326348,49.104921 44.044973,48.833251 43.7636,48.551877 43.7636,48.163775 Z m 2.231583,1.038172 q 0.329887,0 0.446316,-0.242565 0.126122,-0.242559 0.126122,-0.57245 0,-0.339587 -0.14554,-0.620959 -0.135839,-0.281376 -0.368698,-0.44632 -0.232859,-0.174657 -0.523936,-0.174657 -0.329887,0 -0.446317,0.242564 -0.106719,0.242561 -0.106719,0.57245 0,0.329884 0.135838,0.611258 0.13584,0.281375 0.358994,0.456022 0.232862,0.174659 0.523936,0.174659 z"
         id="path823-47-1-5"
         style="font-size:10.5833px;line-height:1.25;letter-spacing:0px;word-spacing:0px;stroke-width:0.242566" />
      <rect
         style="opacity:0.2197056;stroke-width:0.245342;stroke-linejoin:round;stroke-dasharray:0.981369, 0.245342"
         id="rect1224"
         width="6.3500037"
         height="0.52916658"
         x="42.555595"
         y="43.116531" />
      <rect
         style="opacity:0.2197056;stroke-width:0.245342;stroke-linejoin:round;stroke-dasharray:0.981369, 0.245342"
         id="rect1226"
         width="6.3499985"
         height="0.52916664"
         x="42.555595"
         y="45.49778" />
      <rect
         style="font-size:10.5833px;line-height:1.25;letter-spacing:0px;word-spacing:0px;opacity:0.2197056;stroke-width:0.245342;stroke-linejoin:round;stroke-dasharray:0.981369, 0.245342"
         id="rect1226-5"
         width="6.3499985"
         height="0.52916664"
         x="42.555595"
         y="47.879032" />
      <g
         aria-label="â™¯"
         id="text12349"
         style="font-size:6.85401px;line-height:1.25;letter-spacing:0px;word-spacing:0px;stroke-width:0.0453365"
         transform="matrix(0.80636349,0,0,0.80636349,8.0525565,8.4688095)">
        <path
           d="m 43.126502,40.982426 h 0.153947 l 0.01673,0.01673 v 1.017392 l 0.398255,-0.200801 0.01004,0.0067 v 0.471882 q -0.01004,0.02343 -0.408295,0.224228 v 1.248313 l 0.408299,-0.18407 v 0.451802 q -0.0033,0.01339 -0.408295,0.237615 v 0.993965 l -0.01673,0.01339 h -0.153947 l -0.01673,-0.01339 v -0.913645 l -0.963845,0.468536 v 1.157953 l -0.01673,0.01339 H 41.98864 l -0.01673,-0.01339 V 44.90474 l -0.431723,0.200801 v -0.475229 q 0,-0.02008 0.431723,-0.220881 v -1.268394 h -0.0067 l -0.425029,0.187415 v -0.46519 l 0.431723,-0.217534 v -0.960499 l 0.01673,-0.01339 h 0.140561 l 0.01673,0.01339 v 0.876832 l 0.963845,-0.448456 v -1.114446 z m -0.980579,2.084984 v 1.2617 l 0.963845,-0.465189 v -1.244967 z"
           id="path13039" />
      </g>
    </g>
  </g>
</svg>
