<?xml version="1.0" encoding="UTF-8" standalone="no"?>
<!-- Created with Inkscape (http://www.inkscape.org/) -->

<svg
   width="64"
   height="64"
   viewBox="0 0 16.933333 16.933333"
   version="1.1"
   id="svg5"
   inkscape:version="1.1.1 (3bf5ae0d25, 2021-09-20)"
   sodipodi:docname="drawing-symbolic.svg"
   xmlns:inkscape="http://www.inkscape.org/namespaces/inkscape"
   xmlns:sodipodi="http://sodipodi.sourceforge.net/DTD/sodipodi-0.dtd"
   xmlns="http://www.w3.org/2000/svg"
   xmlns:svg="http://www.w3.org/2000/svg">
  <sodipodi:namedview
     id="namedview7"
     pagecolor="#ffffff"
     bordercolor="#ff6600"
     borderopacity="1.0"
     inkscape:pageshadow="2"
     inkscape:pageopacity="0.0"
     inkscape:pagecheckerboard="0"
     inkscape:document-units="mm"
     showgrid="true"
     inkscape:zoom="6.6601827"
     inkscape:cx="22.371759"
     inkscape:cy="34.533587"
     inkscape:window-width="1920"
     inkscape:window-height="1020"
     inkscape:window-x="0"
     inkscape:window-y="32"
     inkscape:window-maximized="1"
     inkscape:current-layer="text2168"
     fit-margin-top="0"
     fit-margin-left="0"
     fit-margin-right="0"
     fit-margin-bottom="0"
     inkscape:snap-to-guides="true"
     inkscape:snap-grids="true"
     units="px"
     width="32px"
     scale-x="0.5">
    <inkscape:grid
       type="xygrid"
       id="grid1371"
       originx="-40.968097"
       originy="-41.529031" />
  </sodipodi:namedview>
  <defs
     id="defs2" />
  <g
     inkscape:label="Layer 1"
     inkscape:groupmode="layer"
     id="layer1"
     transform="translate(-40.968096,-41.529032)">
    <g
       aria-label="ð…ð„ž"
       id="text2168"
       style="font-size:10.5833px;line-height:1.25;letter-spacing:0px;word-spacing:0px;stroke-width:0.264583">
      <path
         d="m 51.334713,54.586696 q 0,-0.381659 0.278509,-0.670485 0.278508,-0.288822 0.753003,-0.453867 0.484813,-0.165041 1.062461,-0.165041 0.587962,0 1.083091,0.165041 0.495125,0.154729 0.794263,0.443552 0.299141,0.288824 0.299141,0.6808 0,0.40229 -0.288824,0.701428 -0.288824,0.288826 -0.773635,0.453867 -0.474497,0.154728 -1.052145,0.154728 -0.577648,0 -1.072775,-0.154728 -0.48481,-0.154729 -0.783951,-0.443551 -0.299138,-0.299138 -0.299138,-0.711744 z m 2.37248,1.10372 q 0.350717,0 0.474498,-0.257878 0.134083,-0.25788 0.134083,-0.608594 0,-0.361029 -0.154728,-0.66017 -0.144416,-0.299138 -0.391978,-0.474496 -0.247561,-0.185686 -0.557016,-0.185686 -0.350715,0 -0.474496,0.257878 -0.113458,0.257879 -0.113458,0.608594 0,0.350713 0.144415,0.649853 0.144416,0.299139 0.381659,0.484811 0.247564,0.185686 0.557017,0.185686 z"
         id="path823"
         style="stroke-width:0.25788" />
      <path
         d="m 51.334713,52.007903 q 0,-0.381661 0.278509,-0.670485 0.278508,-0.288824 0.753003,-0.453867 0.484813,-0.165041 1.062461,-0.165041 0.587962,0 1.083091,0.165041 0.495125,0.154729 0.794263,0.44355 0.299141,0.288826 0.299141,0.680802 0,0.40229 -0.288824,0.701428 -0.288824,0.288826 -0.773635,0.453867 -0.474497,0.154728 -1.052145,0.154728 -0.577648,0 -1.072775,-0.154728 -0.48481,-0.154729 -0.783951,-0.443551 -0.299138,-0.29914 -0.299138,-0.711744 z m 2.37248,1.10372 q 0.350717,0 0.474498,-0.257878 0.134083,-0.25788 0.134083,-0.608593 0,-0.36103 -0.154728,-0.660171 -0.144416,-0.299138 -0.391978,-0.474496 -0.247561,-0.185686 -0.557016,-0.185686 -0.350715,0 -0.474496,0.257876 -0.113458,0.257881 -0.113458,0.608596 0,0.350713 0.144415,0.649853 0.144416,0.299139 0.381659,0.484811 0.247564,0.185686 0.557017,0.185686 z"
         id="path823-4"
         style="font-size:10.5833px;line-height:1.25;letter-spacing:0px;word-spacing:0px;stroke-width:0.25788" />
      <path
         d="m 51.346358,49.41833 q 0,-0.381659 0.278509,-0.670482 0.27851,-0.288826 0.753005,-0.453867 0.484811,-0.165041 1.062459,-0.165041 0.587962,0 1.083091,0.165041 0.495125,0.154728 0.794267,0.44355 0.299137,0.288826 0.299137,0.680799 0,0.402292 -0.288824,0.701431 -0.288824,0.288823 -0.773635,0.453866 -0.474495,0.154729 -1.052145,0.154729 -0.577648,0 -1.072773,-0.154729 -0.484812,-0.154728 -0.783951,-0.44355 -0.29914,-0.29914 -0.29914,-0.711747 z m 2.372484,1.103721 q 0.350713,0 0.474496,-0.257879 0.134083,-0.257878 0.134083,-0.608593 0,-0.361032 -0.154728,-0.660168 -0.144416,-0.29914 -0.391976,-0.474498 -0.247563,-0.185686 -0.557016,-0.185686 -0.350715,0 -0.474498,0.257878 -0.113458,0.25788 -0.113458,0.608595 0,0.350714 0.144415,0.649852 0.144416,0.29914 0.381659,0.484812 0.247566,0.185687 0.557023,0.185687 z"
         id="path823-4-3"
         style="font-size:10.5833px;line-height:1.25;letter-spacing:0px;word-spacing:0px;stroke-width:0.25788" />
      <path
         d="m 51.334713,57.165487 q 0,-0.381659 0.278509,-0.670483 0.278508,-0.288824 0.753003,-0.453865 0.484813,-0.165041 1.062461,-0.165041 0.587962,0 1.083091,0.165041 0.495125,0.154728 0.794263,0.44355 0.299141,0.288826 0.299141,0.680798 0,0.402292 -0.288824,0.70143 -0.288824,0.288824 -0.773635,0.453867 -0.474497,0.154728 -1.052145,0.154728 -0.577648,0 -1.072775,-0.154728 -0.48481,-0.154729 -0.783951,-0.443551 -0.299138,-0.29914 -0.299138,-0.711746 z m 2.37248,1.10372 q 0.350717,0 0.474498,-0.257878 0.134083,-0.257876 0.134083,-0.608594 0,-0.361029 -0.154728,-0.660166 -0.144416,-0.299142 -0.391978,-0.474498 -0.247561,-0.185686 -0.557016,-0.185686 -0.350715,0 -0.474496,0.257878 -0.113458,0.257877 -0.113458,0.608594 0,0.350713 0.144415,0.649853 0.144416,0.299139 0.381659,0.484813 0.247564,0.185686 0.557017,0.185686 z"
         id="path823-47"
         style="font-size:10.5833px;line-height:1.25;letter-spacing:0px;word-spacing:0px;stroke-width:0.25788" />
      <path
         d="m 43.558277,46.758409 q -0.137355,-0.519993 -0.225658,-1.030178 -0.0883,-0.510183 -0.0883,-1.039988 0,-0.461127 0.05886,-0.863387 0.06868,-0.41207 0.186404,-0.755463 0.127541,-0.392448 0.333581,-0.735843 0.206036,-0.353202 0.431694,-0.57886 0.23547,-0.225658 0.41207,-0.225658 0.23547,0 0.647542,0.833952 0.206034,0.421884 0.304147,0.912443 0.09812,0.490561 0.09812,1.049802 0,0.696595 -0.186405,1.393192 -0.186404,0.686785 -0.549428,1.29508 -0.353203,0.608296 -0.853576,1.069423 l 0.343393,1.648284 q 0.147168,-0.01955 0.245281,-0.02944 0.09812,-0.0098 0.147169,-0.0098 0.598482,0 1.069421,0.343395 0.470938,0.333581 0.745653,0.883009 0.284525,0.549427 0.284525,1.206779 0,0.755462 -0.392448,1.363758 -0.382638,0.598484 -1.157724,0.88301 0.04905,0.166796 0.284525,1.393192 0.05886,0.294337 0.0883,0.461128 0.02944,0.17661 0.03924,0.304147 0.0098,0.12754 0.0098,0.294337 0,0.490561 -0.24528,0.873197 -0.23547,0.392448 -0.647542,0.608296 -0.402258,0.215846 -0.902631,0.215846 -0.510183,0 -0.902631,-0.196218 -0.392448,-0.186404 -0.618106,-0.529805 -0.22566,-0.333582 -0.22566,-0.775086 0,-0.470938 0.255094,-0.784898 0.264901,-0.313959 0.74565,-0.313959 0.412072,0 0.667164,0.294337 0.264903,0.304149 0.264903,0.716219 0,0.353204 -0.245281,0.618106 -0.24528,0.264903 -0.637728,0.264903 h -0.09812 q 0.255091,0.382638 0.80452,0.382638 0.676973,0 1.059612,-0.441505 0.382636,-0.441504 0.382636,-1.128289 0,-0.166797 -0.03924,-0.451318 -0.03923,-0.274713 -0.137354,-0.667161 -0.09812,-0.392449 -0.156983,-0.64754 -0.04905,-0.255092 -0.06868,-0.363015 -0.333581,0.09812 -0.784897,0.09812 -0.843765,0 -1.648285,-0.490561 -0.784897,-0.490559 -1.236212,-1.295079 -0.451316,-0.80452 -0.451316,-1.736585 0,-0.88301 0.40226,-1.658096 0.40226,-0.775086 0.990932,-1.422626 0.598485,-0.64754 1.196969,-1.236214 z m 0.264903,-0.24528 q 0.225658,-0.117726 0.480749,-0.431693 0.255092,-0.323771 0.490562,-0.735841 0.235469,-0.412072 0.382636,-0.824142 0.147168,-0.421884 0.147168,-0.755465 0,-0.353202 -0.107913,-0.559238 -0.107913,-0.206036 -0.372826,-0.206036 -0.23547,0 -0.461127,0.215846 -0.215846,0.215847 -0.392449,0.578862 -0.166796,0.353204 -0.264903,0.794708 -0.09812,0.441506 -0.09812,0.902633 0,0.313957 0.05886,0.569051 0.06868,0.255091 0.137355,0.451315 z m 0.559239,4.385614 q -0.264902,0.05886 -0.500372,0.255091 -0.235469,0.186404 -0.382638,0.461128 -0.137354,0.264901 -0.137354,0.569048 0,0.245282 0.12754,0.510185 0.127541,0.255092 0.313959,0.41207 0.127541,0.117727 0.255092,0.17661 0.147168,0.06868 0.147168,0.127541 0,0.02944 -0.09812,0.05886 -0.372826,-0.08831 -0.676973,-0.333583 -0.294337,-0.24528 -0.470938,-0.588672 -0.166796,-0.353205 -0.166796,-0.745653 0,-0.421882 0.166796,-0.81433 0.176611,-0.392448 0.480748,-0.706407 0.313961,-0.313959 0.706409,-0.470938 L 43.862425,48.3282 q -1.138101,0.922255 -1.677718,1.815074 -0.529807,0.883009 -0.529807,1.756207 0,0.63773 0.333583,1.187158 0.333581,0.549429 0.912443,0.89282 0.57886,0.333582 1.304891,0.333582 0.196218,0 0.392449,-0.03924 0.206035,-0.03924 0.431693,-0.09812 z m 0.951688,3.178833 q 0.961499,-0.412072 0.961499,-1.68753 0,-0.421882 -0.215846,-0.765274 -0.215848,-0.353205 -0.578862,-0.559239 -0.363015,-0.206036 -0.81433,-0.206036 z"
         id="path825"
         style="opacity:0.672998;fill:#000000;fill-opacity:1;stroke-width:0.245282" />
      <rect
         style="opacity:0.591656;stroke-width:0.528592;stroke-miterlimit:4;stroke-dasharray:none"
         id="rect1527"
         width="16.888412"
         height="0.52776289"
         x="41.052528"
         y="51.577579" />
      <rect
         style="font-size:10.5833px;line-height:1.25;letter-spacing:0px;word-spacing:0px;opacity:0.591656;stroke-width:0.528592;stroke-miterlimit:4;stroke-dasharray:none"
         id="rect1527-7"
         width="16.888412"
         height="0.52776289"
         x="41.052528"
         y="54.216389" />
      <rect
         style="font-size:10.5833px;line-height:1.25;letter-spacing:0px;word-spacing:0px;opacity:0.591656;stroke-width:0.528592;stroke-miterlimit:4;stroke-dasharray:none"
         id="rect1527-8"
         width="16.888412"
         height="0.52776289"
         x="41.052528"
         y="48.938763" />
      <rect
         style="font-size:10.5833px;line-height:1.25;letter-spacing:0px;word-spacing:0px;opacity:0.591656;stroke-width:0.528592;stroke-miterlimit:4;stroke-dasharray:none"
         id="rect1527-5"
         width="16.888412"
         height="0.52776289"
         x="41.052528"
         y="46.299946" />
      <rect
         style="font-size:10.5833px;line-height:1.25;letter-spacing:0px;word-spacing:0px;opacity:0.591656;stroke-width:0.528592;stroke-miterlimit:4;stroke-dasharray:none"
         id="rect1527-74"
         width="16.888412"
         height="0.52776289"
         x="41.052528"
         y="43.661137" />
      <rect
         style="font-size:10.5833px;line-height:1.25;letter-spacing:0px;word-spacing:0px;opacity:0.591656;stroke-width:0.336914;stroke-miterlimit:4;stroke-dasharray:none"
         id="rect1527-1"
         width="6.8609171"
         height="0.52776289"
         x="50.024498"
         y="56.855206" />
    </g>
  </g>
</svg>
