<?xml version="1.0" encoding="UTF-8" standalone="no"?>
<!-- Created with Inkscape (http://www.inkscape.org/) -->

<svg
   width="32"
   height="32"
   viewBox="0 0 8.4666665 8.4666665"
   version="1.1"
   id="svg5"
   inkscape:version="1.1.1 (3bf5ae0d25, 2021-09-20)"
   sodipodi:docname="midi-mode-linear-symbolic.svg"
   xmlns:inkscape="http://www.inkscape.org/namespaces/inkscape"
   xmlns:sodipodi="http://sodipodi.sourceforge.net/DTD/sodipodi-0.dtd"
   xmlns="http://www.w3.org/2000/svg"
   xmlns:svg="http://www.w3.org/2000/svg">
  <sodipodi:namedview
     id="namedview7"
     pagecolor="#ffffff"
     bordercolor="#ff6600"
     borderopacity="1.0"
     inkscape:pageshadow="2"
     inkscape:pageopacity="0.0"
     inkscape:pagecheckerboard="0"
     inkscape:document-units="px"
     showgrid="true"
     inkscape:zoom="20.413122"
     inkscape:cx="29.931727"
     inkscape:cy="13.961608"
     inkscape:window-width="1920"
     inkscape:window-height="1020"
     inkscape:window-x="0"
     inkscape:window-y="32"
     inkscape:window-maximized="1"
     inkscape:current-layer="text2168"
     fit-margin-top="0"
     fit-margin-left="0"
     fit-margin-right="0"
     fit-margin-bottom="0"
     inkscape:snap-to-guides="true"
     inkscape:snap-grids="true"
     units="px"
     width="32px"
     scale-x="0.5">
    <inkscape:grid
       type="xygrid"
       id="grid1371"
       originx="0"
       originy="0" />
  </sodipodi:namedview>
  <defs
     id="defs2" />
  <g
     inkscape:label="Layer 1"
     inkscape:groupmode="layer"
     id="layer1"
     transform="translate(-40.968096,-41.529032)">
    <g
       aria-label="ð…ð„ž"
       id="text2168"
       style="font-size:10.5833px;line-height:1.25;letter-spacing:0px;word-spacing:0px;stroke-width:0.264583">
      <g
         aria-label="ð†±"
         id="text34664"
         style="font-size:8.40901px;stroke-width:0.0556222">
        <path
           d="m 42.660547,48.734979 q -0.0925,0 -0.210225,-0.01682 -0.109317,-0.02523 -0.184999,-0.05045 V 48.55839 q 0.26068,-0.04205 0.437269,-0.142954 0.184998,-0.100908 0.184998,-0.285906 0,-0.06727 -0.0084,-0.151362 -0.0084,-0.08409 -0.02523,-0.159771 -0.04205,-0.184999 -0.04205,-0.34477 0,-0.201816 0.151362,-0.319542 0.151362,-0.126135 0.412042,-0.126135 0.07568,0 0.16818,0 0.100908,0 0.142953,0.0084 0.05045,0.0084 0.100908,0.0084 0.05045,0 0.109317,0 h 0.06727 q 0.117727,0 0.210226,-0.05886 0.100908,-0.05886 0.100908,-0.210226 0,-0.184998 -0.03364,-0.327951 -0.04205,-0.193407 -0.04205,-0.361587 0,-0.168181 0.126135,-0.302725 0.126135,-0.134544 0.462495,-0.134544 h 0.529768 q 0.03364,0 0.109317,-0.0084 0.08409,-0.01682 0.159771,-0.06727 0.07568,-0.05886 0.07568,-0.184998 0,-0.117726 -0.0084,-0.210225 -0.0084,-0.100909 -0.02523,-0.17659 -0.0084,-0.05886 -0.02523,-0.151362 -0.0084,-0.0925 -0.0084,-0.159771 0,-0.193407 0.126136,-0.302724 0.134544,-0.117727 0.33636,-0.117727 h 0.353178 q 0.647494,0 0.647494,-0.285906 0,-0.159771 -0.03364,-0.327951 -0.01682,-0.0925 -0.02523,-0.176589 -0.0084,-0.08409 -0.0084,-0.168181 0,-0.462495 0.68113,-0.462495 0.16818,0 0.25227,0.01682 0.08409,0.01682 0.176589,0.05045 v 0.126135 q -0.269088,0 -0.428859,0.117726 -0.159771,0.109317 -0.159771,0.311134 0,0.0925 0,0.184998 0.0084,0.08409 0.01682,0.159771 0.01682,0.0925 0.01682,0.16818 0.0084,0.06727 0.0084,0.151362 0,0.159772 -0.117726,0.277498 -0.117727,0.109317 -0.294316,0.109317 -0.0925,0 -0.193407,0 -0.0925,-0.0084 -0.176589,-0.0084 h -0.327952 q -0.142953,0 -0.235452,0.100908 -0.0925,0.100908 -0.0925,0.243861 0,0.06727 0,0.134544 0.0084,0.06727 0.01682,0.134545 0.02523,0.176589 0.02523,0.395223 0,0.16818 -0.117726,0.285906 -0.117726,0.117726 -0.302724,0.117726 h -0.07568 q -0.07568,0 -0.142953,0 -0.06727,-0.0084 -0.134544,-0.01682 -0.05886,-0.0084 -0.117726,-0.0084 -0.05886,0 -0.100908,0 -0.277497,0 -0.361588,0.109318 -0.07568,0.109317 -0.07568,0.243861 0,0.184998 0.02523,0.33636 0.01682,0.08409 0.01682,0.159771 0,0.07568 0,0.168181 0,0.151362 -0.117726,0.277497 -0.117726,0.126135 -0.428859,0.126135 -0.05886,0 -0.126135,0 -0.05886,-0.0084 -0.117727,-0.01682 -0.05886,-0.0084 -0.109317,-0.0084 -0.05045,0 -0.100908,0 -0.260679,0 -0.353178,0.100908 -0.08409,0.100908 -0.08409,0.243861 0,0.193408 0.02523,0.34477 0.01682,0.08409 0.01682,0.159771 0,0.07568 0,0.16818 0,0.227044 -0.184998,0.327952 -0.17659,0.0925 -0.529768,0.0925 z"
           id="path35692" />
      </g>
      <rect
         style="opacity:0.22;stroke-width:0.247884;stroke-linejoin:round;stroke-dasharray:0.991539, 0.247884"
         id="rect1877"
         width="7.4083362"
         height="0.26458332"
         x="41.497261"
         y="42.058197" />
      <rect
         style="opacity:0.22;stroke-width:0.247884;stroke-linejoin:round;stroke-dasharray:0.991539, 0.247884"
         id="rect1885"
         width="7.4083362"
         height="0.26458332"
         x="41.497261"
         y="49.20195" />
    </g>
  </g>
</svg>
