<?xml version="1.0" encoding="UTF-8" standalone="no"?>
<!-- Created with Inkscape (http://www.inkscape.org/) -->

<svg
   width="32"
   height="32"
   viewBox="0 0 8.4666665 8.4666665"
   version="1.1"
   id="svg5"
   inkscape:version="1.1.1 (3bf5ae0d25, 2021-09-20)"
   sodipodi:docname="midi-mode-classical-symbolic.svg"
   xmlns:inkscape="http://www.inkscape.org/namespaces/inkscape"
   xmlns:sodipodi="http://sodipodi.sourceforge.net/DTD/sodipodi-0.dtd"
   xmlns="http://www.w3.org/2000/svg"
   xmlns:svg="http://www.w3.org/2000/svg">
  <sodipodi:namedview
     id="namedview7"
     pagecolor="#ffffff"
     bordercolor="#ff6600"
     borderopacity="1.0"
     inkscape:pageshadow="2"
     inkscape:pageopacity="0.0"
     inkscape:pagecheckerboard="0"
     inkscape:document-units="px"
     showgrid="true"
     inkscape:zoom="22.463108"
     inkscape:cx="11.530016"
     inkscape:cy="16.515969"
     inkscape:window-width="1920"
     inkscape:window-height="1020"
     inkscape:window-x="0"
     inkscape:window-y="32"
     inkscape:window-maximized="1"
     inkscape:current-layer="text2168"
     fit-margin-top="0"
     fit-margin-left="0"
     fit-margin-right="0"
     fit-margin-bottom="0"
     inkscape:snap-to-guides="false"
     inkscape:snap-grids="false"
     units="px"
     width="32px"
     scale-x="0.5">
    <inkscape:grid
       type="xygrid"
       id="grid1371"
       originx="0"
       originy="0" />
  </sodipodi:namedview>
  <defs
     id="defs2" />
  <g
     inkscape:label="Layer 1"
     inkscape:groupmode="layer"
     id="layer1"
     transform="translate(-40.968096,-41.529032)">
    <g
       aria-label="ð…ð„ž"
       id="text2168"
       style="font-size:10.5833px;line-height:1.25;letter-spacing:0px;word-spacing:0px;stroke-width:0.264583">
      <path
         d="m 44.666486,44.299061 q -0.06669,-0.242019 -0.109558,-0.479472 -0.04287,-0.237453 -0.04287,-0.484038 0,-0.214621 0.02857,-0.401845 0.03335,-0.191787 0.0905,-0.351612 0.06192,-0.182655 0.161954,-0.342481 0.100031,-0.16439 0.209589,-0.269417 0.114321,-0.105027 0.20006,-0.105027 0.114322,0 0.314383,0.388144 0.10003,0.196356 0.147664,0.424675 0.04764,0.22832 0.04764,0.488606 0,0.324214 -0.0905,0.648429 -0.0905,0.319648 -0.266748,0.602764 -0.171481,0.283118 -0.414413,0.497739 l 0.166718,0.767155 q 0.07145,-0.0091 0.119084,-0.0137 0.04764,-0.0046 0.07145,-0.0046 0.290564,0 0.519206,0.159825 0.228641,0.155258 0.362016,0.410976 0.138138,0.255718 0.138138,0.561667 0,0.351613 -0.190535,0.634729 -0.185772,0.278551 -0.562077,0.410977 0.02381,0.07763 0.138137,0.648429 0.02857,0.136992 0.04287,0.214622 0.01429,0.08219 0.01905,0.141558 0.0048,0.05936 0.0048,0.136992 0,0.22832 -0.119084,0.40641 -0.114321,0.182655 -0.314383,0.283117 -0.195297,0.10046 -0.438229,0.10046 -0.247695,0 -0.438229,-0.09132 -0.190534,-0.08676 -0.300092,-0.246585 -0.109558,-0.155259 -0.109558,-0.360746 0,-0.219187 0.123849,-0.365313 0.12861,-0.146125 0.362014,-0.146125 0.200062,0 0.323909,0.136992 0.128611,0.141559 0.128611,0.333348 0,0.164391 -0.119084,0.287683 -0.119084,0.123293 -0.309618,0.123293 h -0.04764 q 0.123846,0.17809 0.390595,0.17809 0.328672,0 0.514444,-0.205488 0.18577,-0.205488 0.18577,-0.525136 0,-0.07763 -0.01905,-0.210056 -0.01904,-0.127858 -0.06668,-0.310515 -0.04764,-0.182655 -0.07622,-0.301381 -0.02381,-0.118727 -0.03334,-0.168958 -0.161954,0.04567 -0.381069,0.04567 -0.409649,0 -0.800245,-0.22832 -0.381069,-0.228319 -0.600183,-0.602764 -0.219115,-0.374445 -0.219115,-0.808253 0,-0.410977 0.195298,-0.771723 0.195298,-0.360745 0.481099,-0.662128 0.290566,-0.301382 0.581131,-0.575367 z m 0.12861,-0.11416 q 0.109558,-0.0548 0.233405,-0.200921 0.123847,-0.150692 0.238168,-0.342481 0.114321,-0.191788 0.185771,-0.383577 0.07145,-0.196356 0.07145,-0.351614 0,-0.164389 -0.05239,-0.260284 -0.05239,-0.09589 -0.181007,-0.09589 -0.114321,0 -0.223878,0.100461 -0.104794,0.100461 -0.190535,0.269417 -0.08098,0.164392 -0.128611,0.369879 -0.04764,0.205489 -0.04764,0.420109 0,0.146124 0.02857,0.264852 0.03334,0.118726 0.06669,0.210054 z m 0.271512,2.041183 q -0.128611,0.02739 -0.242932,0.118726 -0.114321,0.08676 -0.185771,0.214621 -0.06669,0.123292 -0.06669,0.264851 0,0.114161 0.06192,0.237453 0.06192,0.118727 0.152428,0.191789 0.06192,0.0548 0.123848,0.08219 0.07145,0.03196 0.07145,0.05936 0,0.0137 -0.04764,0.02739 -0.181007,-0.0411 -0.328671,-0.155258 -0.142902,-0.11416 -0.228641,-0.273983 -0.08098,-0.164392 -0.08098,-0.347047 0,-0.196356 0.08098,-0.379012 0.08574,-0.182655 0.233403,-0.328781 0.152429,-0.146125 0.342963,-0.219187 L 44.81415,45.02968 q -0.55255,0.429242 -0.814535,0.844784 -0.257223,0.410976 -0.257223,0.817386 0,0.296816 0.161955,0.552535 0.161955,0.255719 0.442993,0.415542 0.281038,0.155258 0.633527,0.155258 0.09526,0 0.190535,-0.01826 0.10003,-0.01826 0.209588,-0.04567 z m 0.462046,1.479514 q 0.466809,-0.191789 0.466809,-0.785422 0,-0.196355 -0.104793,-0.356179 -0.104795,-0.164391 -0.281039,-0.260285 -0.176244,-0.09589 -0.395358,-0.09589 z"
         id="path825"
         style="opacity:1;fill:#000000;fill-opacity:1;stroke-width:0.116597" />
      <rect
         style="opacity:0.22;stroke-width:0.256585;stroke-linejoin:round;stroke-dasharray:1.02634, 0.256585"
         id="rect1877"
         width="7.9375029"
         height="0.26458332"
         x="41.232677"
         y="42.851948" />
      <rect
         style="opacity:0.22;stroke-width:0.256585;stroke-linejoin:round;stroke-dasharray:1.02634, 0.256585"
         id="rect1879"
         width="7.9375029"
         height="0.26458332"
         x="41.232677"
         y="44.174866" />
      <rect
         style="opacity:0.22;stroke-width:0.256585;stroke-linejoin:round;stroke-dasharray:1.02634, 0.256585"
         id="rect1881"
         width="7.9375029"
         height="0.26458332"
         x="41.232677"
         y="45.497784" />
      <rect
         style="opacity:0.22;stroke-width:0.256585;stroke-linejoin:round;stroke-dasharray:1.02634, 0.256585"
         id="rect1883"
         width="7.9375029"
         height="0.26458332"
         x="41.232677"
         y="46.820698" />
      <rect
         style="opacity:0.22;stroke-width:0.256585;stroke-linejoin:round;stroke-dasharray:1.02634, 0.256585"
         id="rect1885"
         width="7.9375029"
         height="0.26458332"
         x="41.232677"
         y="48.143616" />
    </g>
  </g>
</svg>
