<?xml version="1.0" encoding="UTF-8" standalone="no"?>
<!-- Created with Inkscape (http://www.inkscape.org/) -->

<svg
   width="32"
   height="32"
   viewBox="0 0 8.4666665 8.4666665"
   version="1.1"
   id="svg5"
   inkscape:version="1.1.1 (3bf5ae0d25, 2021-09-20)"
   sodipodi:docname="note-length-whole-symbolic.svg"
   xmlns:inkscape="http://www.inkscape.org/namespaces/inkscape"
   xmlns:sodipodi="http://sodipodi.sourceforge.net/DTD/sodipodi-0.dtd"
   xmlns="http://www.w3.org/2000/svg"
   xmlns:svg="http://www.w3.org/2000/svg">
  <sodipodi:namedview
     id="namedview7"
     pagecolor="#ffffff"
     bordercolor="#ff6600"
     borderopacity="1.0"
     inkscape:pageshadow="2"
     inkscape:pageopacity="0.0"
     inkscape:pagecheckerboard="0"
     inkscape:document-units="px"
     showgrid="true"
     inkscape:zoom="16.768851"
     inkscape:cx="7.0666738"
     inkscape:cy="16.33982"
     inkscape:window-width="1920"
     inkscape:window-height="1020"
     inkscape:window-x="0"
     inkscape:window-y="32"
     inkscape:window-maximized="1"
     inkscape:current-layer="text2168"
     fit-margin-top="0"
     fit-margin-left="0"
     fit-margin-right="0"
     fit-margin-bottom="0"
     inkscape:snap-to-guides="true"
     inkscape:snap-grids="true"
     units="px"
     width="32px"
     scale-x="0.5">
    <inkscape:grid
       type="xygrid"
       id="grid1371"
       originx="0"
       originy="0" />
  </sodipodi:namedview>
  <defs
     id="defs2">
    <inkscape:path-effect
       effect="bspline"
       id="path-effect2423"
       is_visible="true"
       lpeversion="1"
       weight="33.333333"
       steps="2"
       helper_size="0"
       apply_no_weight="true"
       apply_with_weight="true"
       only_selected="false" />
  </defs>
  <g
     inkscape:label="Layer 1"
     inkscape:groupmode="layer"
     id="layer1"
     transform="translate(-40.968096,-41.529032)">
    <g
       aria-label="ð…ð„ž"
       id="text2168"
       style="font-size:10.5833px;line-height:1.25;letter-spacing:0px;word-spacing:0px;stroke-width:0.264583">
      <rect
         style="font-size:10.5833px;line-height:1.25;letter-spacing:0px;word-spacing:0px;opacity:0.219706;stroke-width:0.245342;stroke-linejoin:round;stroke-dasharray:0.981369, 0.245342"
         id="rect1226-5"
         width="6.3499985"
         height="0.52916664"
         x="42.026432"
         y="47.879032" />
      <g
         aria-label="ð…"
         id="text4546"
         style="font-size:6.30326px;-inkscape-font-specification:'sans-serif, Normal';stroke-width:0.0416935">
        <path
           d="m 44.092224,48.16459 q 0,-0.233221 0.170188,-0.409712 0.170188,-0.176492 0.460138,-0.277344 0.296254,-0.100852 0.649236,-0.100852 0.359286,0 0.661842,0.100852 0.302557,0.09455 0.485351,0.27104 0.182795,0.176492 0.182795,0.416016 0,0.245827 -0.176491,0.428621 -0.176492,0.176491 -0.472745,0.277344 -0.28995,0.09455 -0.642932,0.09455 -0.352983,0 -0.655539,-0.09455 -0.296253,-0.09455 -0.479048,-0.271041 -0.182795,-0.182794 -0.182795,-0.434924 z m 1.44975,0.674448 q 0.214311,0 0.28995,-0.157581 0.08194,-0.157582 0.08194,-0.371892 0,-0.220615 -0.09455,-0.403409 -0.08825,-0.182795 -0.239524,-0.28995 -0.151278,-0.113459 -0.340376,-0.113459 -0.214311,0 -0.28995,0.157582 -0.06934,0.157581 -0.06934,0.371892 0,0.214311 0.08825,0.397105 0.08825,0.182795 0.23322,0.296254 0.151278,0.113458 0.340376,0.113458 z"
           id="path33082" />
      </g>
    </g>
  </g>
</svg>
