<?xml version="1.0" encoding="UTF-8" standalone="no"?>
<!-- Created with Inkscape (http://www.inkscape.org/) -->

<svg
   width="32"
   height="32"
   viewBox="0 0 8.4666665 8.4666665"
   version="1.1"
   id="svg5"
   inkscape:version="1.1.1 (3bf5ae0d25, 2021-09-20)"
   sodipodi:docname="note-length-triplet-symbolic.svg"
   xmlns:inkscape="http://www.inkscape.org/namespaces/inkscape"
   xmlns:sodipodi="http://sodipodi.sourceforge.net/DTD/sodipodi-0.dtd"
   xmlns="http://www.w3.org/2000/svg"
   xmlns:svg="http://www.w3.org/2000/svg">
  <sodipodi:namedview
     id="namedview7"
     pagecolor="#ffffff"
     bordercolor="#ff6600"
     borderopacity="1.0"
     inkscape:pageshadow="2"
     inkscape:pageopacity="0.0"
     inkscape:pagecheckerboard="0"
     inkscape:document-units="px"
     showgrid="true"
     inkscape:zoom="23.449632"
     inkscape:cx="24.883119"
     inkscape:cy="18.337174"
     inkscape:window-width="1920"
     inkscape:window-height="1020"
     inkscape:window-x="0"
     inkscape:window-y="32"
     inkscape:window-maximized="1"
     inkscape:current-layer="text2168"
     fit-margin-top="0"
     fit-margin-left="0"
     fit-margin-right="0"
     fit-margin-bottom="0"
     inkscape:snap-to-guides="false"
     inkscape:snap-grids="false"
     units="px"
     width="32px"
     scale-x="0.5">
    <inkscape:grid
       type="xygrid"
       id="grid1371"
       originx="0"
       originy="0" />
  </sodipodi:namedview>
  <defs
     id="defs2">
    <inkscape:path-effect
       effect="bspline"
       id="path-effect2423"
       is_visible="true"
       lpeversion="1"
       weight="33.333333"
       steps="2"
       helper_size="0"
       apply_no_weight="true"
       apply_with_weight="true"
       only_selected="false" />
  </defs>
  <g
     inkscape:label="Layer 1"
     inkscape:groupmode="layer"
     id="layer1"
     transform="translate(-40.968096,-41.529032)">
    <g
       aria-label="ð…ð„ž"
       id="text2168"
       style="font-size:10.5833px;line-height:1.25;letter-spacing:0px;word-spacing:0px;stroke-width:0.264583">
      <rect
         style="font-size:10.5833px;line-height:1.25;letter-spacing:0px;word-spacing:0px;opacity:0.219706;stroke-width:0.245342;stroke-linejoin:round;stroke-dasharray:0.981369, 0.245342"
         id="rect1226-5"
         width="6.3499985"
         height="0.52916664"
         x="42.026432"
         y="47.879032" />
      <g
         aria-label="ð…˜ð…¥ð…˜ð…¥ð…˜ð…¥"
         id="text4546"
         style="font-size:6.30326px;-inkscape-font-specification:'sans-serif, Normal';stroke-width:0.0416935">
        <path
           d="m 42.704192,48.886835 q -0.258676,0 -0.425737,-0.118559 -0.161671,-0.123948 -0.161671,-0.371845 0,-0.274843 0.150893,-0.490406 0.156283,-0.220951 0.40418,-0.3449 0.247897,-0.129338 0.528129,-0.129338 0.237119,0 0.377235,0.129338 0.140116,0.123949 0.140116,0.355678 0,0.264064 -0.140116,0.485016 -0.140116,0.220952 -0.371846,0.355679 -0.226341,0.129337 -0.501183,0.129337 z"
           id="path52317"
           style="stroke-width:0.0356465" />
        <path
           d="m 43.723638,47.7496 h -0.176491 l 0.01116,-3.902881 h 0.176491 z"
           id="path52314"
           sodipodi:nodetypes="ccccc" />
      </g>
      <g
         aria-label="ð…˜ð…¥ð…˜ð…¥ð…˜ð…¥"
         id="text4546-4"
         style="font-size:6.30326px;line-height:1.25;-inkscape-font-specification:'sans-serif, Normal';letter-spacing:0px;word-spacing:0px;stroke-width:0.0416935"
         transform="translate(5.005436,-0.012735)">
        <path
           d="m 42.704192,48.886835 q -0.258676,0 -0.425737,-0.118559 -0.161671,-0.123948 -0.161671,-0.371845 0,-0.274843 0.150893,-0.490406 0.156283,-0.220951 0.40418,-0.3449 0.247897,-0.129338 0.528129,-0.129338 0.237119,0 0.377235,0.129338 0.140116,0.123949 0.140116,0.355678 0,0.264064 -0.140116,0.485016 -0.140116,0.220952 -0.371846,0.355679 -0.226341,0.129337 -0.501183,0.129337 z"
           id="path52317-8"
           style="stroke-width:0.0356465" />
        <path
           d="m 43.723638,47.7496 h -0.176491 l 0.01116,-3.902881 h 0.176491 z"
           id="path52314-8"
           sodipodi:nodetypes="ccccc" />
      </g>
      <g
         aria-label="ð…˜ð…¥ð…˜ð…¥ð…˜ð…¥"
         id="text4546-8"
         style="font-size:6.30326px;line-height:1.25;-inkscape-font-specification:'sans-serif, Normal';letter-spacing:0px;word-spacing:0px;stroke-width:0.0416935"
         transform="translate(2.5947218,-0.01408914)">
        <path
           d="m 42.704192,48.886835 q -0.258676,0 -0.425737,-0.118559 -0.161671,-0.123948 -0.161671,-0.371845 0,-0.274843 0.150893,-0.490406 0.156283,-0.220951 0.40418,-0.3449 0.247897,-0.129338 0.528129,-0.129338 0.237119,0 0.377235,0.129338 0.140116,0.123949 0.140116,0.355678 0,0.264064 -0.140116,0.485016 -0.140116,0.220952 -0.371846,0.355679 -0.226341,0.129337 -0.501183,0.129337 z"
           id="path52317-9"
           style="stroke-width:0.0356465" />
        <path
           d="m 43.723638,47.7496 h -0.176491 l 0.01116,-3.902881 h 0.176491 z"
           id="path52314-7"
           sodipodi:nodetypes="ccccc" />
      </g>
      <path
         style="color:#000000;-inkscape-stroke:none"
         d="m 43.558594,43.833984 v 0.582032 h 5.18164 v -0.582032 z"
         id="path44473" />
      <g
         aria-label="3"
         id="text49637"
         style="font-style:italic;font-size:3.18609px;font-family:'Linux Libertine';-inkscape-font-specification:'Linux Libertine, Italic';stroke-width:0.0210747">
        <path
           d="m 46.229958,41.719481 q -0.05445,0 -0.116678,0.01711 -0.06223,0.01556 -0.133791,0.07467 -0.07156,0.05912 -0.08712,0.150903 -0.03578,0.164905 -0.150903,0.166461 -0.05134,0 -0.07156,-0.03578 -0.02022,-0.03578 -0.01089,-0.07312 0.02178,-0.121346 0.192908,-0.266027 0.171128,-0.14468 0.463601,-0.14468 0.213132,0 0.309586,0.124456 0.07623,0.102677 0.04667,0.250469 -0.02489,0.133791 -0.116678,0.234912 -0.09023,0.09957 -0.287806,0.189797 l 0.0031,0.0062 q 0.164905,0.028 0.270693,0.149348 0.105789,0.121346 0.06067,0.353146 -0.06067,0.303363 -0.29714,0.485381 -0.234912,0.180462 -0.518051,0.180462 -0.152459,0 -0.28625,-0.06067 -0.133791,-0.06223 -0.115123,-0.152459 0.0062,-0.03889 0.05601,-0.07467 0.04978,-0.03578 0.09645,-0.03578 0.07312,0 0.115122,0.08245 0.0031,0.0062 0.0093,0.02178 0.0062,0.01556 0.0093,0.02334 0.0031,0.0062 0.01244,0.02022 0.01089,0.014 0.01867,0.02022 0.0078,0.0062 0.02178,0.01867 0.014,0.01089 0.02956,0.01556 0.01711,0.0047 0.04045,0.0078 0.02489,0.0031 0.05289,0.0031 0.05134,0 0.112011,-0.02178 0.06067,-0.02334 0.135346,-0.07156 0.07467,-0.04978 0.138458,-0.158682 0.06378,-0.108899 0.09179,-0.258247 0.07934,-0.410707 -0.322031,-0.410707 -0.09179,0 -0.146237,0.0062 l 0.0031,-0.102677 q 0.216244,-0.03111 0.379593,-0.172684 0.164905,-0.141569 0.191352,-0.27536 0.028,-0.143125 -0.03267,-0.214688 -0.05912,-0.07312 -0.168016,-0.07312 z"
           id="path51850" />
      </g>
    </g>
  </g>
</svg>
