<?xml version="1.0" encoding="UTF-8" standalone="no"?>
<!-- Created with Inkscape (http://www.inkscape.org/) -->

<svg
   width="32"
   height="32"
   viewBox="0 0 8.4666665 8.4666665"
   version="1.1"
   id="svg5"
   inkscape:version="1.1.1 (3bf5ae0d25, 2021-09-20)"
   sodipodi:docname="note-length-sixteenth-symbolic.svg"
   xmlns:inkscape="http://www.inkscape.org/namespaces/inkscape"
   xmlns:sodipodi="http://sodipodi.sourceforge.net/DTD/sodipodi-0.dtd"
   xmlns="http://www.w3.org/2000/svg"
   xmlns:svg="http://www.w3.org/2000/svg">
  <sodipodi:namedview
     id="namedview7"
     pagecolor="#ffffff"
     bordercolor="#ff6600"
     borderopacity="1.0"
     inkscape:pageshadow="2"
     inkscape:pageopacity="0.0"
     inkscape:pagecheckerboard="0"
     inkscape:document-units="px"
     showgrid="true"
     inkscape:zoom="16.768851"
     inkscape:cx="7.0666738"
     inkscape:cy="16.33982"
     inkscape:window-width="1920"
     inkscape:window-height="1020"
     inkscape:window-x="0"
     inkscape:window-y="32"
     inkscape:window-maximized="1"
     inkscape:current-layer="text2168"
     fit-margin-top="0"
     fit-margin-left="0"
     fit-margin-right="0"
     fit-margin-bottom="0"
     inkscape:snap-to-guides="true"
     inkscape:snap-grids="true"
     units="px"
     width="32px"
     scale-x="0.5">
    <inkscape:grid
       type="xygrid"
       id="grid1371"
       originx="0"
       originy="0" />
  </sodipodi:namedview>
  <defs
     id="defs2">
    <inkscape:path-effect
       effect="bspline"
       id="path-effect2423"
       is_visible="true"
       lpeversion="1"
       weight="33.333333"
       steps="2"
       helper_size="0"
       apply_no_weight="true"
       apply_with_weight="true"
       only_selected="false" />
  </defs>
  <g
     inkscape:label="Layer 1"
     inkscape:groupmode="layer"
     id="layer1"
     transform="translate(-40.968096,-41.529032)">
    <g
       aria-label="ð…ð„ž"
       id="text2168"
       style="font-size:10.5833px;line-height:1.25;letter-spacing:0px;word-spacing:0px;stroke-width:0.264583">
      <rect
         style="font-size:10.5833px;line-height:1.25;letter-spacing:0px;word-spacing:0px;opacity:0.219706;stroke-width:0.245342;stroke-linejoin:round;stroke-dasharray:0.981369, 0.245342"
         id="rect1226-5"
         width="6.3499985"
         height="0.52916664"
         x="42.026432"
         y="47.879032" />
      <g
         aria-label="ð…¡"
         id="text4546"
         style="font-size:6.30326px;stroke-width:0.0416935">
        <path
           d="m 45.800408,42.65554 h 0.163885 q 0.01891,0.182795 0.05673,0.321467 0.03782,0.138671 0.100852,0.245827 0.107156,0.170188 0.258434,0.296253 0.151278,0.119762 0.346679,0.315163 0.189098,0.182795 0.371892,0.409712 0.182795,0.220614 0.302557,0.504261 0.126065,0.283646 0.126065,0.636629 0,0.283647 -0.08825,0.617719 0.163885,0.239524 0.163885,0.693359 0,0.302556 -0.08194,0.605113 -0.08194,0.296253 -0.239524,0.510564 h -0.100852 q 0.296253,-0.5799 0.296253,-1.008522 0,-0.346679 -0.195401,-0.636629 -0.126065,-0.189098 -0.283647,-0.334073 -0.151278,-0.151278 -0.390802,-0.308859 -0.239524,-0.157582 -0.642932,-0.359286 v 2.773434 q 0,0.27104 -0.182795,0.504261 -0.176491,0.226917 -0.460138,0.365589 -0.283647,0.138672 -0.586203,0.138672 -0.264737,0 -0.453835,-0.119762 -0.189098,-0.119762 -0.189098,-0.371892 0,-0.302557 0.182795,-0.548384 0.182795,-0.245827 0.472744,-0.390802 0.28995,-0.151278 0.59881,-0.151278 0.283647,0 0.453835,0.151278 z m 0.201704,1.172407 q 0,0.327769 0.144975,0.605113 0.05043,0.08825 0.201704,0.283646 0.157582,0.195401 0.371893,0.397106 0.239524,0.226917 0.422318,0.434925 0.182795,0.208007 0.214311,0.283646 0.01261,-0.05043 0.01891,-0.113458 0.0063,-0.06934 0.0063,-0.151279 0,-0.479047 -0.30886,-0.901366 -0.308859,-0.422318 -1.071554,-0.838333 z"
           id="path22773" />
      </g>
    </g>
  </g>
</svg>
