<?xml version="1.0" encoding="UTF-8" standalone="no"?>
<!-- Created with Inkscape (http://www.inkscape.org/) -->

<svg
   width="32"
   height="32"
   viewBox="0 0 8.4666665 8.4666665"
   version="1.1"
   id="svg5"
   inkscape:version="1.1.1 (3bf5ae0d25, 2021-09-20)"
   sodipodi:docname="note-flag-staccato-symbolic.svg"
   xmlns:inkscape="http://www.inkscape.org/namespaces/inkscape"
   xmlns:sodipodi="http://sodipodi.sourceforge.net/DTD/sodipodi-0.dtd"
   xmlns="http://www.w3.org/2000/svg"
   xmlns:svg="http://www.w3.org/2000/svg">
  <sodipodi:namedview
     id="namedview7"
     pagecolor="#ffffff"
     bordercolor="#ff6600"
     borderopacity="1.0"
     inkscape:pageshadow="2"
     inkscape:pageopacity="0.0"
     inkscape:pagecheckerboard="0"
     inkscape:document-units="px"
     showgrid="true"
     inkscape:zoom="13.837965"
     inkscape:cx="24.823014"
     inkscape:cy="14.380727"
     inkscape:window-width="1920"
     inkscape:window-height="1020"
     inkscape:window-x="0"
     inkscape:window-y="32"
     inkscape:window-maximized="1"
     inkscape:current-layer="text2168"
     fit-margin-top="0"
     fit-margin-left="0"
     fit-margin-right="0"
     fit-margin-bottom="0"
     inkscape:snap-to-guides="true"
     inkscape:snap-grids="true"
     units="px"
     width="32px"
     scale-x="0.5">
    <inkscape:grid
       type="xygrid"
       id="grid1371"
       originx="0"
       originy="0" />
  </sodipodi:namedview>
  <defs
     id="defs2">
    <inkscape:path-effect
       effect="bspline"
       id="path-effect2423"
       is_visible="true"
       lpeversion="1"
       weight="33.333333"
       steps="2"
       helper_size="0"
       apply_no_weight="true"
       apply_with_weight="true"
       only_selected="false" />
  </defs>
  <g
     inkscape:label="Layer 1"
     inkscape:groupmode="layer"
     id="layer1"
     transform="translate(-40.968096,-41.529032)">
    <g
       aria-label="ð…ð„ž"
       id="text2168"
       style="font-size:10.5833px;line-height:1.25;letter-spacing:0px;word-spacing:0px;stroke-width:0.264583">
      <g
         aria-label="ð…˜ð…¼"
         id="text4546"
         style="font-size:12.6122px;-inkscape-font-specification:'sans-serif, Normal';stroke-width:0.0834248">
        <path
           d="m 44.501094,47.41039 q -0.605386,0 -0.996364,-0.277469 -0.378366,-0.29008 -0.378366,-0.870241 0,-0.643223 0.353142,-1.147711 0.365754,-0.5171 0.945915,-0.80718 0.580161,-0.302693 1.235995,-0.302693 0.554937,0 0.882854,0.302693 0.327918,0.29008 0.327918,0.832405 0,0.617998 -0.327918,1.135098 -0.327917,0.5171 -0.870241,0.832405 -0.529713,0.302693 -1.172935,0.302693 z"
           id="path60746" />
        <path
           d="m 44.980362,47.965322 q 0.252244,0 0.416203,0.163958 0.176571,0.176571 0.176571,0.428815 0,0.252244 -0.176571,0.416203 -0.163959,0.176571 -0.416203,0.176571 -0.252244,0 -0.428814,-0.176571 -0.163959,-0.163959 -0.163959,-0.416203 0,-0.252244 0.163959,-0.428815 0.17657,-0.163958 0.428814,-0.163958 z"
           id="path60748" />
      </g>
    </g>
  </g>
</svg>
