<?xml version="1.0" encoding="UTF-8" standalone="no"?>
<!-- Created with Inkscape (http://www.inkscape.org/) -->

<svg
   width="64px"
   height="64px"
   id="svg4485"
   version="1.1"
   inkscape:version="1.2.2 (b0a8486541, 2022-12-01)"
   sodipodi:docname="track-audio-symbolic.svg"
   inkscape:export-filename="/home/michi/Projekte/Tsunami/static/track-audio.png"
   inkscape:export-xdpi="18"
   inkscape:export-ydpi="18"
   xmlns:inkscape="http://www.inkscape.org/namespaces/inkscape"
   xmlns:sodipodi="http://sodipodi.sourceforge.net/DTD/sodipodi-0.dtd"
   xmlns="http://www.w3.org/2000/svg"
   xmlns:svg="http://www.w3.org/2000/svg"
   xmlns:rdf="http://www.w3.org/1999/02/22-rdf-syntax-ns#"
   xmlns:cc="http://creativecommons.org/ns#"
   xmlns:dc="http://purl.org/dc/elements/1.1/">
  <defs
     id="defs4487" />
  <sodipodi:namedview
     id="base"
     pagecolor="#ffffff"
     bordercolor="#666666"
     borderopacity="1.0"
     inkscape:pageopacity="0.0"
     inkscape:pageshadow="2"
     inkscape:zoom="7.7781745"
     inkscape:cx="55.15433"
     inkscape:cy="42.812102"
     inkscape:current-layer="layer1"
     showgrid="true"
     inkscape:document-units="px"
     inkscape:grid-bbox="true"
     inkscape:window-width="1920"
     inkscape:window-height="1011"
     inkscape:window-x="0"
     inkscape:window-y="0"
     inkscape:window-maximized="1"
     inkscape:showpageshadow="2"
     inkscape:pagecheckerboard="0"
     inkscape:deskcolor="#d1d1d1">
    <inkscape:grid
       type="xygrid"
       id="grid4670" />
  </sodipodi:namedview>
  <metadata
     id="metadata4490">
    <rdf:RDF>
      <cc:Work
         rdf:about="">
        <dc:format>image/svg+xml</dc:format>
        <dc:type
           rdf:resource="http://purl.org/dc/dcmitype/StillImage" />
      </cc:Work>
    </rdf:RDF>
  </metadata>
  <g
     id="layer1"
     inkscape:label="Layer 1"
     inkscape:groupmode="layer">
    <path
       style="color:#000000;fill:#000000;stroke-linecap:round;-inkscape-stroke:none"
       d="m 19.654297,7.7636719 c -2.412872,0 -4.444201,1.3065014 -5.955078,2.9121091 C 12.188341,12.281389 10.99443,14.28014 9.8808594,16.501953 7.6537178,20.94558 5.7946007,26.3426 3.9472656,30.960937 a 2.825485,2.825485 0 0 0 1.5742188,3.671875 2.825485,2.825485 0 0 0 3.671875,-1.574218 c 1.9199726,-4.799931 3.7777266,-10.113662 5.7382816,-14.025391 0.980277,-1.955864 1.999205,-3.545366 2.882812,-4.484375 0.883607,-0.939008 1.427235,-1.134765 1.839844,-1.134765 0.412608,0 0.858626,0.157694 1.669922,1.074218 0.811296,0.916524 1.747981,2.504949 2.646484,4.47461 1.797007,3.939322 3.492808,9.332049 5.464844,14.28125 1.885183,4.731225 3.507513,10.129131 5.501953,14.568359 0.99722,2.219614 2.073847,4.218055 3.533203,5.841797 1.459357,1.623742 3.549364,2.925046 5.960938,2.902344 2.569917,-0.02419 4.759529,-1.356911 6.457031,-3.056641 1.697501,-1.69973 3.059891,-3.842907 4.253906,-6.193359 2.38803,-4.700905 4.062233,-10.261494 5.044922,-14.683594 a 2.825485,2.825485 0 0 0 -2.144531,-3.371094 2.825485,2.825485 0 0 0 -3.371094,2.144531 c -0.900964,4.054341 -2.52311,9.32348 -4.568359,13.34961 -1.022625,2.013065 -2.161745,3.707237 -3.214844,4.761718 -1.053099,1.054482 -1.864085,1.39236 -2.509766,1.398438 -0.494731,0.0047 -0.913868,-0.148963 -1.705078,-1.029297 -0.79121,-0.880334 -1.70684,-2.432857 -2.582031,-4.380859 -1.750383,-3.896004 -3.393738,-9.292967 -5.40625,-14.34375 -1.855814,-4.65752 -3.538258,-10.070057 -5.574219,-14.533203 -1.01798,-2.231573 -2.11026,-4.242972 -3.556641,-5.876953 -1.44638,-1.633982 -3.487518,-2.9785161 -5.90039,-2.9785161 z"
       id="path4720" />
  </g>
</svg>
