<?xml version="1.0" encoding="UTF-8" standalone="no"?>
<!-- Created with Inkscape (http://www.inkscape.org/) -->

<svg
   width="64px"
   height="64px"
   id="svg3944"
   version="1.1"
   inkscape:version="1.2.2 (b0a8486541, 2022-12-01)"
   sodipodi:docname="track-time-symbolic.svg"
   inkscape:export-filename="/home/michi/Projekte/Tsunami/static/track-time.png"
   inkscape:export-xdpi="18"
   inkscape:export-ydpi="18"
   xmlns:inkscape="http://www.inkscape.org/namespaces/inkscape"
   xmlns:sodipodi="http://sodipodi.sourceforge.net/DTD/sodipodi-0.dtd"
   xmlns="http://www.w3.org/2000/svg"
   xmlns:svg="http://www.w3.org/2000/svg"
   xmlns:rdf="http://www.w3.org/1999/02/22-rdf-syntax-ns#"
   xmlns:cc="http://creativecommons.org/ns#"
   xmlns:dc="http://purl.org/dc/elements/1.1/">
  <defs
     id="defs3946" />
  <sodipodi:namedview
     id="base"
     pagecolor="#ffffff"
     bordercolor="#666666"
     borderopacity="1.0"
     inkscape:pageopacity="0.0"
     inkscape:pageshadow="2"
     inkscape:zoom="7.7781745"
     inkscape:cx="4.9497475"
     inkscape:cy="35.419622"
     inkscape:current-layer="layer1"
     showgrid="true"
     inkscape:document-units="px"
     inkscape:grid-bbox="true"
     inkscape:window-width="1920"
     inkscape:window-height="1131"
     inkscape:window-x="0"
     inkscape:window-y="32"
     inkscape:window-maximized="1"
     showguides="false"
     inkscape:showpageshadow="2"
     inkscape:pagecheckerboard="0"
     inkscape:deskcolor="#d1d1d1">
    <inkscape:grid
       type="xygrid"
       id="grid815" />
  </sodipodi:namedview>
  <metadata
     id="metadata3949">
    <rdf:RDF>
      <cc:Work
         rdf:about="">
        <dc:format>image/svg+xml</dc:format>
        <dc:type
           rdf:resource="http://purl.org/dc/dcmitype/StillImage" />
        <dc:title />
      </cc:Work>
    </rdf:RDF>
  </metadata>
  <g
     id="layer1"
     inkscape:label="Layer 1"
     inkscape:groupmode="layer">
    <path
       style="color:#000000;fill:#000000;stroke-width:0.409847;stroke-linecap:round;stroke-linejoin:round;-inkscape-stroke:none"
       d="m 31.7331,17.989361 a 1.2296644,1.2296644 0 0 0 -1.138286,0.765261 l -9.016638,22.131747 a 1.2295415,1.2295415 0 0 0 0.674007,1.602567 1.2295415,1.2295415 0 0 0 1.602567,-0.674007 l 7.87835,-19.338062 7.878352,19.338062 a 1.2295415,1.2295415 0 0 0 1.602566,0.674007 1.2295415,1.2295415 0 0 0 0.674006,-1.602567 L 32.871387,18.754622 A 1.2296644,1.2296644 0 0 0 31.7331,17.989361 Z"
       id="path817" />
    <path
       style="color:#000000;fill:#000000;stroke-width:0.409847;stroke-linecap:round;stroke-linejoin:bevel;-inkscape-stroke:none"
       d="m 42.389927,24.449256 -11.475721,10.24618 a 1.2295415,1.2295415 0 0 0 -0.09846,1.736247 1.2295415,1.2295415 0 0 0 1.736248,0.09846 l 11.475722,-10.24618 a 1.2295415,1.2295415 0 0 0 0.09846,-1.736248 1.2295415,1.2295415 0 0 0 -1.736248,-0.09846 z"
       id="path819" />
    <path
       style="color:#000000;fill:#000000;stroke-width:0.409847;stroke-linecap:round;stroke-linejoin:bevel;-inkscape-stroke:none"
       d="m 41.295667,24.144272 a 1.2295415,1.2295415 0 0 0 -0.904545,0.262558 1.2295415,1.2295415 0 0 0 -0.191315,1.728243 l 1.639388,2.049236 a 1.2295415,1.2295415 0 0 0 1.728243,0.191315 1.2295415,1.2295415 0 0 0 0.191315,-1.728242 l -1.639389,-2.049235 a 1.2295415,1.2295415 0 0 0 -0.823697,-0.453875 z"
       id="path1141" />
  </g>
</svg>
