<?xml version="1.0" encoding="UTF-8" standalone="no"?>
<!-- Created with Inkscape (http://www.inkscape.org/) -->

<svg
   width="64px"
   height="64px"
   id="svg3944"
   version="1.1"
   inkscape:version="1.2.2 (b0a8486541, 2022-12-01)"
   sodipodi:docname="track-time-symbolic.svg"
   inkscape:export-filename="/home/michi/Projekte/Tsunami/static/track-time.png"
   inkscape:export-xdpi="18"
   inkscape:export-ydpi="18"
   xmlns:inkscape="http://www.inkscape.org/namespaces/inkscape"
   xmlns:sodipodi="http://sodipodi.sourceforge.net/DTD/sodipodi-0.dtd"
   xmlns="http://www.w3.org/2000/svg"
   xmlns:svg="http://www.w3.org/2000/svg"
   xmlns:rdf="http://www.w3.org/1999/02/22-rdf-syntax-ns#"
   xmlns:cc="http://creativecommons.org/ns#"
   xmlns:dc="http://purl.org/dc/elements/1.1/">
  <defs
     id="defs3946" />
  <sodipodi:namedview
     id="base"
     pagecolor="#ffffff"
     bordercolor="#666666"
     borderopacity="1.0"
     inkscape:pageopacity="0.0"
     inkscape:pageshadow="2"
     inkscape:zoom="5.4999999"
     inkscape:cx="2"
     inkscape:cy="38.545455"
     inkscape:current-layer="layer1"
     showgrid="true"
     inkscape:document-units="px"
     inkscape:grid-bbox="true"
     inkscape:window-width="1920"
     inkscape:window-height="1011"
     inkscape:window-x="0"
     inkscape:window-y="0"
     inkscape:window-maximized="1"
     showguides="false"
     inkscape:showpageshadow="2"
     inkscape:pagecheckerboard="0"
     inkscape:deskcolor="#d1d1d1">
    <inkscape:grid
       type="xygrid"
       id="grid815" />
  </sodipodi:namedview>
  <metadata
     id="metadata3949">
    <rdf:RDF>
      <cc:Work
         rdf:about="">
        <dc:format>image/svg+xml</dc:format>
        <dc:type
           rdf:resource="http://purl.org/dc/dcmitype/StillImage" />
        <dc:title />
      </cc:Work>
    </rdf:RDF>
  </metadata>
  <g
     id="layer1"
     inkscape:label="Layer 1"
     inkscape:groupmode="layer">
    <path
       style="color:#000000;fill:#000000;stroke-width:1.59073;stroke-linecap:round;stroke-linejoin:round;stroke-dasharray:none"
       d="m 32.432146,4.5745881 a 2.7556153,2.7556153 0 0 0 -2.550841,1.714911 L 9.6754784,55.885617 a 2.7553399,2.7553399 0 0 0 1.5104156,3.591271 2.7553399,2.7553399 0 0 0 3.591271,-1.510415 L 32.432146,14.630861 50.087131,57.966473 a 2.7553399,2.7553399 0 0 0 3.591269,1.510415 2.7553399,2.7553399 0 0 0 1.510413,-3.591271 L 34.982989,6.2894991 a 2.7556153,2.7556153 0 0 0 -2.550843,-1.714911 z"
       id="path817" />
    <path
       style="color:#000000;fill:#000000;stroke-width:0.918446;stroke-linecap:round;stroke-linejoin:bevel;-inkscape-stroke:none"
       d="M 56.313552,19.050884 30.597046,42.012051 a 2.7553399,2.7553399 0 0 0 -0.220644,3.890842 2.7553399,2.7553399 0 0 0 3.890843,0.220643 L 59.983754,23.162369 a 2.7553399,2.7553399 0 0 0 0.220644,-3.890843 2.7553399,2.7553399 0 0 0 -3.890844,-0.220644 z"
       id="path819" />
    <path
       style="color:#000000;fill:#000000;stroke-width:0.918446;stroke-linecap:round;stroke-linejoin:bevel;-inkscape-stroke:none"
       d="m 53.861371,18.36743 a 2.7553399,2.7553399 0 0 0 -2.027039,0.588379 2.7553399,2.7553399 0 0 0 -0.428727,3.872905 l 3.673785,4.592233 a 2.7553399,2.7553399 0 0 0 3.872904,0.428728 2.7553399,2.7553399 0 0 0 0.428728,-3.872903 L 55.707234,19.384541 A 2.7553399,2.7553399 0 0 0 53.861371,18.36743 Z"
       id="path1141" />
  </g>
</svg>
