<?xml version="1.0" encoding="UTF-8" standalone="no"?>
<!-- Created with Inkscape (http://www.inkscape.org/) -->

<svg
   xmlns:dc="http://purl.org/dc/elements/1.1/"
   xmlns:cc="http://creativecommons.org/ns#"
   xmlns:rdf="http://www.w3.org/1999/02/22-rdf-syntax-ns#"
   xmlns:svg="http://www.w3.org/2000/svg"
   xmlns="http://www.w3.org/2000/svg"
   xmlns:xlink="http://www.w3.org/1999/xlink"
   xmlns:sodipodi="http://sodipodi.sourceforge.net/DTD/sodipodi-0.dtd"
   xmlns:inkscape="http://www.inkscape.org/namespaces/inkscape"
   width="64"
   height="64"
   viewBox="0 0 16.933333 16.933333"
   version="1.1"
   id="svg1691"
   inkscape:version="0.92.5 (2060ec1f9f, 2020-04-08)"
   sodipodi:docname="tsunami8-v3.svg"
   inkscape:export-filename="/home/michi/Projekte/Tsunami/static/Icons/128.png"
   inkscape:export-xdpi="192"
   inkscape:export-ydpi="192">
  <defs
     id="defs1685">
    <linearGradient
       inkscape:collect="always"
       id="linearGradient4618">
      <stop
         style="stop-color:#454245;stop-opacity:1;"
         offset="0"
         id="stop4614" />
      <stop
         style="stop-color:#454245;stop-opacity:0;"
         offset="1"
         id="stop4616" />
    </linearGradient>
    <inkscape:path-effect
       effect="spiro"
       id="path-effect5929"
       is_visible="true" />
    <inkscape:path-effect
       effect="spiro"
       id="path-effect5929-7"
       is_visible="true" />
    <inkscape:path-effect
       effect="spiro"
       id="path-effect5929-3"
       is_visible="true" />
    <inkscape:path-effect
       effect="spiro"
       id="path-effect5929-2"
       is_visible="true" />
    <inkscape:path-effect
       effect="spiro"
       id="path-effect5929-2-1"
       is_visible="true" />
    <inkscape:path-effect
       effect="spiro"
       id="path-effect5929-2-7"
       is_visible="true" />
    <inkscape:path-effect
       effect="spiro"
       id="path-effect5929-28"
       is_visible="true" />
    <inkscape:path-effect
       effect="spiro"
       id="path-effect5929-7-9"
       is_visible="true" />
    <inkscape:path-effect
       effect="spiro"
       id="path-effect5929-3-7"
       is_visible="true" />
    <inkscape:path-effect
       effect="spiro"
       id="path-effect5929-2-3"
       is_visible="true" />
    <inkscape:path-effect
       effect="spiro"
       id="path-effect5929-2-1-6"
       is_visible="true" />
    <inkscape:path-effect
       effect="spiro"
       id="path-effect5929-2-7-1"
       is_visible="true" />
    <radialGradient
       inkscape:collect="always"
       xlink:href="#linearGradient4618"
       id="radialGradient4620"
       cx="12.296038"
       cy="292.12173"
       fx="12.296038"
       fy="292.12173"
       r="1.5709635"
       gradientTransform="matrix(1.2105263,0,0,0.50375943,-2.1161693,144.93904)"
       gradientUnits="userSpaceOnUse" />
    <radialGradient
       inkscape:collect="always"
       xlink:href="#linearGradient4618"
       id="radialGradient4620-3"
       cx="12.296038"
       cy="292.12173"
       fx="12.296038"
       fy="292.12173"
       r="1.5709635"
       gradientTransform="matrix(1.2105263,0,0,0.50375944,-5.4588954,146.22655)"
       gradientUnits="userSpaceOnUse" />
  </defs>
  <sodipodi:namedview
     id="base"
     pagecolor="#ffffff"
     bordercolor="#666666"
     borderopacity="1.0"
     inkscape:pageopacity="0.0"
     inkscape:pageshadow="2"
     inkscape:zoom="11.2"
     inkscape:cx="-15.093657"
     inkscape:cy="50.626765"
     inkscape:document-units="mm"
     inkscape:current-layer="layer1"
     showgrid="false"
     units="px"
     width="64px"
     inkscape:snap-global="false"
     inkscape:window-width="2560"
     inkscape:window-height="1375"
     inkscape:window-x="0"
     inkscape:window-y="28"
     inkscape:window-maximized="1">
    <inkscape:grid
       type="xygrid"
       id="grid2239" />
  </sodipodi:namedview>
  <metadata
     id="metadata1688">
    <rdf:RDF>
      <cc:Work
         rdf:about="">
        <dc:format>image/svg+xml</dc:format>
        <dc:type
           rdf:resource="http://purl.org/dc/dcmitype/StillImage" />
        <dc:title />
      </cc:Work>
    </rdf:RDF>
  </metadata>
  <g
     inkscape:label="Layer 1"
     inkscape:groupmode="layer"
     id="layer1"
     transform="translate(0,-280.06667)"
     style="display:inline">
    <ellipse
       style="opacity:1;fill:#e97e10;fill-opacity:1;stroke:none;stroke-width:1.54995954;stroke-linecap:round;stroke-linejoin:round;stroke-miterlimit:4;stroke-dasharray:none;stroke-opacity:1"
       id="path2241-6"
       cx="10.176044"
       cy="292.49634"
       rx="5.166532"
       ry="2.3249395" />
    <ellipse
       style="opacity:1;fill:#fecd38;fill-opacity:1;stroke:none;stroke-width:1.54995954;stroke-linecap:round;stroke-linejoin:round;stroke-miterlimit:4;stroke-dasharray:none;stroke-opacity:1"
       id="path2241"
       cx="10.146691"
       cy="292.74265"
       rx="5.166532"
       ry="2.3249395" />
    <path
       style="opacity:0.67000002;fill:url(#radialGradient4620);fill-opacity:1;stroke:none;stroke-width:0.37217024;stroke-linecap:round;stroke-linejoin:miter;stroke-miterlimit:4;stroke-dasharray:none;stroke-opacity:0.62376236"
       id="path4612"
       sodipodi:type="arc"
       sodipodi:cx="12.768508"
       sodipodi:cy="292.09808"
       sodipodi:rx="1.9016926"
       sodipodi:ry="0.79138768"
       sodipodi:start="5.3140563"
       sodipodi:end="5.3122761"
       sodipodi:open="true"
       d="m 13.8449,291.44567 a 1.9016926,0.79138768 0 0 1 0.491829,1.10006 1.9016926,0.79138768 0 0 1 -2.643217,0.20517 1.9016926,0.79138768 0 0 1 -0.494182,-1.09988 1.9016926,0.79138768 0 0 1 2.642777,-0.20615" />
    <rect
       style="fill:#248afd;stroke-width:0.08322186;stroke-dasharray:0.16644373, 0.08322186"
       width="1.6644373"
       height="4.9933119"
       x="4.1577382"
       y="269.58185"
       id="rect1099" />
    <rect
       y="269.58185"
       x="5.8221755"
       height="4.9933119"
       width="1.6644373"
       style="fill:#4bae4f;stroke-width:0.08322186;stroke-dasharray:0.16644373, 0.08322186"
       id="rect1101" />
    <rect
       y="269.58185"
       x="7.4866128"
       height="4.9933119"
       width="1.6644373"
       style="fill:#c2352a;stroke-width:0.08322186;stroke-dasharray:0.16644373, 0.08322186"
       id="rect1103" />
    <rect
       style="fill:#f9548f;stroke-width:0.08322186;stroke-dasharray:0.16644373, 0.08322186"
       width="1.6644373"
       height="4.9933119"
       x="9.1510496"
       y="269.58185"
       id="rect1105" />
    <rect
       y="269.58185"
       x="10.815487"
       height="4.9933119"
       width="1.6644373"
       style="fill:#e97e10;stroke-width:0.08322186;stroke-dasharray:0.16644373, 0.08322186"
       id="rect1107" />
    <rect
       style="fill:#cccccc;stroke-width:0.08322186;stroke-dasharray:0.16644373, 0.08322186"
       width="1.6644373"
       height="4.9933119"
       x="14.144361"
       y="264.58853"
       id="rect1109" />
    <rect
       style="fill:#5d5d5d;stroke-width:0.08322186;stroke-dasharray:0.16644373, 0.08322186"
       width="1.6644373"
       height="4.9933119"
       x="14.144361"
       y="269.58185"
       id="rect1111" />
    <rect
       y="269.58185"
       x="12.479925"
       height="4.9933119"
       width="1.6644373"
       style="fill:#7767c0;stroke-width:0.08322186;stroke-dasharray:0.16644373, 0.08322185999999999;stroke:none;stroke-opacity:1"
       id="rect1113" />
    <rect
       y="264.58853"
       x="4.1577382"
       height="4.9933119"
       width="1.6644373"
       style="fill:#50beee;stroke-width:0.08322186;stroke-dasharray:0.16644373, 0.08322186"
       id="rect1115" />
    <rect
       style="fill:#79de7d;stroke-width:0.08322186;stroke-dasharray:0.16644373, 0.08322186"
       width="1.6644373"
       height="4.9933119"
       x="5.8221755"
       y="264.58853"
       id="rect1117" />
    <rect
       style="fill:#df574d;stroke-width:0.08322186;stroke-dasharray:0.16644373, 0.08322186"
       width="1.6644373"
       height="4.9933119"
       x="7.4866128"
       y="264.58853"
       id="rect1119" />
    <rect
       y="264.58853"
       x="9.1510496"
       height="4.9933119"
       width="1.6644373"
       style="fill:#ff90b8;stroke-width:0.08322186;stroke-dasharray:0.16644373, 0.08322186"
       id="rect1121" />
    <rect
       style="fill:#fecd38;stroke-width:0.08322186;stroke-dasharray:0.16644373, 0.08322186"
       width="1.6644373"
       height="4.9933119"
       x="10.815487"
       y="264.58853"
       id="rect1123" />
    <rect
       style="fill:#9182d7;stroke-width:0.08322186;stroke-dasharray:0.16644373, 0.08322186"
       width="1.6644373"
       height="4.9933119"
       x="12.479925"
       y="264.58853"
       id="rect1125" />
    <path
       style="opacity:1;fill:none;stroke:#f9548f;stroke-width:0.91643775;stroke-linecap:round;stroke-linejoin:bevel;stroke-miterlimit:4;stroke-dasharray:none;stroke-opacity:1"
       d="m 12.918037,285.76641 c -0.465555,1.02466 -0.892467,2.13748 -1.008703,3.24658 -0.116236,1.10911 0.310369,2.87987 0.310369,2.87987"
       id="path2571-9-9"
       inkscape:connector-curvature="0"
       sodipodi:nodetypes="czc" />
    <path
       style="fill:none;stroke:#e97e10;stroke-width:0.91643775;stroke-linecap:round;stroke-linejoin:bevel;stroke-miterlimit:4;stroke-dasharray:none;stroke-opacity:1"
       d="m 12.695423,285.77671 c -0.465556,1.02466 -0.892467,2.13747 -1.008703,3.24657 -0.116236,1.10911 0.310369,2.87988 0.310369,2.87988"
       id="path2571-3"
       inkscape:connector-curvature="0"
       sodipodi:nodetypes="czc" />
    <path
       style="display:inline;fill:#79de7d;fill-opacity:1;stroke:#4bae4f;stroke-width:0.52501744;stroke-miterlimit:4;stroke-dasharray:none;stroke-opacity:1"
       d="m 34.425529,1021.2405 c -1.932897,-0.052 -3.877019,0.597 -5.391883,1.7986 -1.290737,1.0239 -2.266069,2.4399 -2.762522,4.0108 -0.496453,1.571 -0.512,3.2904 -0.04404,4.87 0.449294,-1.6934 1.277183,-3.2852 2.405621,-4.6254 1.545462,-1.8355 3.657398,-3.1871 5.97139,-3.8218"
       id="path5927-94"
       inkscape:path-effect="#path-effect5929-28"
       inkscape:original-d="m 34.425529,1021.2405 c 0,0 -3.921781,0.8735 -5.391883,1.7986 -1.470101,0.9251 -2.806557,8.8808 -2.806557,8.8808 0,0 1.603747,-2.7752 2.405621,-4.6254 0.801874,-1.8502 5.704099,-2.5267 5.97139,-3.8218"
       inkscape:connector-curvature="0"
       sodipodi:nodetypes="cscsc"
       transform="matrix(-0.38140115,0,0,0.39978116,26.355245,-123.46859)" />
    <path
       style="display:inline;fill:#79de7d;fill-opacity:1;stroke:#4bae4f;stroke-width:0.71977168;stroke-miterlimit:4;stroke-dasharray:none;stroke-opacity:1"
       d="m 34.425529,1021.2405 c -1.932897,-0.052 -3.877019,0.597 -5.391883,1.7986 -1.290737,1.0239 -2.266069,2.4399 -2.762522,4.0108 -0.496453,1.571 -0.512,3.2904 -0.04404,4.87 0.449294,-1.6934 1.277183,-3.2852 2.405621,-4.6254 1.545462,-1.8355 3.657398,-3.1871 5.97139,-3.8218"
       id="path5927-5-7"
       inkscape:path-effect="#path-effect5929-7-9"
       inkscape:original-d="m 34.425529,1021.2405 c 0,0 -3.921781,0.8735 -5.391883,1.7986 -1.470101,0.9251 -2.806557,8.8808 -2.806557,8.8808 0,0 1.603747,-2.7752 2.405621,-4.6254 0.801874,-1.8502 5.704099,-2.5267 5.97139,-3.8218"
       inkscape:connector-curvature="0"
       sodipodi:nodetypes="cscsc"
       transform="matrix(-0.18478856,0.20836553,0.21756974,0.19369366,-203.08219,79.600647)" />
    <path
       style="display:inline;fill:#79de7d;fill-opacity:1;stroke:#4bae4f;stroke-width:0.71977168;stroke-miterlimit:4;stroke-dasharray:none;stroke-opacity:1"
       d="m 34.425529,1021.2405 c -1.932897,-0.052 -3.877019,0.597 -5.391883,1.7986 -1.290737,1.0239 -2.266069,2.4399 -2.762522,4.0108 -0.496453,1.571 -0.512,3.2904 -0.04404,4.87 0.449294,-1.6934 1.277183,-3.2852 2.405621,-4.6254 1.545462,-1.8355 3.657398,-3.1871 5.97139,-3.8218"
       id="path5927-56-8"
       inkscape:path-effect="#path-effect5929-3-7"
       inkscape:original-d="m 34.425529,1021.2405 c 0,0 -3.921781,0.8735 -5.391883,1.7986 -1.470101,0.9251 -2.806557,8.8808 -2.806557,8.8808 0,0 1.603747,-2.7752 2.405621,-4.6254 0.801874,-1.8502 5.704099,-2.5267 5.97139,-3.8218"
       inkscape:connector-curvature="0"
       sodipodi:nodetypes="cscsc"
       transform="matrix(-0.26523329,-0.08411316,-0.08782873,0.27801508,111.6626,3.5778968)" />
    <path
       style="display:inline;fill:#79de7d;fill-opacity:1;stroke:#4bae4f;stroke-width:0.64556408;stroke-miterlimit:4;stroke-dasharray:none;stroke-opacity:1"
       d="m 34.425529,1021.2405 c -1.932897,-0.052 -3.877019,0.597 -5.391883,1.7986 -1.290737,1.0239 -2.266069,2.4399 -2.762522,4.0108 -0.496453,1.571 -0.512,3.2904 -0.04404,4.87 0.449294,-1.6934 1.277183,-3.2852 2.405621,-4.6254 1.545462,-1.8355 3.657398,-3.1871 5.97139,-3.8218"
       id="path5927-9-4"
       inkscape:path-effect="#path-effect5929-2-3"
       inkscape:original-d="m 34.425529,1021.2405 c 0,0 -3.921781,0.8735 -5.391883,1.7986 -1.470101,0.9251 -2.806557,8.8808 -2.806557,8.8808 0,0 1.603747,-2.7752 2.405621,-4.6254 0.801874,-1.8502 5.704099,-2.5267 5.97139,-3.8218"
       inkscape:connector-curvature="0"
       sodipodi:nodetypes="cscsc"
       transform="matrix(0.3032485,0,0,0.33146351,2.2887954,-53.938202)" />
    <path
       style="display:inline;fill:#79de7d;fill-opacity:1;stroke:#4bae4f;stroke-width:0.93281776;stroke-miterlimit:4;stroke-dasharray:none;stroke-opacity:1"
       d="m 34.425529,1021.2405 c -1.932897,-0.052 -3.877019,0.597 -5.391883,1.7986 -1.290737,1.0239 -2.266069,2.4399 -2.762522,4.0108 -0.496453,1.571 -0.512,3.2904 -0.04404,4.87 0.449294,-1.6934 1.277183,-3.2852 2.405621,-4.6254 1.545462,-1.8355 3.657398,-3.1871 5.97139,-3.8218"
       id="path5927-9-2-5"
       inkscape:path-effect="#path-effect5929-2-1-6"
       inkscape:original-d="m 34.425529,1021.2405 c 0,0 -3.921781,0.8735 -5.391883,1.7986 -1.470101,0.9251 -2.806557,8.8808 -2.806557,8.8808 0,0 1.603747,-2.7752 2.405621,-4.6254 0.801874,-1.8502 5.704099,-2.5267 5.97139,-3.8218"
       inkscape:connector-curvature="0"
       sodipodi:nodetypes="cscsc"
       transform="matrix(-6.4197353e-4,0.23431732,-0.20545234,-6.9612478e-4,222.60596,277.27447)" />
    <path
       style="display:inline;fill:#79de7d;fill-opacity:1;stroke:#4bae4f;stroke-width:0.64436471;stroke-miterlimit:4;stroke-dasharray:none;stroke-opacity:1"
       d="m 34.425529,1021.2405 c -1.932897,-0.052 -3.877019,0.597 -5.391883,1.7986 -1.290737,1.0239 -2.266069,2.4399 -2.762522,4.0108 -0.496453,1.571 -0.512,3.2904 -0.04404,4.87 0.449294,-1.6934 1.277183,-3.2852 2.405621,-4.6254 1.545462,-1.8355 3.657398,-3.1871 5.97139,-3.8218"
       id="path5927-9-0-0"
       inkscape:path-effect="#path-effect5929-2-7-1"
       inkscape:original-d="m 34.425529,1021.2405 c 0,0 -3.921781,0.8735 -5.391883,1.7986 -1.470101,0.9251 -2.806557,8.8808 -2.806557,8.8808 0,0 1.603747,-2.7752 2.405621,-4.6254 0.801874,-1.8502 5.704099,-2.5267 5.97139,-3.8218"
       inkscape:connector-curvature="0"
       sodipodi:nodetypes="cscsc"
       transform="matrix(0.19876327,0.25730707,-0.22561003,0.2155292,236.64451,55.750642)" />
    <path
       style="opacity:0.67000002;fill:url(#radialGradient4620-3);fill-opacity:1;stroke:none;stroke-width:0.37217024;stroke-linecap:round;stroke-linejoin:miter;stroke-miterlimit:4;stroke-dasharray:none;stroke-opacity:0.62376236"
       id="path4612-6"
       sodipodi:type="arc"
       sodipodi:cx="9.4257812"
       sodipodi:cy="293.38559"
       sodipodi:rx="1.9016927"
       sodipodi:ry="0.79138768"
       sodipodi:start="5.3140563"
       sodipodi:end="5.3122761"
       sodipodi:open="true"
       d="m 10.502173,292.73318 a 1.9016927,0.79138768 0 0 1 0.491829,1.10006 1.9016927,0.79138768 0 0 1 -2.6432168,0.20516 1.9016927,0.79138768 0 0 1 -0.4941819,-1.09988 1.9016927,0.79138768 0 0 1 2.6427777,-0.20614" />
    <path
       style="opacity:1;fill:none;stroke:#f9548f;stroke-width:0.91643775;stroke-linecap:round;stroke-linejoin:bevel;stroke-miterlimit:4;stroke-dasharray:none;stroke-opacity:1"
       d="m 9.2467214,287.14568 c -0.4655551,1.02466 -0.8924672,2.13748 -1.0087029,3.24659 -0.1162358,1.10911 0.3103688,2.87987 0.3103688,2.87987"
       id="path2571-9"
       inkscape:connector-curvature="0"
       sodipodi:nodetypes="czc" />
    <path
       style="fill:none;stroke:#e97e10;stroke-width:0.91643775;stroke-linecap:round;stroke-linejoin:bevel;stroke-miterlimit:4;stroke-dasharray:none;stroke-opacity:1"
       d="m 8.9768602,287.1796 c -0.4655561,1.02466 -0.8924672,2.13747 -1.008703,3.24658 -0.1162357,1.10911 0.3103688,2.87988 0.3103688,2.87988"
       id="path2571"
       inkscape:connector-curvature="0"
       sodipodi:nodetypes="czc" />
    <path
       style="display:inline;fill:#79de7d;fill-opacity:1;stroke:#4bae4f;stroke-width:0.52501744;stroke-miterlimit:4;stroke-dasharray:none;stroke-opacity:1"
       d="m 34.425529,1021.2405 c -1.932897,-0.052 -3.877019,0.597 -5.391883,1.7986 -1.290737,1.0239 -2.266069,2.4399 -2.762522,4.0108 -0.496453,1.571 -0.512,3.2904 -0.04404,4.87 0.449294,-1.6934 1.277183,-3.2852 2.405621,-4.6254 1.545462,-1.8355 3.657398,-3.1871 5.97139,-3.8218"
       id="path5927"
       inkscape:path-effect="#path-effect5929"
       inkscape:original-d="m 34.425529,1021.2405 c 0,0 -3.921781,0.8735 -5.391883,1.7986 -1.470101,0.9251 -2.806557,8.8808 -2.806557,8.8808 0,0 1.603747,-2.7752 2.405621,-4.6254 0.801874,-1.8502 5.704099,-2.5267 5.97139,-3.8218"
       inkscape:connector-curvature="0"
       sodipodi:nodetypes="cscsc"
       transform="matrix(-0.38140115,0,0,0.39978116,22.636683,-122.06569)" />
    <path
       style="display:inline;fill:#79de7d;fill-opacity:1;stroke:#4bae4f;stroke-width:0.71977168;stroke-miterlimit:4;stroke-dasharray:none;stroke-opacity:1"
       d="m 34.425529,1021.2405 c -1.932897,-0.052 -3.877019,0.597 -5.391883,1.7986 -1.290737,1.0239 -2.266069,2.4399 -2.762522,4.0108 -0.496453,1.571 -0.512,3.2904 -0.04404,4.87 0.449294,-1.6934 1.277183,-3.2852 2.405621,-4.6254 1.545462,-1.8355 3.657398,-3.1871 5.97139,-3.8218"
       id="path5927-5"
       inkscape:path-effect="#path-effect5929-7"
       inkscape:original-d="m 34.425529,1021.2405 c 0,0 -3.921781,0.8735 -5.391883,1.7986 -1.470101,0.9251 -2.806557,8.8808 -2.806557,8.8808 0,0 1.603747,-2.7752 2.405621,-4.6254 0.801874,-1.8502 5.704099,-2.5267 5.97139,-3.8218"
       inkscape:connector-curvature="0"
       sodipodi:nodetypes="cscsc"
       transform="matrix(-0.18478856,0.20836553,0.21756974,0.19369366,-206.80076,81.003542)" />
    <path
       style="display:inline;fill:#79de7d;fill-opacity:1;stroke:#4bae4f;stroke-width:0.71977168;stroke-miterlimit:4;stroke-dasharray:none;stroke-opacity:1"
       d="m 34.425529,1021.2405 c -1.932897,-0.052 -3.877019,0.597 -5.391883,1.7986 -1.290737,1.0239 -2.266069,2.4399 -2.762522,4.0108 -0.496453,1.571 -0.512,3.2904 -0.04404,4.87 0.449294,-1.6934 1.277183,-3.2852 2.405621,-4.6254 1.545462,-1.8355 3.657398,-3.1871 5.97139,-3.8218"
       id="path5927-56"
       inkscape:path-effect="#path-effect5929-3"
       inkscape:original-d="m 34.425529,1021.2405 c 0,0 -3.921781,0.8735 -5.391883,1.7986 -1.470101,0.9251 -2.806557,8.8808 -2.806557,8.8808 0,0 1.603747,-2.7752 2.405621,-4.6254 0.801874,-1.8502 5.704099,-2.5267 5.97139,-3.8218"
       inkscape:connector-curvature="0"
       sodipodi:nodetypes="cscsc"
       transform="matrix(-0.26523329,-0.08411316,-0.08782873,0.27801508,107.94404,4.9807918)" />
    <path
       style="display:inline;fill:#79de7d;fill-opacity:1;stroke:#4bae4f;stroke-width:0.64556408;stroke-miterlimit:4;stroke-dasharray:none;stroke-opacity:1"
       d="m 34.425529,1021.2405 c -1.932897,-0.052 -3.877019,0.597 -5.391883,1.7986 -1.290737,1.0239 -2.266069,2.4399 -2.762522,4.0108 -0.496453,1.571 -0.512,3.2904 -0.04404,4.87 0.449294,-1.6934 1.277183,-3.2852 2.405621,-4.6254 1.545462,-1.8355 3.657398,-3.1871 5.97139,-3.8218"
       id="path5927-9"
       inkscape:path-effect="#path-effect5929-2"
       inkscape:original-d="m 34.425529,1021.2405 c 0,0 -3.921781,0.8735 -5.391883,1.7986 -1.470101,0.9251 -2.806557,8.8808 -2.806557,8.8808 0,0 1.603747,-2.7752 2.405621,-4.6254 0.801874,-1.8502 5.704099,-2.5267 5.97139,-3.8218"
       inkscape:connector-curvature="0"
       sodipodi:nodetypes="cscsc"
       transform="matrix(0.3032485,0,0,0.33146351,-1.4297666,-52.535307)" />
    <path
       style="display:inline;fill:#79de7d;fill-opacity:1;stroke:#4bae4f;stroke-width:0.93281776;stroke-miterlimit:4;stroke-dasharray:none;stroke-opacity:1"
       d="m 34.425529,1021.2405 c -1.932897,-0.052 -3.877019,0.597 -5.391883,1.7986 -1.290737,1.0239 -2.266069,2.4399 -2.762522,4.0108 -0.496453,1.571 -0.512,3.2904 -0.04404,4.87 0.449294,-1.6934 1.277183,-3.2852 2.405621,-4.6254 1.545462,-1.8355 3.657398,-3.1871 5.97139,-3.8218"
       id="path5927-9-2"
       inkscape:path-effect="#path-effect5929-2-1"
       inkscape:original-d="m 34.425529,1021.2405 c 0,0 -3.921781,0.8735 -5.391883,1.7986 -1.470101,0.9251 -2.806557,8.8808 -2.806557,8.8808 0,0 1.603747,-2.7752 2.405621,-4.6254 0.801874,-1.8502 5.704099,-2.5267 5.97139,-3.8218"
       inkscape:connector-curvature="0"
       sodipodi:nodetypes="cscsc"
       transform="matrix(-6.4197353e-4,0.23431732,-0.20545234,-6.9612478e-4,218.8874,278.67737)" />
    <path
       style="display:inline;fill:#79de7d;fill-opacity:1;stroke:#4bae4f;stroke-width:0.64436471;stroke-miterlimit:4;stroke-dasharray:none;stroke-opacity:1"
       d="m 34.425529,1021.2405 c -1.932897,-0.052 -3.877019,0.597 -5.391883,1.7986 -1.290737,1.0239 -2.266069,2.4399 -2.762522,4.0108 -0.496453,1.571 -0.512,3.2904 -0.04404,4.87 0.449294,-1.6934 1.277183,-3.2852 2.405621,-4.6254 1.545462,-1.8355 3.657398,-3.1871 5.97139,-3.8218"
       id="path5927-9-0"
       inkscape:path-effect="#path-effect5929-2-7"
       inkscape:original-d="m 34.425529,1021.2405 c 0,0 -3.921781,0.8735 -5.391883,1.7986 -1.470101,0.9251 -2.806557,8.8808 -2.806557,8.8808 0,0 1.603747,-2.7752 2.405621,-4.6254 0.801874,-1.8502 5.704099,-2.5267 5.97139,-3.8218"
       inkscape:connector-curvature="0"
       sodipodi:nodetypes="cscsc"
       transform="matrix(0.19876327,0.25730707,-0.22561003,0.2155292,232.92595,57.153537)" />
  </g>
  <g
     inkscape:groupmode="layer"
     id="layer2"
     inkscape:label="Layer 2"
     style="display:inline">
    <path
       transform="translate(0,-280.06667)"
       style="display:inline;opacity:1;fill:#248afd;fill-opacity:1;stroke:none;stroke-width:0.35519007;stroke-linecap:round;stroke-linejoin:miter;stroke-miterlimit:4;stroke-dasharray:none;stroke-opacity:1"
       d="m 8.7172156,280.60959 a 7.9849189,7.9849189 0 0 0 -6.824434,3.47021 7.9849189,7.9849189 0 0 0 2.0749531,11.09805 7.9849189,7.9849189 0 0 0 10.9005393,-1.81066 6.306726,6.306726 0 0 1 -7.4457963,0.23336 6.306726,6.306726 0 0 1 -1.6384547,-8.76514 6.306726,6.306726 0 0 1 8.292787,-1.93086 7.9849189,7.9849189 0 0 0 -1.075433,-0.89619 l -0.01195,-0.008 a 7.9849189,7.9849189 0 0 0 -4.2722114,-1.39033 z"
       id="path4549"
       inkscape:connector-curvature="0" />
    <path
       style="display:inline;opacity:1;fill:#50beee;fill-opacity:1;stroke:none;stroke-width:0.32066393;stroke-linecap:round;stroke-linejoin:miter;stroke-miterlimit:4;stroke-dasharray:none;stroke-opacity:0.62376236"
       d="m -3.3286268,1.5147092 c -2.4746477,-0.0732 -4.981876,1.11771 -6.380489,3.16053 -2.2680182,3.31284 -1.4220552,7.8369098 1.8898071,10.1063598 1.9331056,1.32173 4.5498043,1.63161 6.7510093,0.83251 -1.6943041,0.21503 -3.2669571,-0.19785 -4.6776032,-1.16065 -3.1828113,-2.18106 -3.995705,-6.5289098 -1.8159098,-9.7125898 1.3164657,-1.91882 3.3599427,-3.05647 5.686844,-3.03444 -0.476856,-0.11272 -0.9638838,-0.17695 -1.4536584,-0.19172 z"
       id="path4575"
       inkscape:connector-curvature="0"
       sodipodi:nodetypes="cccccccc" />
    <path
       style="display:inline;opacity:1;fill:#cccccc;fill-opacity:1;stroke:none;stroke-width:0.32961068;stroke-linecap:round;stroke-linejoin:miter;stroke-miterlimit:4;stroke-dasharray:none;stroke-opacity:0.62376236"
       d="m -0.36987427,1.9592383 a 7.0752899,7.0752899 0 0 0 -6.04708723,3.07504 7.0752899,7.0752899 0 0 0 1.8384399,9.8332497 7.0752899,7.0752899 0 0 0 4.20080433,1.22773 7.0752899,7.0752899 0 0 1 -3.38772843,-1.20367 7.0752899,7.0752899 0 0 1 -1.838963,-9.8332497 7.0752899,7.0752899 0 0 1 5.63767363,-3.0672 7.0752899,7.0752899 0 0 0 -0.4031392,-0.0319 z"
       id="path4594"
       inkscape:connector-curvature="0" />
    <path
       style="fill:#50beee;fill-opacity:1;stroke:none;stroke-width:0.26458332px;stroke-linecap:butt;stroke-linejoin:miter;stroke-opacity:1"
       d="M 0.56696428,8.1926337 C 0.66172289,6.9009506 0.91788913,6.0409388 1.3701637,4.9562126 2.0099112,3.421855 2.8546144,2.7722943 4.2994791,1.7670387 5.8119092,0.71477491 7.5788094,0.4573598 9.0714284,0.60948659 10.699455,0.77541405 13.441778,2.4048735 13.796131,2.6174851 14.150483,2.8300968 13.040178,2.0032738 11.788132,1.9796503 10.536086,1.9560267 8.1264881,2.38125 7.1815475,3.1844493 6.2366072,3.9876489 6.4019717,4.0348956 6.4019717,4.0348956 4.3963904,4.3534644 2.3840108,6.3657863 0.56696428,8.1926337 Z"
       id="path4581"
       inkscape:connector-curvature="0"
       sodipodi:nodetypes="cssscsscc" />
    <path
       style="fill:#cccccc;fill-opacity:1;stroke:none;stroke-width:0.26458332px;stroke-linecap:butt;stroke-linejoin:miter;stroke-opacity:1"
       d="m 2.1969866,3.4915551 c 0,0 1.4646578,-1.6772694 2.6930803,-2.2442337 1.2284226,-0.56696426 4.2286087,-0.73232884 5.2207961,-0.59058777 0.992188,0.14174105 3.827009,2.03162187 3.827009,2.03162187 0,0 -1.133929,-0.8740698 -2.763951,-0.7087052 C 9.5438988,2.1450149 8.953311,1.6489211 6.7327009,1.8615327 4.5120907,2.0741443 2.1969866,3.4915551 2.1969866,3.4915551 Z"
       id="path4583"
       inkscape:connector-curvature="0"
       sodipodi:nodetypes="csscszc" />
    <path
       style="display:inline;opacity:1;fill:none;fill-opacity:1;stroke:#7767c0;stroke-width:0.355;stroke-linecap:round;stroke-linejoin:miter;stroke-miterlimit:4;stroke-dasharray:none;stroke-opacity:1"
       d="M 8.7301183,0.52119537 A 7.9849189,7.9849189 0 0 0 1.9056843,3.9914054 7.9849189,7.9849189 0 0 0 3.9806374,15.089455 7.9849189,7.9849189 0 0 0 14.881177,13.278795 6.3067261,6.3067261 0 0 1 7.4353805,13.512155 6.3067261,6.3067261 0 0 1 5.7969257,4.7470155 6.3067261,6.3067261 0 0 1 14.089713,2.8161553 7.9849189,7.9849189 0 0 0 13.01428,1.9199653 l -0.01195,-0.008 A 7.9849189,7.9849189 0 0 0 8.7301183,0.52163537 Z"
       id="path4549-3"
       inkscape:connector-curvature="0" />
    <path
       style="fill:#248afd;fill-opacity:1;stroke:none;stroke-width:0.26458332px;stroke-linecap:butt;stroke-linejoin:miter;stroke-opacity:1"
       d="m 0.68508187,10.247879 c 0,0 0.51889063,2.60303 0.14174106,3.49628 -0.37714956,0.893249 -2.22061013,2.480469 -2.22061013,2.480469 0,0 0.66102291,0.271893 2.29148063,-0.212611 C 2.5281511,15.527512 4.2286086,14.35837 4.2286086,14.35837 L 1.984375,10.602232 Z"
       id="path4728"
       inkscape:connector-curvature="0"
       sodipodi:nodetypes="czczccc" />
    <path
       transform="translate(0,-280.06667)"
       style="display:inline;fill:#7767c0;fill-opacity:1;stroke:none;stroke-width:0.26458332px;stroke-linecap:butt;stroke-linejoin:miter;stroke-opacity:1"
       d="m 14.622954,293.55097 c 0,0 -1.795387,1.79539 -2.62221,2.22061 -0.826823,0.42522 -3.5199034,0.99219 -4.7719493,0.70871 -1.2520462,-0.28349 -3.543527,-1.6064 -3.5907739,-1.53553 -0.047247,0.0709 -0.023624,-0.11812 -1.063058,0.4016 -1.0394346,0.51971 -2.10249251,0.77957 -2.10249251,0.77957 0,0 1.06305801,-0.7087 1.39378711,-1.2048 0.3307292,-0.49609 0.3779762,-0.8032 0.3779762,-0.8032 0,0 0.7302211,-0.79892 1.5119046,-1.13392 1.4882813,-0.63784 1.3701637,-2.14977 1.3701637,-2.14977 0,0 1.2233176,2.35532 2.5040924,3.02382 1.2807748,0.66849 3.4962797,0.8032 4.5593377,0.63783 1.063058,-0.16536 2.433222,-0.94494 2.433222,-0.94494 z"
       id="path4760"
       inkscape:connector-curvature="0"
       sodipodi:nodetypes="csccccccsczccc" />
    <path
       style="fill:#f9548f;stroke:none;stroke-width:0.26458332px;stroke-linecap:butt;stroke-linejoin:miter;stroke-opacity:1;fill-opacity:1"
       d="m 5.9531249,12.06689 c 0,0 0.4960938,1.157552 2.0788691,1.771763 1.5827753,0.614211 3.071057,0.8032 4.110491,0.566964 1.039435,-0.236235 2.527716,-0.992187 2.527716,-0.992187 l -0.968564,1.133928 c 0,0 -0.8032,1.039435 -1.677269,1.27567 -0.874071,0.236235 -3.0001865,0.09449 -3.8033858,-0.4016 C 7.4177826,14.925335 5.9531249,12.06689 5.9531249,12.06689 Z"
       id="path4763"
       inkscape:connector-curvature="0" />
  </g>
</svg>
