<?xml version="1.0" encoding="UTF-8" standalone="no"?>
<svg
   xmlns:dc="http://purl.org/dc/elements/1.1/"
   xmlns:cc="http://creativecommons.org/ns#"
   xmlns:rdf="http://www.w3.org/1999/02/22-rdf-syntax-ns#"
   xmlns:svg="http://www.w3.org/2000/svg"
   xmlns="http://www.w3.org/2000/svg"
   xmlns:sodipodi="http://sodipodi.sourceforge.net/DTD/sodipodi-0.dtd"
   xmlns:inkscape="http://www.inkscape.org/namespaces/inkscape"
   sodipodi:docname="tsunami8-v5.svg"
   inkscape:version="1.0 (4035a4fb49, 2020-05-01)"
   id="svg8"
   version="1.1"
   viewBox="0 0 33.866666 33.866668"
   height="128"
   width="128">
  <defs
     id="defs2">
    <inkscape:path-effect
       lpeversion="1"
       is_visible="true"
       id="path-effect981"
       effect="spiro" />
    <inkscape:path-effect
       lpeversion="1"
       is_visible="true"
       id="path-effect965"
       effect="spiro" />
    <inkscape:path-effect
       lpeversion="1"
       is_visible="true"
       id="path-effect961"
       effect="spiro" />
    <inkscape:path-effect
       lpeversion="1"
       is_visible="true"
       id="path-effect957"
       effect="spiro" />
    <inkscape:path-effect
       lpeversion="1"
       is_visible="true"
       id="path-effect847"
       effect="spiro" />
    <inkscape:path-effect
       lpeversion="1"
       is_visible="true"
       id="path-effect843"
       effect="spiro" />
    <inkscape:path-effect
       lpeversion="1"
       is_visible="true"
       id="path-effect16"
       effect="spiro" />
    <inkscape:path-effect
       lpeversion="1"
       is_visible="true"
       id="path-effect12"
       effect="spiro" />
  </defs>
  <sodipodi:namedview
     inkscape:window-maximized="1"
     inkscape:window-y="28"
     inkscape:window-x="0"
     inkscape:window-height="1024"
     inkscape:window-width="1920"
     units="px"
     showgrid="false"
     inkscape:document-rotation="0"
     inkscape:current-layer="layer1"
     inkscape:document-units="mm"
     inkscape:cy="56.469863"
     inkscape:cx="130.01968"
     inkscape:zoom="4.4813772"
     inkscape:pageshadow="2"
     inkscape:pageopacity="0.0"
     borderopacity="1.0"
     bordercolor="#666666"
     pagecolor="#ffffff"
     id="base" />
  <metadata
     id="metadata5">
    <rdf:RDF>
      <cc:Work
         rdf:about="">
        <dc:format>image/svg+xml</dc:format>
        <dc:type
           rdf:resource="http://purl.org/dc/dcmitype/StillImage" />
        <dc:title></dc:title>
      </cc:Work>
    </rdf:RDF>
  </metadata>
  <g
     id="layer1"
     inkscape:groupmode="layer"
     inkscape:label="Layer 1">
    <path
       sodipodi:nodetypes="cssssc"
       inkscape:original-d="m 1.6459379,32.11068 c 3.7190149,-0.106263 3.0469041,-3.26137 6.7657944,-3.367759 3.7188907,-0.106386 0.756197,-4.688733 1.134201,-7.033192 0.3780064,-2.34446 5.3498967,-0.06415 8.0247527,-0.09631 2.674852,-0.03217 0.999383,5.375647 1.498979,8.063377 0.499598,2.68773 2.467335,2.409515 5.49602,2.503556"
       inkscape:path-effect="#path-effect12"
       id="path10"
       d="m 1.6459379,32.11068 c 1.3274521,0.426349 2.8196587,0.313409 4.067819,-0.307878 1.2481603,-0.621288 2.2378643,-1.74375 2.6979754,-3.059881 0.3944504,-1.128311 0.4047491,-2.348316 0.4508262,-3.5427 0.046077,-1.194384 0.1420148,-2.424844 0.6833748,-3.490492 0.3718016,-0.731878 0.9478887,-1.35852 1.6455997,-1.791049 0.697711,-0.432529 1.514979,-0.669766 2.335833,-0.678781 0.820854,-0.009 1.642947,0.210133 2.350763,0.62592 0.707816,0.415787 1.299403,1.026967 1.692557,1.7476 0.660442,1.21056 0.739132,2.643096 0.789328,4.021181 0.05019,1.378086 0.09835,2.806093 0.709651,4.042196 0.483003,0.976674 1.310775,1.778507 2.302327,2.23018 0.991551,0.451673 2.139803,0.549962 3.193693,0.273376"
       style="fill:none;stroke:#000000;stroke-width:0.953758;stroke-linecap:round;stroke-linejoin:miter;stroke-miterlimit:4;stroke-dasharray:none;stroke-opacity:1" />
    <path
       sodipodi:nodetypes="csssc"
       inkscape:original-d="m 12.803545,17.334478 c 0.967583,-1.631814 0.84173,0.258031 0.738609,-1.650527 -0.103119,-1.908552 -0.121969,-4.972257 0.845551,-6.6041316 1.935041,-3.263753 7.859051,0.5199955 12.251027,-0.8446649 2.195988,-0.6823289 1.356864,0.4409019 0.765221,1.5920457"
       inkscape:path-effect="#path-effect847"
       id="path845"
       d="m 12.803545,17.334478 c 0.320587,-0.512689 0.569922,-1.069863 0.738609,-1.650527 0.310559,-1.069023 0.344487,-2.195712 0.388065,-3.308078 0.04358,-1.112367 0.10198,-2.241126 0.457486,-3.2960536 0.407891,-1.2103727 1.2068,-2.2823603 2.238058,-3.0359414 1.031257,-0.7535812 2.288882,-1.18808 3.564509,-1.2525303 1.275626,-0.06445 2.565012,0.2386939 3.688358,0.8465346 1.123346,0.6078408 2.07898,1.5167864 2.760102,2.5972722 0.314676,0.4991808 0.571978,1.0344979 0.765221,1.5920457"
       style="fill:none;stroke:#000000;stroke-width:0.931118;stroke-linecap:round;stroke-linejoin:miter;stroke-miterlimit:4;stroke-dasharray:none;stroke-opacity:1" />
    <path
       inkscape:original-d="m 26.181315,27.10489 c 0.08358,-1.890432 0.166895,-3.781131 0.249946,-5.672093 0.08305,-1.890963 1.764528,-3.79669 2.646397,-5.695432"
       inkscape:path-effect="#path-effect957"
       id="path955"
       d="m 26.181315,27.10489 c -0.268346,-1.884418 -0.183116,-3.818583 0.249946,-5.672093 0.479653,-2.052922 1.386677,-4.00497 2.646397,-5.695432"
       style="fill:none;stroke:#000000;stroke-width:1.198;stroke-linecap:round;stroke-linejoin:miter;stroke-miterlimit:4;stroke-dasharray:none;stroke-opacity:1" />
    <path
       inkscape:original-d="m 29.077658,15.737365 c 0.750115,1.002351 1.499965,1.970434 2.249551,2.955253 0.749585,0.98482 0.845074,2.846535 1.267214,4.269405"
       inkscape:path-effect="#path-effect961"
       id="path959"
       d="m 29.077658,15.737365 c 0.905102,0.85285 1.668501,1.855733 2.249551,2.955253 0.698136,1.321083 1.131568,2.781368 1.267214,4.269405"
       style="fill:none;stroke:#000000;stroke-width:0.65;stroke-linecap:round;stroke-linejoin:miter;stroke-opacity:1;stroke-miterlimit:4;stroke-dasharray:none" />
    <path
       inkscape:original-d="m 29.077658,15.737365 c -1.721959,-0.133997 -3.444181,-0.268258 -5.166668,-0.402783 -1.722487,-0.134526 -1.708632,1.037134 -2.563345,1.555304"
       inkscape:path-effect="#path-effect965"
       id="path963"
       d="m 29.077658,15.737365 c -1.577261,-0.811461 -3.482707,-0.960006 -5.166668,-0.402783 -0.956943,0.316652 -1.840535,0.85277 -2.563345,1.555304"
       style="fill:none;stroke:#000000;stroke-width:0.65;stroke-linecap:round;stroke-linejoin:miter;stroke-opacity:1;stroke-miterlimit:4;stroke-dasharray:none" />
    <path
       inkscape:original-d="m 29.077658,15.737365 c 1.05115,-0.540404 2.102035,-1.081073 3.152656,-1.622006 1.05062,-0.540933 2.519285,1.384539 3.77853,2.076411"
       inkscape:path-effect="#path-effect981"
       id="path979"
       d="m 29.077658,15.737365 c 0.746837,-0.965056 1.933258,-1.575456 3.152656,-1.622006 0.754266,-0.02879 1.51544,0.151168 2.176953,0.514688 0.661513,0.36352 1.221506,0.909579 1.601577,1.561723"
       style="fill:none;stroke:#000000;stroke-width:0.65;stroke-linecap:round;stroke-linejoin:miter;stroke-opacity:1;stroke-miterlimit:4;stroke-dasharray:none" />
  </g>
</svg>
