<?xml version="1.0" encoding="UTF-8" standalone="no"?>
<!-- Created with Inkscape (http://www.inkscape.org/) -->

<svg
   xmlns:dc="http://purl.org/dc/elements/1.1/"
   xmlns:cc="http://creativecommons.org/ns#"
   xmlns:rdf="http://www.w3.org/1999/02/22-rdf-syntax-ns#"
   xmlns:svg="http://www.w3.org/2000/svg"
   xmlns="http://www.w3.org/2000/svg"
   xmlns:xlink="http://www.w3.org/1999/xlink"
   xmlns:sodipodi="http://sodipodi.sourceforge.net/DTD/sodipodi-0.dtd"
   xmlns:inkscape="http://www.inkscape.org/namespaces/inkscape"
   width="128"
   height="128"
   viewBox="0 0 16.933333 16.933333"
   version="1.1"
   id="svg1691"
   inkscape:version="0.92.5 (2060ec1f9f, 2020-04-08)"
   sodipodi:docname="tsunami8-v4b.svg"
   inkscape:export-filename="/home/michi/Projekte/Tsunami/static/icons/24.png"
   inkscape:export-xdpi="36.000004"
   inkscape:export-ydpi="36.000004">
  <defs
     id="defs1685">
    <linearGradient
       inkscape:collect="always"
       id="linearGradient4618">
      <stop
         style="stop-color:#454245;stop-opacity:1;"
         offset="0"
         id="stop4614" />
      <stop
         style="stop-color:#454245;stop-opacity:0;"
         offset="1"
         id="stop4616" />
    </linearGradient>
    <inkscape:path-effect
       effect="spiro"
       id="path-effect5929"
       is_visible="true" />
    <inkscape:path-effect
       effect="spiro"
       id="path-effect5929-7"
       is_visible="true" />
    <inkscape:path-effect
       effect="spiro"
       id="path-effect5929-3"
       is_visible="true" />
    <inkscape:path-effect
       effect="spiro"
       id="path-effect5929-2"
       is_visible="true" />
    <inkscape:path-effect
       effect="spiro"
       id="path-effect5929-2-1"
       is_visible="true" />
    <inkscape:path-effect
       effect="spiro"
       id="path-effect5929-2-7"
       is_visible="true" />
    <inkscape:path-effect
       effect="spiro"
       id="path-effect5929-28"
       is_visible="true" />
    <inkscape:path-effect
       effect="spiro"
       id="path-effect5929-7-9"
       is_visible="true" />
    <inkscape:path-effect
       effect="spiro"
       id="path-effect5929-3-7"
       is_visible="true" />
    <inkscape:path-effect
       effect="spiro"
       id="path-effect5929-2-3"
       is_visible="true" />
    <inkscape:path-effect
       effect="spiro"
       id="path-effect5929-2-1-6"
       is_visible="true" />
    <inkscape:path-effect
       effect="spiro"
       id="path-effect5929-2-7-1"
       is_visible="true" />
    <radialGradient
       inkscape:collect="always"
       xlink:href="#linearGradient4618"
       id="radialGradient4620"
       cx="12.296038"
       cy="292.12173"
       fx="12.296038"
       fy="292.12173"
       r="1.5709635"
       gradientTransform="matrix(1.1057936,0,0,0.460175,-0.44971718,140.39644)"
       gradientUnits="userSpaceOnUse" />
    <radialGradient
       inkscape:collect="always"
       xlink:href="#linearGradient4618"
       id="radialGradient4620-3"
       cx="12.296038"
       cy="292.12173"
       fx="12.296038"
       fy="292.12173"
       r="1.5709635"
       gradientTransform="matrix(1.1057936,0,0,0.46017501,-3.5032363,141.57256)"
       gradientUnits="userSpaceOnUse" />
  </defs>
  <sodipodi:namedview
     id="base"
     pagecolor="#ffffff"
     bordercolor="#666666"
     borderopacity="1.0"
     inkscape:pageopacity="0.0"
     inkscape:pageshadow="2"
     inkscape:zoom="2.8"
     inkscape:cx="-4.3135138"
     inkscape:cy="70.591818"
     inkscape:document-units="mm"
     inkscape:current-layer="layer2"
     showgrid="false"
     units="px"
     width="64px"
     inkscape:snap-global="false"
     inkscape:window-width="2560"
     inkscape:window-height="1375"
     inkscape:window-x="0"
     inkscape:window-y="28"
     inkscape:window-maximized="1"
     scale-x="0.5">
    <inkscape:grid
       type="xygrid"
       id="grid2239" />
  </sodipodi:namedview>
  <metadata
     id="metadata1688">
    <rdf:RDF>
      <cc:Work
         rdf:about="">
        <dc:format>image/svg+xml</dc:format>
        <dc:type
           rdf:resource="http://purl.org/dc/dcmitype/StillImage" />
        <dc:title></dc:title>
      </cc:Work>
    </rdf:RDF>
  </metadata>
  <g
     inkscape:label="island"
     inkscape:groupmode="layer"
     id="layer1"
     transform="translate(0,-263.13334)"
     style="display:inline">
    <ellipse
       style="opacity:1;fill:#e97e10;fill-opacity:1;stroke:none;stroke-width:1.4158597;stroke-linecap:round;stroke-linejoin:round;stroke-miterlimit:4;stroke-dasharray:none;stroke-opacity:1"
       id="path2241-6"
       cx="11.522788"
       cy="275.20688"
       rx="4.719532"
       ry="2.1237895" />
    <ellipse
       style="opacity:1;fill:#fecd38;fill-opacity:1;stroke:none;stroke-width:1.4158597;stroke-linecap:round;stroke-linejoin:round;stroke-miterlimit:4;stroke-dasharray:none;stroke-opacity:1"
       id="path2241"
       cx="11.529383"
       cy="275.39847"
       rx="4.719532"
       ry="2.1237895" />
    <path
       style="opacity:0.67000002;fill:url(#radialGradient4620);fill-opacity:1;stroke:none;stroke-width:0.33997068;stroke-linecap:round;stroke-linejoin:miter;stroke-miterlimit:4;stroke-dasharray:none;stroke-opacity:0.62376236"
       id="path4612"
       sodipodi:type="arc"
       sodipodi:cx="13.147163"
       sodipodi:cy="274.82352"
       sodipodi:rx="1.7371613"
       sodipodi:ry="0.72291815"
       sodipodi:start="5.3140563"
       sodipodi:end="5.3122761"
       sodipodi:open="true"
       d="m 14.130428,274.22755 a 1.7371613,0.72291815 0 0 1 0.449276,1.00489 1.7371613,0.72291815 0 0 1 -2.41453,0.18741 1.7371613,0.72291815 0 0 1 -0.451426,-1.00472 1.7371613,0.72291815 0 0 1 2.414129,-0.18831" />
    <path
       style="opacity:0.67000002;fill:url(#radialGradient4620-3);fill-opacity:1;stroke:none;stroke-width:0.33997068;stroke-linecap:round;stroke-linejoin:miter;stroke-miterlimit:4;stroke-dasharray:none;stroke-opacity:0.62376236"
       id="path4612-6"
       sodipodi:type="arc"
       sodipodi:cx="10.093642"
       sodipodi:cy="275.99966"
       sodipodi:rx="1.7371614"
       sodipodi:ry="0.72291815"
       sodipodi:start="5.3140563"
       sodipodi:end="5.3122761"
       sodipodi:open="true"
       d="m 11.076906,275.4037 a 1.7371614,0.72291815 0 0 1 0.449277,1.00488 1.7371614,0.72291815 0 0 1 -2.4145299,0.18742 1.7371614,0.72291815 0 0 1 -0.4514261,-1.00472 1.7371614,0.72291815 0 0 1 2.414128,-0.18831" />
  </g>
  <g
     inkscape:groupmode="layer"
     id="layer5"
     inkscape:label="tree-trunks"
     style="display:inline"
     transform="translate(0,16.933333)">
    <path
       style="display:inline;opacity:1;fill:none;stroke:#f9548f;stroke-width:0.83714908;stroke-linecap:round;stroke-linejoin:bevel;stroke-miterlimit:4;stroke-dasharray:none;stroke-opacity:1"
       d="m 13.331002,-11.239617 c -0.425276,0.936009 -0.815252,1.9525493 -0.921432,2.9656918 -0.106179,1.0131509 0.283516,2.630708 0.283516,2.630708"
       id="path2571-9-9"
       inkscape:connector-curvature="0"
       sodipodi:nodetypes="czc" />
    <path
       style="display:inline;fill:none;stroke:#e97e10;stroke-width:0.74540102;stroke-linecap:round;stroke-linejoin:bevel;stroke-miterlimit:4;stroke-dasharray:none;stroke-opacity:1"
       d="m 13.127648,-11.230208 c -0.425276,0.936008 -0.815252,1.95254 -0.921432,2.9656825 -0.106179,1.0131512 0.283517,2.6307173 0.283517,2.6307173"
       id="path2571-3"
       inkscape:connector-curvature="0"
       sodipodi:nodetypes="czc" />
    <path
       style="display:inline;opacity:1;fill:none;stroke:#f9548f;stroke-width:0.83714908;stroke-linecap:round;stroke-linejoin:bevel;stroke-miterlimit:4;stroke-dasharray:none;stroke-opacity:1"
       d="m 9.9773227,-9.9796787 c -0.425277,0.9360081 -0.8152532,1.9525488 -0.9214324,2.9656995 -0.1061793,1.013152 0.2835161,2.630709 0.2835161,2.630709"
       id="path2571-9"
       inkscape:connector-curvature="0"
       sodipodi:nodetypes="czc" />
    <path
       style="display:inline;fill:none;stroke:#e97e10;stroke-width:0.74540102;stroke-linecap:round;stroke-linejoin:bevel;stroke-miterlimit:4;stroke-dasharray:none;stroke-opacity:1"
       d="m 9.7308087,-9.9486934 c -0.4252769,0.9360081 -0.8152524,1.9525396 -0.9214318,2.9656902 -0.1061791,1.013152 0.2835163,2.630719 0.2835163,2.630719"
       id="path2571"
       inkscape:connector-curvature="0"
       sodipodi:nodetypes="czc" />
  </g>
  <g
     inkscape:groupmode="layer"
     id="layer3"
     inkscape:label="tree-leaves"
     style="display:inline"
     transform="translate(0,16.933333)">
    <path
       style="display:inline;fill:#79de7d;fill-opacity:1;stroke:#4bae4f;stroke-width:0.56069672;stroke-miterlimit:4;stroke-dasharray:none;stroke-opacity:1"
       d="m 34.425529,1021.2405 c -1.932897,-0.052 -3.877019,0.597 -5.391883,1.7986 -1.290737,1.0239 -2.266069,2.4399 -2.762522,4.0108 -0.496453,1.571 -0.512,3.2904 -0.04404,4.87 0.449294,-1.6934 1.277183,-3.2852 2.405621,-4.6254 1.545462,-1.8355 3.657398,-3.1871 5.97139,-3.8218"
       id="path5927-94"
       inkscape:path-effect="#path-effect5929-28"
       inkscape:original-d="m 34.425529,1021.2405 c 0,0 -3.921781,0.8735 -5.391883,1.7986 -1.470101,0.9251 -2.806557,8.8808 -2.806557,8.8808 0,0 1.603747,-2.7752 2.405621,-4.6254 0.801874,-1.8502 5.704099,-2.5267 5.97139,-3.8218"
       inkscape:connector-curvature="0"
       sodipodi:nodetypes="cscsc"
       transform="matrix(-0.34840296,0,0,0.36519275,25.605645,-385.06828)" />
    <path
       style="display:inline;fill:#79de7d;fill-opacity:1;stroke:#4bae4f;stroke-width:0.76868612;stroke-miterlimit:4;stroke-dasharray:none;stroke-opacity:1"
       d="m 34.425529,1021.2405 c -1.932897,-0.052 -3.877019,0.597 -5.391883,1.7986 -1.290737,1.0239 -2.266069,2.4399 -2.762522,4.0108 -0.496453,1.571 -0.512,3.2904 -0.04404,4.87 0.449294,-1.6934 1.277183,-3.2852 2.405621,-4.6254 1.545462,-1.8355 3.657398,-3.1871 5.97139,-3.8218"
       id="path5927-5-7"
       inkscape:path-effect="#path-effect5929-7-9"
       inkscape:original-d="m 34.425529,1021.2405 c 0,0 -3.921781,0.8735 -5.391883,1.7986 -1.470101,0.9251 -2.806557,8.8808 -2.806557,8.8808 0,0 1.603747,-2.7752 2.405621,-4.6254 0.801874,-1.8502 5.704099,-2.5267 5.97139,-3.8218"
       inkscape:connector-curvature="0"
       sodipodi:nodetypes="cscsc"
       transform="matrix(-0.16880096,0.19033809,0.19874597,0.1769356,-183.98124,-199.56826)" />
    <path
       style="display:inline;fill:#79de7d;fill-opacity:1;stroke:#4bae4f;stroke-width:0.76868612;stroke-miterlimit:4;stroke-dasharray:none;stroke-opacity:1"
       d="m 34.425529,1021.2405 c -1.932897,-0.052 -3.877019,0.597 -5.391883,1.7986 -1.290737,1.0239 -2.266069,2.4399 -2.762522,4.0108 -0.496453,1.571 -0.512,3.2904 -0.04404,4.87 0.449294,-1.6934 1.277183,-3.2852 2.405621,-4.6254 1.545462,-1.8355 3.657398,-3.1871 5.97139,-3.8218"
       id="path5927-56-8"
       inkscape:path-effect="#path-effect5929-3-7"
       inkscape:original-d="m 34.425529,1021.2405 c 0,0 -3.921781,0.8735 -5.391883,1.7986 -1.470101,0.9251 -2.806557,8.8808 -2.806557,8.8808 0,0 1.603747,-2.7752 2.405621,-4.6254 0.801874,-1.8502 5.704099,-2.5267 5.97139,-3.8218"
       inkscape:connector-curvature="0"
       sodipodi:nodetypes="cscsc"
       transform="matrix(-0.24228573,-0.07683583,-0.08022993,0.25396169,103.53235,-269.01364)" />
    <path
       style="display:inline;fill:#79de7d;fill-opacity:1;stroke:#4bae4f;stroke-width:0.69057834;stroke-miterlimit:4;stroke-dasharray:none;stroke-opacity:1"
       d="m 34.425529,1021.2405 c -1.932897,-0.052 -3.877019,0.597 -5.391883,1.7986 -1.290737,1.0239 -2.266069,2.4399 -2.762522,4.0108 -0.496453,1.571 -0.512,3.2904 -0.04404,4.87 0.449294,-1.6934 1.277183,-3.2852 2.405621,-4.6254 1.545462,-1.8355 3.657398,-3.1871 5.97139,-3.8218"
       id="path5927-9-4"
       inkscape:path-effect="#path-effect5929-2-3"
       inkscape:original-d="m 34.425529,1021.2405 c 0,0 -3.921781,0.8735 -5.391883,1.7986 -1.470101,0.9251 -2.806557,8.8808 -2.806557,8.8808 0,0 1.603747,-2.7752 2.405621,-4.6254 0.801874,-1.8502 5.704099,-2.5267 5.97139,-3.8218"
       inkscape:connector-curvature="0"
       sodipodi:nodetypes="cscsc"
       transform="matrix(0.27701195,0,0,0.30278584,3.6213842,-321.55355)" />
    <path
       style="display:inline;fill:#79de7d;fill-opacity:1;stroke:#4bae4f;stroke-width:0.68929535;stroke-miterlimit:4;stroke-dasharray:none;stroke-opacity:1"
       d="m 34.425529,1021.2405 c -1.932897,-0.052 -3.877019,0.597 -5.391883,1.7986 -1.290737,1.0239 -2.266069,2.4399 -2.762522,4.0108 -0.496453,1.571 -0.512,3.2904 -0.04404,4.87 0.449294,-1.6934 1.277183,-3.2852 2.405621,-4.6254 1.545462,-1.8355 3.657398,-3.1871 5.97139,-3.8218"
       id="path5927-9-0-0"
       inkscape:path-effect="#path-effect5929-2-7-1"
       inkscape:original-d="m 34.425529,1021.2405 c 0,0 -3.921781,0.8735 -5.391883,1.7986 -1.470101,0.9251 -2.806557,8.8808 -2.806557,8.8808 0,0 1.603747,-2.7752 2.405621,-4.6254 0.801874,-1.8502 5.704099,-2.5267 5.97139,-3.8218"
       inkscape:connector-curvature="0"
       sodipodi:nodetypes="cscsc"
       transform="matrix(0.10231182,0.27882792,-0.25583316,0.12563936,271.17005,-150.16136)" />
    <path
       style="display:inline;fill:#79de7d;fill-opacity:1;stroke:#4bae4f;stroke-width:0.67375058;stroke-miterlimit:4;stroke-dasharray:none;stroke-opacity:1"
       d="m 34.425529,1021.2405 c -1.932897,-0.052 -3.877019,0.597 -5.391883,1.7986 -1.290737,1.0239 -2.266069,2.4399 -2.762522,4.0108 -0.496453,1.571 -0.512,3.2904 -0.04404,4.87 0.449294,-1.6934 1.277183,-3.2852 2.405621,-4.6254 1.545462,-1.8355 3.657398,-3.1871 5.97139,-3.8218"
       id="path5927"
       inkscape:path-effect="#path-effect5929"
       inkscape:original-d="m 34.425529,1021.2405 c 0,0 -3.921781,0.8735 -5.391883,1.7986 -1.470101,0.9251 -2.806557,8.8808 -2.806557,8.8808 0,0 1.603747,-2.7752 2.405621,-4.6254 0.801874,-1.8502 5.704099,-2.5267 5.97139,-3.8218"
       inkscape:connector-curvature="0"
       sodipodi:nodetypes="cscsc"
       transform="matrix(0.24008552,0.19899466,-0.18032605,0.21756199,186.32003,-239.76867)" />
    <path
       style="display:inline;fill:#79de7d;fill-opacity:1;stroke:#4bae4f;stroke-width:0.76868612;stroke-miterlimit:4;stroke-dasharray:none;stroke-opacity:1"
       d="m 34.425529,1021.2405 c -1.932897,-0.052 -3.877019,0.597 -5.391883,1.7986 -1.290737,1.0239 -2.266069,2.4399 -2.762522,4.0108 -0.496453,1.571 -0.512,3.2904 -0.04404,4.87 0.449294,-1.6934 1.277183,-3.2852 2.405621,-4.6254 1.545462,-1.8355 3.657398,-3.1871 5.97139,-3.8218"
       id="path5927-5"
       inkscape:path-effect="#path-effect5929-7"
       inkscape:original-d="m 34.425529,1021.2405 c 0,0 -3.921781,0.8735 -5.391883,1.7986 -1.470101,0.9251 -2.806557,8.8808 -2.806557,8.8808 0,0 1.603747,-2.7752 2.405621,-4.6254 0.801874,-1.8502 5.704099,-2.5267 5.97139,-3.8218"
       inkscape:connector-curvature="0"
       sodipodi:nodetypes="cscsc"
       transform="matrix(-0.16880096,0.19033809,0.19874597,0.1769356,-187.37808,-198.28675)" />
    <path
       style="display:inline;fill:#79de7d;fill-opacity:1;stroke:#4bae4f;stroke-width:0.76868612;stroke-miterlimit:4;stroke-dasharray:none;stroke-opacity:1"
       d="m 34.425529,1021.2405 c -1.932897,-0.052 -3.877019,0.597 -5.391883,1.7986 -1.290737,1.0239 -2.266069,2.4399 -2.762522,4.0108 -0.496453,1.571 -0.512,3.2904 -0.04404,4.87 0.449294,-1.6934 1.277183,-3.2852 2.405621,-4.6254 1.545462,-1.8355 3.657398,-3.1871 5.97139,-3.8218"
       id="path5927-56"
       inkscape:path-effect="#path-effect5929-3"
       inkscape:original-d="m 34.425529,1021.2405 c 0,0 -3.921781,0.8735 -5.391883,1.7986 -1.470101,0.9251 -2.806557,8.8808 -2.806557,8.8808 0,0 1.603747,-2.7752 2.405621,-4.6254 0.801874,-1.8502 5.704099,-2.5267 5.97139,-3.8218"
       inkscape:connector-curvature="0"
       sodipodi:nodetypes="cscsc"
       transform="matrix(0.25417486,0.00112485,-0.00147288,0.26632913,2.5104759,-282.86381)" />
    <path
       style="display:inline;fill:#79de7d;fill-opacity:1;stroke:#4bae4f;stroke-width:0.69057834;stroke-miterlimit:4;stroke-dasharray:none;stroke-opacity:1"
       d="m 34.425529,1021.2405 c -1.932897,-0.052 -3.877019,0.597 -5.391883,1.7986 -1.290737,1.0239 -2.266069,2.4399 -2.762522,4.0108 -0.496453,1.571 -0.512,3.2904 -0.04404,4.87 0.449294,-1.6934 1.277183,-3.2852 2.405621,-4.6254 1.545462,-1.8355 3.657398,-3.1871 5.97139,-3.8218"
       id="path5927-9"
       inkscape:path-effect="#path-effect5929-2"
       inkscape:original-d="m 34.425529,1021.2405 c 0,0 -3.921781,0.8735 -5.391883,1.7986 -1.470101,0.9251 -2.806557,8.8808 -2.806557,8.8808 0,0 1.603747,-2.7752 2.405621,-4.6254 0.801874,-1.8502 5.704099,-2.5267 5.97139,-3.8218"
       inkscape:connector-curvature="0"
       sodipodi:nodetypes="cscsc"
       transform="matrix(-0.27701195,0,0,0.30278584,19.528314,-320.2936)" />
    <path
       style="display:inline;fill:#79de7d;fill-opacity:1;stroke:#4bae4f;stroke-width:0.65220624;stroke-miterlimit:4;stroke-dasharray:none;stroke-opacity:1"
       d="m 34.425529,1021.2405 c -1.932897,-0.052 -3.877019,0.597 -5.391883,1.7986 -1.290737,1.0239 -2.266069,2.4399 -2.762522,4.0108 -0.496453,1.571 -0.512,3.2904 -0.04404,4.87 0.449294,-1.6934 1.277183,-3.2852 2.405621,-4.6254 1.545462,-1.8355 3.657398,-3.1871 5.97139,-3.8218"
       id="path5927-9-0"
       inkscape:path-effect="#path-effect5929-2-7"
       inkscape:original-d="m 34.425529,1021.2405 c 0,0 -3.921781,0.8735 -5.391883,1.7986 -1.470101,0.9251 -2.806557,8.8808 -2.806557,8.8808 0,0 1.603747,-2.7752 2.405621,-4.6254 0.801874,-1.8502 5.704099,-2.5267 5.97139,-3.8218"
       inkscape:connector-curvature="0"
       sodipodi:nodetypes="cscsc"
       transform="matrix(0.0553916,0.31777215,-0.28059221,0.0879328,294.87136,-111.63586)" />
  </g>
  <g
     inkscape:groupmode="layer"
     id="layer2"
     inkscape:label="wave"
     style="display:inline"
     transform="translate(0,16.933333)">
    <path
       style="display:inline;opacity:1;fill:#248afd;fill-opacity:1;stroke:none;stroke-width:0.34024101;stroke-linecap:round;stroke-linejoin:miter;stroke-miterlimit:4;stroke-dasharray:none;stroke-opacity:1"
       d="m 10.052619,-16.120188 a 7.6488539,7.6488539 0 0 0 -6.5372108,3.324158 7.6488539,7.6488539 0 0 0 1.9876236,10.6309618 7.6488539,7.6488539 0 0 0 10.4417642,-1.734454 6.0412919,6.0412919 0 0 1 -7.1324226,0.223538 6.0412919,6.0412919 0 0 1 -1.5694963,-8.3962378 6.0412919,6.0412919 0 0 1 7.9437649,-1.849595 7.6488539,7.6488539 0 0 0 -1.03017,-0.858471 l -0.01145,-0.0077 a 7.6488539,7.6488539 0 0 0 -4.092403,-1.331818 z"
       id="path4549"
       inkscape:connector-curvature="0" />
    <path
       style="fill:#50beee;fill-opacity:1;stroke:none;stroke-width:0.25344768px;stroke-linecap:butt;stroke-linejoin:miter;stroke-opacity:1"
       d="m 2.2453912,-8.792431 c 0.09077,-1.237319 0.3361553,-2.061136 0.7693948,-3.100208 0.6128221,-1.469781 1.4219739,-2.092003 2.8060279,-3.05495 1.4487757,-1.007977 3.1413116,-1.254558 4.5711101,-1.108834 1.559508,0.158944 4.186413,1.719824 4.525852,1.923487 0.339439,0.203664 -0.724136,-0.58836 -1.923487,-0.61099 -1.199351,-0.02263 -3.5075352,0.384698 -4.4127057,1.154092 -0.9051701,0.769395 -0.7467654,0.814654 -0.7467654,0.814654 -1.9211715,0.305161 -3.8488551,2.232789 -5.5894267,3.982749 z"
       id="path4581"
       inkscape:connector-curvature="0"
       sodipodi:nodetypes="cssscsscc" />
    <path
       style="fill:#cccccc;fill-opacity:1;stroke:none;stroke-width:0.25344768px;stroke-linecap:butt;stroke-linejoin:miter;stroke-opacity:1"
       d="m 3.80681,-13.295653 c 0,0 1.6034661,-1.581621 2.7801874,-2.124723 0.5883608,-0.271551 1.8481478,-0.676353 3.0657068,-0.714539 1.2175588,-0.03819 2.3928898,0.290243 2.8457468,0.449486 0.908668,0.319523 2.655327,1.662142 2.655327,1.662142 0,0 -1.186431,-0.795522 -2.747849,-0.720639 -1.567632,0.07518 -2.127151,-0.316809 -4.2543014,-0.113146 -2.1271504,0.203663 -4.3448176,1.561419 -4.3448176,1.561419 z"
       id="path4583"
       inkscape:connector-curvature="0"
       sodipodi:nodetypes="cssscszc" />
    <path
       style="fill:#248afd;fill-opacity:1;stroke:none;stroke-width:0.25344768px;stroke-linecap:butt;stroke-linejoin:miter;stroke-opacity:1"
       d="m 2.3585375,-6.8236862 c 0,0 0.4970518,2.493476 0.1357756,3.349131 -0.3612763,0.855655 -2.12715026,2.376072 -2.12715026,2.376072 0,0 0.63320216,0.26044997 2.19503796,-0.203662 1.5618358,-0.464114 3.1907254,-1.584049 3.1907254,-1.584049 l -2.1497795,-3.598052 z"
       id="path4728"
       inkscape:connector-curvature="0"
       sodipodi:nodetypes="czczccc" />
    <path
       style="display:inline;fill:#7767c0;fill-opacity:1;stroke:none;stroke-width:0.25344768px;stroke-linecap:butt;stroke-linejoin:miter;stroke-opacity:1"
       d="m 15.709801,-3.7234772 c 0,0 -0.288215,0.500827 -0.817174,0.981699 -0.528959,0.480872 -1.298662,0.941789 -1.694674,1.145451 -0.792024,0.407324 -3.3717609,0.95043097 -4.571111,0.67888197 C 8.0271666,-1.0532242 7.2258164,-1.3434272 6.5214808,-1.6856942 c -0.7043357,-0.342267 -1.3116569,-0.736597 -1.3342861,-0.702654 -0.045259,0.06792 -0.02263,-0.113149 -1.0183166,0.384697 -0.9956874,0.497837 -2.0140039,0.74676 -2.0140039,0.74676 0,0 1.1930979,-0.739152 1.7877113,-1.357754 0.5946134,-0.618602 1.1877656,-1.450441 1.6121046,-2.382567 0.424339,-0.932127 0.7413381,-2.7995584 0.7413381,-2.7995584 0,0 0.2194127,1.1014944 0.7732183,2.1246314 0.5538056,1.023127 1.442004,1.967906 2.0554391,2.288089 1.2268664,0.640355 3.2359844,0.724134 4.2543014,0.565724 1.018316,-0.158401 2.330814,-0.90517 2.330814,-0.90517 v 1e-5 z"
       id="path4760"
       inkscape:connector-curvature="0"
       sodipodi:nodetypes="csscsccczzcsscccc" />
    <path
       style="fill:#f9548f;fill-opacity:1;stroke:none;stroke-width:0.25344768px;stroke-linecap:butt;stroke-linejoin:miter;stroke-opacity:1"
       d="m 6.8725777,-6.0157992 c 0,0 1.1376515,1.924731 2.5893144,2.632071 1.0176969,0.495885 1.6532139,0.700916 2.6739709,0.726561 1.020758,0.02564 3.214362,-0.687528 3.214362,-0.687528 l -1.371945,1.340035 c 0,0 -0.329265,0.397799 -1.196486,0.411129 -1.184032,0.126476 -2.9178743,-0.284521 -3.7860416,-1.004452 -0.8681672,-0.719936 -1.2963503,-1.669674 -1.2963503,-1.669674 z"
       id="path4763"
       inkscape:connector-curvature="0"
       sodipodi:nodetypes="cscccczcc" />
    <path
       style="display:inline;opacity:1;fill:none;fill-opacity:1;stroke:#7767c0;stroke-width:0.30000001;stroke-linecap:round;stroke-linejoin:miter;stroke-miterlimit:4;stroke-dasharray:none;stroke-opacity:1"
       d="m 10.087773,-16.140999 c -2.6028085,-0.07697 -5.0659784,1.175506 -6.5371684,3.324025 -1.2965197,1.89643 -1.6602029,4.2751701 -1.022701,6.4787578 0.191775,0.863332 0.2070401,1.164073 0.2250796,1.537298 0.021488,0.444578 -0.08111,1.24644 -0.4450361,1.85171 -0.4775087,0.794177 -1.86603691,1.787859 -1.86603691,1.787859 0,0 0.63355541,0.26066097 2.19539141,-0.203451 0.9195873,-0.273264 1.8536776,-0.770547 2.4735901,-1.13606 0.138715,0.109853 0.2812001,0.21486 0.4271982,0.31483 3.3832761,2.31237597 7.9878771,1.54748797 10.4418471,-1.734534 -2.074792,1.620863 -4.960368,1.711382 -7.1326718,0.223748 -2.7512786,-1.885721 -3.4537219,-5.644347 -1.5691976,-8.3964458 1.7694293,-2.580453 5.2162704,-3.382933 7.9435074,-1.849376 -0.317586,-0.315722 -0.662286,-0.602944 -1.030127,-0.858356 l -0.01139,-0.0079 c -1.208544,-0.826365 -2.628863,-1.288523 -4.092285,-1.33159 z"
       id="path4549-3"
       inkscape:connector-curvature="0"
       sodipodi:nodetypes="cccsscccccccccccc" />
    <path
       style="display:inline;opacity:1;fill:none;fill-opacity:1;stroke:#6da6c9;stroke-width:0.30000001;stroke-linecap:round;stroke-linejoin:miter;stroke-miterlimit:4;stroke-dasharray:none;stroke-opacity:1"
       d="m 7.7201688,-12.659031 c 1.686747,-1.942618 4.7969532,-2.815968 7.5241902,-1.282411 -0.317586,-0.315723 -0.662286,-0.602945 -1.030127,-0.858356 l -0.01139,-0.0079 c -1.208544,-0.826366 -2.628863,-1.288524 -4.092285,-1.331591 v -4.95e-4 c -3.9493488,-0.206898 -7.6468472,2.959081 -7.8778028,7.2750583"
       id="path4549-3-7"
       inkscape:connector-curvature="0"
       sodipodi:nodetypes="ccccccc" />
    <path
       style="display:inline;opacity:1;fill:none;fill-opacity:1;stroke:#a5a5a5;stroke-width:0.30000001;stroke-linecap:round;stroke-linejoin:miter;stroke-miterlimit:4;stroke-dasharray:none;stroke-opacity:1"
       d="m 11.611359,-14.685856 c 1.419477,-0.08008 2.069811,-0.01451 3.602688,0.725587 -0.317586,-0.315723 -0.662287,-0.602945 -1.030128,-0.858356 l -0.01139,-0.0079 c -1.208544,-0.826366 -2.628863,-1.288524 -4.092285,-1.331591 v -4.95e-4 c -1.4353446,-0.0064 -3.8837053,0.323855 -5.860265,2.51838"
       id="path4549-3-7-5"
       inkscape:connector-curvature="0"
       sodipodi:nodetypes="ccccccc" />
  </g>
  <g
     inkscape:groupmode="layer"
     id="layer4"
     inkscape:label="palette"
     transform="translate(0,16.933333)" />
</svg>
