<?xml version="1.0" encoding="UTF-8" standalone="no"?>
<!-- Created with Inkscape (http://www.inkscape.org/) -->

<svg
   xmlns:dc="http://purl.org/dc/elements/1.1/"
   xmlns:cc="http://creativecommons.org/ns#"
   xmlns:rdf="http://www.w3.org/1999/02/22-rdf-syntax-ns#"
   xmlns:svg="http://www.w3.org/2000/svg"
   xmlns="http://www.w3.org/2000/svg"
   xmlns:xlink="http://www.w3.org/1999/xlink"
   xmlns:sodipodi="http://sodipodi.sourceforge.net/DTD/sodipodi-0.dtd"
   xmlns:inkscape="http://www.inkscape.org/namespaces/inkscape"
   width="64"
   height="64"
   viewBox="0 0 16.933333 16.933333"
   version="1.1"
   id="svg1691"
   inkscape:version="0.92.5 (2060ec1f9f, 2020-04-08)"
   sodipodi:docname="tsunami8-v4.svg"
   inkscape:export-filename="/home/michi/Projekte/Tsunami/static/Icons/128.png"
   inkscape:export-xdpi="192"
   inkscape:export-ydpi="192">
  <defs
     id="defs1685">
    <linearGradient
       inkscape:collect="always"
       id="linearGradient4618">
      <stop
         style="stop-color:#454245;stop-opacity:1;"
         offset="0"
         id="stop4614" />
      <stop
         style="stop-color:#454245;stop-opacity:0;"
         offset="1"
         id="stop4616" />
    </linearGradient>
    <inkscape:path-effect
       effect="spiro"
       id="path-effect5929"
       is_visible="true" />
    <inkscape:path-effect
       effect="spiro"
       id="path-effect5929-7"
       is_visible="true" />
    <inkscape:path-effect
       effect="spiro"
       id="path-effect5929-3"
       is_visible="true" />
    <inkscape:path-effect
       effect="spiro"
       id="path-effect5929-2"
       is_visible="true" />
    <inkscape:path-effect
       effect="spiro"
       id="path-effect5929-2-1"
       is_visible="true" />
    <inkscape:path-effect
       effect="spiro"
       id="path-effect5929-2-7"
       is_visible="true" />
    <inkscape:path-effect
       effect="spiro"
       id="path-effect5929-28"
       is_visible="true" />
    <inkscape:path-effect
       effect="spiro"
       id="path-effect5929-7-9"
       is_visible="true" />
    <inkscape:path-effect
       effect="spiro"
       id="path-effect5929-3-7"
       is_visible="true" />
    <inkscape:path-effect
       effect="spiro"
       id="path-effect5929-2-3"
       is_visible="true" />
    <inkscape:path-effect
       effect="spiro"
       id="path-effect5929-2-1-6"
       is_visible="true" />
    <inkscape:path-effect
       effect="spiro"
       id="path-effect5929-2-7-1"
       is_visible="true" />
    <radialGradient
       inkscape:collect="always"
       xlink:href="#linearGradient4618"
       id="radialGradient4620"
       cx="12.296038"
       cy="292.12173"
       fx="12.296038"
       fy="292.12173"
       r="1.5709635"
       gradientTransform="matrix(1.1057936,0,0,0.460175,-0.54421123,157.6416)"
       gradientUnits="userSpaceOnUse" />
    <radialGradient
       inkscape:collect="always"
       xlink:href="#linearGradient4618"
       id="radialGradient4620-3"
       cx="12.296038"
       cy="292.12173"
       fx="12.296038"
       fy="292.12173"
       r="1.5709635"
       gradientTransform="matrix(1.1057936,0,0,0.46017501,-3.5977303,158.81772)"
       gradientUnits="userSpaceOnUse" />
  </defs>
  <sodipodi:namedview
     id="base"
     pagecolor="#ffffff"
     bordercolor="#666666"
     borderopacity="1.0"
     inkscape:pageopacity="0.0"
     inkscape:pageshadow="2"
     inkscape:zoom="7.919596"
     inkscape:cx="15.16038"
     inkscape:cy="41.474922"
     inkscape:document-units="mm"
     inkscape:current-layer="layer2"
     showgrid="false"
     units="px"
     width="64px"
     inkscape:snap-global="false"
     inkscape:window-width="2560"
     inkscape:window-height="1375"
     inkscape:window-x="0"
     inkscape:window-y="28"
     inkscape:window-maximized="1">
    <inkscape:grid
       type="xygrid"
       id="grid2239" />
  </sodipodi:namedview>
  <metadata
     id="metadata1688">
    <rdf:RDF>
      <cc:Work
         rdf:about="">
        <dc:format>image/svg+xml</dc:format>
        <dc:type
           rdf:resource="http://purl.org/dc/dcmitype/StillImage" />
        <dc:title />
      </cc:Work>
    </rdf:RDF>
  </metadata>
  <g
     inkscape:label="island"
     inkscape:groupmode="layer"
     id="layer1"
     transform="translate(0,-280.06667)"
     style="display:inline">
    <ellipse
       style="opacity:1;fill:#9d6830;fill-opacity:1;stroke:none;stroke-width:1.4158597;stroke-linecap:round;stroke-linejoin:round;stroke-miterlimit:4;stroke-dasharray:none;stroke-opacity:1"
       id="path2241-6"
       cx="11.428294"
       cy="292.45206"
       rx="4.719532"
       ry="2.1237895" />
    <ellipse
       style="opacity:1;fill:#d5822d;fill-opacity:1;stroke:none;stroke-width:1.4158597;stroke-linecap:round;stroke-linejoin:round;stroke-miterlimit:4;stroke-dasharray:none;stroke-opacity:1"
       id="path2241"
       cx="11.434889"
       cy="292.64365"
       rx="4.719532"
       ry="2.1237895" />
    <path
       style="opacity:0.67000002;fill:url(#radialGradient4620);fill-opacity:1;stroke:none;stroke-width:0.33997068;stroke-linecap:round;stroke-linejoin:miter;stroke-miterlimit:4;stroke-dasharray:none;stroke-opacity:0.62376236"
       id="path4612"
       sodipodi:type="arc"
       sodipodi:cx="13.05267"
       sodipodi:cy="292.0687"
       sodipodi:rx="1.7371613"
       sodipodi:ry="0.72291815"
       sodipodi:start="5.3140563"
       sodipodi:end="5.3122761"
       sodipodi:open="true"
       d="m 14.035934,291.47273 a 1.7371613,0.72291815 0 0 1 0.449277,1.00488 1.7371613,0.72291815 0 0 1 -2.414531,0.18742 1.7371613,0.72291815 0 0 1 -0.451426,-1.00472 1.7371613,0.72291815 0 0 1 2.414129,-0.18831" />
    <path
       style="opacity:0.67000002;fill:url(#radialGradient4620-3);fill-opacity:1;stroke:none;stroke-width:0.33997068;stroke-linecap:round;stroke-linejoin:miter;stroke-miterlimit:4;stroke-dasharray:none;stroke-opacity:0.62376236"
       id="path4612-6"
       sodipodi:type="arc"
       sodipodi:cx="9.9991484"
       sodipodi:cy="293.24484"
       sodipodi:rx="1.7371614"
       sodipodi:ry="0.72291815"
       sodipodi:start="5.3140563"
       sodipodi:end="5.3122761"
       sodipodi:open="true"
       d="m 10.982413,292.64887 a 1.7371614,0.72291815 0 0 1 0.449277,1.00489 1.7371614,0.72291815 0 0 1 -2.4145308,0.18742 1.7371614,0.72291815 0 0 1 -0.4514261,-1.00473 1.7371614,0.72291815 0 0 1 2.4141289,-0.1883" />
  </g>
  <g
     inkscape:groupmode="layer"
     id="layer5"
     inkscape:label="tree-trunks"
     style="display:inline">
    <path
       style="display:inline;opacity:1;fill:none;stroke:#f9548f;stroke-width:0.83714908;stroke-linecap:round;stroke-linejoin:bevel;stroke-miterlimit:4;stroke-dasharray:none;stroke-opacity:1"
       d="m 13.236508,6.0055467 c -0.425276,0.9360081 -0.815252,1.9525488 -0.921432,2.9656913 -0.106179,1.0131509 0.283516,2.630708 0.283516,2.630708"
       id="path2571-9-9"
       inkscape:connector-curvature="0"
       sodipodi:nodetypes="czc" />
    <path
       style="display:inline;fill:none;stroke:#986024;stroke-width:0.74540102;stroke-linecap:round;stroke-linejoin:bevel;stroke-miterlimit:4;stroke-dasharray:none;stroke-opacity:1"
       d="m 13.033154,6.0149555 c -0.425276,0.9360082 -0.815252,1.9525397 -0.921432,2.9656822 -0.106179,1.0131512 0.283517,2.6307173 0.283517,2.6307173"
       id="path2571-3"
       inkscape:connector-curvature="0"
       sodipodi:nodetypes="czc" />
    <path
       style="display:inline;opacity:1;fill:none;stroke:#f9548f;stroke-width:0.83714908;stroke-linecap:round;stroke-linejoin:bevel;stroke-miterlimit:4;stroke-dasharray:none;stroke-opacity:1"
       d="M 9.8828287,7.2654845 C 9.4575517,8.2014926 9.0675755,9.2180333 8.9613963,10.231184 8.855217,11.244336 9.2449124,12.861893 9.2449124,12.861893"
       id="path2571-9"
       inkscape:connector-curvature="0"
       sodipodi:nodetypes="czc" />
    <path
       style="display:inline;fill:none;stroke:#986024;stroke-width:0.74540102;stroke-linecap:round;stroke-linejoin:bevel;stroke-miterlimit:4;stroke-dasharray:none;stroke-opacity:1"
       d="M 9.6363147,7.2964698 C 9.2110378,8.2324779 8.8210623,9.2490094 8.7148829,10.26216 c -0.1061791,1.013152 0.2835163,2.630719 0.2835163,2.630719"
       id="path2571"
       inkscape:connector-curvature="0"
       sodipodi:nodetypes="czc" />
  </g>
  <g
     inkscape:groupmode="layer"
     id="layer3"
     inkscape:label="tree-leaves"
     style="display:inline">
    <path
       style="display:inline;fill:#478d4a;fill-opacity:1;stroke:#327334;stroke-width:0.5606967;stroke-miterlimit:4;stroke-dasharray:none;stroke-opacity:1"
       d="m 34.425529,1021.2405 c -1.932897,-0.052 -3.877019,0.597 -5.391883,1.7986 -1.290737,1.0239 -2.266069,2.4399 -2.762522,4.0108 -0.496453,1.571 -0.512,3.2904 -0.04404,4.87 0.449294,-1.6934 1.277183,-3.2852 2.405621,-4.6254 1.545462,-1.8355 3.657398,-3.1871 5.97139,-3.8218"
       id="path5927-94"
       inkscape:path-effect="#path-effect5929-28"
       inkscape:original-d="m 34.425529,1021.2405 c 0,0 -3.921781,0.8735 -5.391883,1.7986 -1.470101,0.9251 -2.806557,8.8808 -2.806557,8.8808 0,0 1.603747,-2.7752 2.405621,-4.6254 0.801874,-1.8502 5.704099,-2.5267 5.97139,-3.8218"
       inkscape:connector-curvature="0"
       sodipodi:nodetypes="cscsc"
       transform="matrix(-0.34840296,0,0,0.36519275,25.511151,-367.82312)" />
    <path
       style="display:inline;fill:#478d4a;fill-opacity:1;stroke:#327334;stroke-width:0.76868613;stroke-miterlimit:4;stroke-dasharray:none;stroke-opacity:1"
       d="m 34.425529,1021.2405 c -1.932897,-0.052 -3.877019,0.597 -5.391883,1.7986 -1.290737,1.0239 -2.266069,2.4399 -2.762522,4.0108 -0.496453,1.571 -0.512,3.2904 -0.04404,4.87 0.449294,-1.6934 1.277183,-3.2852 2.405621,-4.6254 1.545462,-1.8355 3.657398,-3.1871 5.97139,-3.8218"
       id="path5927-5-7"
       inkscape:path-effect="#path-effect5929-7-9"
       inkscape:original-d="m 34.425529,1021.2405 c 0,0 -3.921781,0.8735 -5.391883,1.7986 -1.470101,0.9251 -2.806557,8.8808 -2.806557,8.8808 0,0 1.603747,-2.7752 2.405621,-4.6254 0.801874,-1.8502 5.704099,-2.5267 5.97139,-3.8218"
       inkscape:connector-curvature="0"
       sodipodi:nodetypes="cscsc"
       transform="matrix(-0.16880096,0.19033809,0.19874597,0.1769356,-184.07573,-182.3231)" />
    <path
       style="display:inline;fill:#478d4a;fill-opacity:1;stroke:#327334;stroke-width:0.76868613;stroke-miterlimit:4;stroke-dasharray:none;stroke-opacity:1"
       d="m 34.425529,1021.2405 c -1.932897,-0.052 -3.877019,0.597 -5.391883,1.7986 -1.290737,1.0239 -2.266069,2.4399 -2.762522,4.0108 -0.496453,1.571 -0.512,3.2904 -0.04404,4.87 0.449294,-1.6934 1.277183,-3.2852 2.405621,-4.6254 1.545462,-1.8355 3.657398,-3.1871 5.97139,-3.8218"
       id="path5927-56-8"
       inkscape:path-effect="#path-effect5929-3-7"
       inkscape:original-d="m 34.425529,1021.2405 c 0,0 -3.921781,0.8735 -5.391883,1.7986 -1.470101,0.9251 -2.806557,8.8808 -2.806557,8.8808 0,0 1.603747,-2.7752 2.405621,-4.6254 0.801874,-1.8502 5.704099,-2.5267 5.97139,-3.8218"
       inkscape:connector-curvature="0"
       sodipodi:nodetypes="cscsc"
       transform="matrix(-0.24228573,-0.07683583,-0.08022993,0.25396169,103.43786,-251.76848)" />
    <path
       style="display:inline;fill:#478d4a;fill-opacity:1;stroke:#327334;stroke-width:0.69057835;stroke-miterlimit:4;stroke-dasharray:none;stroke-opacity:1"
       d="m 34.425529,1021.2405 c -1.932897,-0.052 -3.877019,0.597 -5.391883,1.7986 -1.290737,1.0239 -2.266069,2.4399 -2.762522,4.0108 -0.496453,1.571 -0.512,3.2904 -0.04404,4.87 0.449294,-1.6934 1.277183,-3.2852 2.405621,-4.6254 1.545462,-1.8355 3.657398,-3.1871 5.97139,-3.8218"
       id="path5927-9-4"
       inkscape:path-effect="#path-effect5929-2-3"
       inkscape:original-d="m 34.425529,1021.2405 c 0,0 -3.921781,0.8735 -5.391883,1.7986 -1.470101,0.9251 -2.806557,8.8808 -2.806557,8.8808 0,0 1.603747,-2.7752 2.405621,-4.6254 0.801874,-1.8502 5.704099,-2.5267 5.97139,-3.8218"
       inkscape:connector-curvature="0"
       sodipodi:nodetypes="cscsc"
       transform="matrix(0.27701195,0,0,0.30278584,3.5268902,-304.30839)" />
    <path
       style="display:inline;fill:#478d4a;fill-opacity:1;stroke:#327334;stroke-width:0.68929537;stroke-miterlimit:4;stroke-dasharray:none;stroke-opacity:1"
       d="m 34.425529,1021.2405 c -1.932897,-0.052 -3.877019,0.597 -5.391883,1.7986 -1.290737,1.0239 -2.266069,2.4399 -2.762522,4.0108 -0.496453,1.571 -0.512,3.2904 -0.04404,4.87 0.449294,-1.6934 1.277183,-3.2852 2.405621,-4.6254 1.545462,-1.8355 3.657398,-3.1871 5.97139,-3.8218"
       id="path5927-9-0-0"
       inkscape:path-effect="#path-effect5929-2-7-1"
       inkscape:original-d="m 34.425529,1021.2405 c 0,0 -3.921781,0.8735 -5.391883,1.7986 -1.470101,0.9251 -2.806557,8.8808 -2.806557,8.8808 0,0 1.603747,-2.7752 2.405621,-4.6254 0.801874,-1.8502 5.704099,-2.5267 5.97139,-3.8218"
       inkscape:connector-curvature="0"
       sodipodi:nodetypes="cscsc"
       transform="matrix(0.10231182,0.27882792,-0.25583316,0.12563936,271.07556,-132.9162)" />
    <path
       style="display:inline;fill:#478d4a;fill-opacity:1;stroke:#327334;stroke-width:0.67375057;stroke-miterlimit:4;stroke-dasharray:none;stroke-opacity:1"
       d="m 34.425529,1021.2405 c -1.932897,-0.052 -3.877019,0.597 -5.391883,1.7986 -1.290737,1.0239 -2.266069,2.4399 -2.762522,4.0108 -0.496453,1.571 -0.512,3.2904 -0.04404,4.87 0.449294,-1.6934 1.277183,-3.2852 2.405621,-4.6254 1.545462,-1.8355 3.657398,-3.1871 5.97139,-3.8218"
       id="path5927"
       inkscape:path-effect="#path-effect5929"
       inkscape:original-d="m 34.425529,1021.2405 c 0,0 -3.921781,0.8735 -5.391883,1.7986 -1.470101,0.9251 -2.806557,8.8808 -2.806557,8.8808 0,0 1.603747,-2.7752 2.405621,-4.6254 0.801874,-1.8502 5.704099,-2.5267 5.97139,-3.8218"
       inkscape:connector-curvature="0"
       sodipodi:nodetypes="cscsc"
       transform="matrix(0.24008552,0.19899466,-0.18032605,0.21756199,186.22554,-222.52351)" />
    <path
       style="display:inline;fill:#478d4a;fill-opacity:1;stroke:#327334;stroke-width:0.76868613;stroke-miterlimit:4;stroke-dasharray:none;stroke-opacity:1"
       d="m 34.425529,1021.2405 c -1.932897,-0.052 -3.877019,0.597 -5.391883,1.7986 -1.290737,1.0239 -2.266069,2.4399 -2.762522,4.0108 -0.496453,1.571 -0.512,3.2904 -0.04404,4.87 0.449294,-1.6934 1.277183,-3.2852 2.405621,-4.6254 1.545462,-1.8355 3.657398,-3.1871 5.97139,-3.8218"
       id="path5927-5"
       inkscape:path-effect="#path-effect5929-7"
       inkscape:original-d="m 34.425529,1021.2405 c 0,0 -3.921781,0.8735 -5.391883,1.7986 -1.470101,0.9251 -2.806557,8.8808 -2.806557,8.8808 0,0 1.603747,-2.7752 2.405621,-4.6254 0.801874,-1.8502 5.704099,-2.5267 5.97139,-3.8218"
       inkscape:connector-curvature="0"
       sodipodi:nodetypes="cscsc"
       transform="matrix(-0.16880096,0.19033809,0.19874597,0.1769356,-187.47257,-181.04159)" />
    <path
       style="display:inline;fill:#478d4a;fill-opacity:1;stroke:#327334;stroke-width:0.76868614;stroke-miterlimit:4;stroke-dasharray:none;stroke-opacity:1"
       d="m 34.425529,1021.2405 c -1.932897,-0.052 -3.877019,0.597 -5.391883,1.7986 -1.290737,1.0239 -2.266069,2.4399 -2.762522,4.0108 -0.496453,1.571 -0.512,3.2904 -0.04404,4.87 0.449294,-1.6934 1.277183,-3.2852 2.405621,-4.6254 1.545462,-1.8355 3.657398,-3.1871 5.97139,-3.8218"
       id="path5927-56"
       inkscape:path-effect="#path-effect5929-3"
       inkscape:original-d="m 34.425529,1021.2405 c 0,0 -3.921781,0.8735 -5.391883,1.7986 -1.470101,0.9251 -2.806557,8.8808 -2.806557,8.8808 0,0 1.603747,-2.7752 2.405621,-4.6254 0.801874,-1.8502 5.704099,-2.5267 5.97139,-3.8218"
       inkscape:connector-curvature="0"
       sodipodi:nodetypes="cscsc"
       transform="matrix(0.25417486,0.00112485,-0.00147288,0.26632913,2.4159819,-265.61865)" />
    <path
       style="display:inline;fill:#478d4a;fill-opacity:1;stroke:#327334;stroke-width:0.69057835;stroke-miterlimit:4;stroke-dasharray:none;stroke-opacity:1"
       d="m 34.425529,1021.2405 c -1.932897,-0.052 -3.877019,0.597 -5.391883,1.7986 -1.290737,1.0239 -2.266069,2.4399 -2.762522,4.0108 -0.496453,1.571 -0.512,3.2904 -0.04404,4.87 0.449294,-1.6934 1.277183,-3.2852 2.405621,-4.6254 1.545462,-1.8355 3.657398,-3.1871 5.97139,-3.8218"
       id="path5927-9"
       inkscape:path-effect="#path-effect5929-2"
       inkscape:original-d="m 34.425529,1021.2405 c 0,0 -3.921781,0.8735 -5.391883,1.7986 -1.470101,0.9251 -2.806557,8.8808 -2.806557,8.8808 0,0 1.603747,-2.7752 2.405621,-4.6254 0.801874,-1.8502 5.704099,-2.5267 5.97139,-3.8218"
       inkscape:connector-curvature="0"
       sodipodi:nodetypes="cscsc"
       transform="matrix(-0.27701195,0,0,0.30278584,19.43382,-303.04844)" />
    <path
       style="display:inline;fill:#478d4a;fill-opacity:1;stroke:#327334;stroke-width:0.65220622;stroke-miterlimit:4;stroke-dasharray:none;stroke-opacity:1"
       d="m 34.425529,1021.2405 c -1.932897,-0.052 -3.877019,0.597 -5.391883,1.7986 -1.290737,1.0239 -2.266069,2.4399 -2.762522,4.0108 -0.496453,1.571 -0.512,3.2904 -0.04404,4.87 0.449294,-1.6934 1.277183,-3.2852 2.405621,-4.6254 1.545462,-1.8355 3.657398,-3.1871 5.97139,-3.8218"
       id="path5927-9-0"
       inkscape:path-effect="#path-effect5929-2-7"
       inkscape:original-d="m 34.425529,1021.2405 c 0,0 -3.921781,0.8735 -5.391883,1.7986 -1.470101,0.9251 -2.806557,8.8808 -2.806557,8.8808 0,0 1.603747,-2.7752 2.405621,-4.6254 0.801874,-1.8502 5.704099,-2.5267 5.97139,-3.8218"
       inkscape:connector-curvature="0"
       sodipodi:nodetypes="cscsc"
       transform="matrix(0.0553916,0.31777215,-0.28059221,0.0879328,294.77687,-94.390698)" />
  </g>
  <g
     inkscape:groupmode="layer"
     id="layer2"
     inkscape:label="wave"
     style="display:inline">
    <path
       style="display:inline;opacity:1;fill:#248afd;fill-opacity:1;stroke:none;stroke-width:0.34024101;stroke-linecap:round;stroke-linejoin:miter;stroke-miterlimit:4;stroke-dasharray:none;stroke-opacity:1"
       d="M 9.9581247,1.1249756 A 7.6488539,7.6488539 0 0 0 3.4209142,4.4491333 7.6488539,7.6488539 0 0 0 5.4085378,15.080095 7.6488539,7.6488539 0 0 0 15.850302,13.345641 6.0412919,6.0412919 0 0 1 8.7178794,13.569179 6.0412919,6.0412919 0 0 1 7.1483831,5.1729415 6.0412919,6.0412919 0 0 1 15.092148,3.3233466 7.6488539,7.6488539 0 0 0 14.061978,2.4648749 l -0.01145,-0.00766 A 7.6488539,7.6488539 0 0 0 9.9581247,1.1253971 Z"
       id="path4549"
       inkscape:connector-curvature="0" />
    <path
       style="fill:#50beee;fill-opacity:1;stroke:none;stroke-width:0.25344768px;stroke-linecap:butt;stroke-linejoin:miter;stroke-opacity:1"
       d="M 2.1508972,8.4527322 C 2.2416676,7.2154128 2.4870525,6.3915967 2.920292,5.3525239 3.5331141,3.8827435 4.3422659,3.2605212 5.7263199,2.2975743 7.1750956,1.2895976 8.8676315,1.0430164 10.29743,1.1887406 11.856938,1.3476846 14.483843,2.9085642 14.823282,3.1122275 15.162721,3.3158909 14.099146,2.5238668 12.899795,2.5012376 11.700444,2.4786082 9.3922598,2.885935 8.4870893,3.6553296 7.5819192,4.4247246 7.7403239,4.4699828 7.7403239,4.4699828 5.8191524,4.7751438 3.8914688,6.7027722 2.1508972,8.4527322 Z"
       id="path4581"
       inkscape:connector-curvature="0"
       sodipodi:nodetypes="cssscsscc" />
    <path
       style="fill:#cccccc;fill-opacity:1;stroke:none;stroke-width:0.25344768px;stroke-linecap:butt;stroke-linejoin:miter;stroke-opacity:1"
       d="m 3.712316,3.9495101 c 0,0 1.6034661,-1.581621 2.7801874,-2.1247231 C 7.0808642,1.553236 8.3406512,1.1484342 9.5582102,1.1102481 10.775769,1.072062 11.9511,1.4004916 12.403957,1.5597338 c 0.908668,0.3195233 2.655327,1.6621423 2.655327,1.6621423 0,0 -1.186431,-0.7955217 -2.747849,-0.7206385 C 10.743803,2.5764188 10.184284,2.1844279 8.0571336,2.3880912 5.9299832,2.5917546 3.712316,3.9495101 3.712316,3.9495101 Z"
       id="path4583"
       inkscape:connector-curvature="0"
       sodipodi:nodetypes="cssscszc" />
    <path
       style="fill:#248afd;fill-opacity:1;stroke:none;stroke-width:0.25344768px;stroke-linecap:butt;stroke-linejoin:miter;stroke-opacity:1"
       d="m 2.2640435,10.421477 c 0,0 0.4970518,2.493476 0.1357756,3.349131 -0.3612763,0.855655 -2.12715031,2.376072 -2.12715031,2.376072 0,0 0.63320213,0.26045 2.19503801,-0.203662 1.5618358,-0.464114 3.1907254,-1.584049 3.1907254,-1.584049 L 3.5086527,10.760917 Z"
       id="path4728"
       inkscape:connector-curvature="0"
       sodipodi:nodetypes="czczccc" />
    <path
       style="display:inline;fill:#7767c0;fill-opacity:1;stroke:none;stroke-width:0.25344768px;stroke-linecap:butt;stroke-linejoin:miter;stroke-opacity:1"
       d="m 15.615307,13.521686 c 0,0 -0.288215,0.500827 -0.817174,0.981699 -0.528959,0.480872 -1.298662,0.941789 -1.694674,1.145451 C 12.311435,16.05616 9.7316981,16.599267 8.532348,16.327718 7.9326726,16.191939 7.1313224,15.901736 6.4269868,15.559469 5.7226511,15.217202 5.1153299,14.822872 5.0927007,14.856815 c -0.045259,0.06792 -0.02263,-0.113149 -1.0183166,0.384697 -0.9956874,0.497837 -2.0140039,0.74676 -2.0140039,0.74676 0,0 1.1930979,-0.739152 1.7877113,-1.357754 0.5946134,-0.618602 1.1877656,-1.450441 1.6121046,-2.382567 0.424339,-0.932127 0.7413381,-2.7995584 0.7413381,-2.7995584 0,0 0.2194127,1.1014944 0.7732183,2.1246314 0.5538056,1.023127 1.442004,1.967906 2.0554391,2.288089 1.2268664,0.640355 3.2359844,0.724134 4.2543014,0.565724 1.018316,-0.158401 2.330814,-0.90517 2.330814,-0.90517 v 10e-6 z"
       id="path4760"
       inkscape:connector-curvature="0"
       sodipodi:nodetypes="csscsccczzcsscccc" />
    <path
       style="fill:#f9548f;fill-opacity:1;stroke:none;stroke-width:0.25344768px;stroke-linecap:butt;stroke-linejoin:miter;stroke-opacity:1"
       d="m 6.7780837,11.229364 c 0,0 1.1376515,1.924731 2.5893144,2.632071 1.0176969,0.495885 1.6532139,0.700916 2.6739709,0.726561 1.020758,0.02564 3.214362,-0.687528 3.214362,-0.687528 l -1.371945,1.340035 c 0,0 -0.329265,0.397799 -1.196486,0.411129 C 11.503268,15.778108 9.7694257,15.367111 8.9012584,14.64718 8.0330912,13.927244 7.6049081,12.977506 7.6049081,12.977506 Z"
       id="path4763"
       inkscape:connector-curvature="0"
       sodipodi:nodetypes="cscccczcc" />
    <path
       style="display:inline;opacity:1;fill:none;fill-opacity:1;stroke:#7767c0;stroke-width:0.3;stroke-linecap:round;stroke-linejoin:miter;stroke-miterlimit:4;stroke-dasharray:none;stroke-opacity:1"
       d="M 9.9932791,1.1041639 A 7.6488538,7.6488538 0 0 0 3.4561106,4.4281897 7.6488538,7.6488538 0 0 0 2.4334096,10.906947 c 0.1236909,0.781723 0.2972964,2.195151 0.041581,2.800794 -0.3612767,0.855655 -2.12757446,2.376073 -2.12757446,2.376073 0,0 0.63355537,0.260661 2.19539146,-0.203451 0.9195873,-0.273264 1.8536776,-0.770547 2.4735901,-1.13606 A 7.6488538,7.6488538 0 0 0 5.4435959,15.059133 7.6488538,7.6488538 0 0 0 15.885443,13.324599 6.0412919,6.0412919 0 0 1 8.7527712,13.548347 6.0412919,6.0412919 0 0 1 7.1835736,5.1519017 6.0412919,6.0412919 0 0 1 15.127081,3.3025257 7.6488538,7.6488538 0 0 0 14.096954,2.4441695 l -0.01139,-0.00792 A 7.6488538,7.6488538 0 0 0 9.9932791,1.1046589 Z"
       id="path4549-3"
       inkscape:connector-curvature="0" />
    <path
       style="display:inline;opacity:1;fill:none;fill-opacity:1;stroke:#6da6c9;stroke-width:0.3;stroke-linecap:round;stroke-linejoin:miter;stroke-miterlimit:4;stroke-dasharray:none;stroke-opacity:1"
       d="M 7.6256748,4.5861327 C 9.3124218,2.6435143 12.422628,1.7701639 15.149865,3.3037211 14.832279,2.9879985 14.487579,2.7007764 14.119738,2.4453649 l -0.01139,-0.00792 C 12.899804,1.6110796 11.479485,1.1489214 10.016063,1.1058542 v -4.95e-4 C 6.0667142,0.89846108 2.3692158,4.0644407 2.1382602,8.3804175"
       id="path4549-3-7"
       inkscape:connector-curvature="0"
       sodipodi:nodetypes="ccccccc" />
    <path
       style="display:inline;opacity:1;fill:none;fill-opacity:1;stroke:#a5a5a5;stroke-width:0.3;stroke-linecap:round;stroke-linejoin:miter;stroke-miterlimit:4;stroke-dasharray:none;stroke-opacity:1"
       d="m 11.516865,2.5593071 c 1.419477,-0.080084 2.069811,-0.014514 3.602688,0.7255871 C 14.801967,2.9691716 14.457266,2.6819495 14.089425,2.426538 l -0.01139,-0.00792 C 12.869491,1.5922526 11.449172,1.1300944 9.9857501,1.0870272 v -4.95e-4 C 8.5504054,1.0800863 6.1020447,1.4103876 4.125485,3.6049126"
       id="path4549-3-7-5"
       inkscape:connector-curvature="0"
       sodipodi:nodetypes="ccccccc" />
  </g>
  <g
     inkscape:groupmode="layer"
     id="layer4"
     inkscape:label="palette">
    <rect
       transform="translate(0,-280.06667)"
       style="display:inline;fill:#248afd;stroke-width:0.08322186;stroke-dasharray:0.16644373, 0.08322185999999999"
       width="1.6644373"
       height="4.9933119"
       x="4.1577382"
       y="269.58185"
       id="rect1099" />
    <rect
       transform="translate(0,-280.06667)"
       y="269.58185"
       x="5.8221755"
       height="4.9933119"
       width="1.6644373"
       style="display:inline;fill:#4bae4f;stroke-width:0.08322186;stroke-dasharray:0.16644373, 0.08322185999999999"
       id="rect1101" />
    <rect
       transform="translate(0,-280.06667)"
       y="269.58185"
       x="7.4866128"
       height="4.9933119"
       width="1.6644373"
       style="display:inline;fill:#c2352a;stroke-width:0.08322186;stroke-dasharray:0.16644373, 0.08322185999999999"
       id="rect1103" />
    <rect
       transform="translate(0,-280.06667)"
       style="display:inline;fill:#f9548f;stroke-width:0.08322186;stroke-dasharray:0.16644373, 0.08322185999999999"
       width="1.6644373"
       height="4.9933119"
       x="9.1510496"
       y="269.58185"
       id="rect1105" />
    <rect
       transform="translate(0,-280.06667)"
       y="269.58185"
       x="10.815487"
       height="4.9933119"
       width="1.6644373"
       style="display:inline;fill:#e97e10;stroke-width:0.08322186;stroke-dasharray:0.16644373, 0.08322185999999999"
       id="rect1107" />
    <rect
       transform="translate(0,-280.06667)"
       style="display:inline;fill:#cccccc;stroke-width:0.08322186;stroke-dasharray:0.16644373, 0.08322185999999999"
       width="1.6644373"
       height="4.9933119"
       x="14.144361"
       y="264.58853"
       id="rect1109" />
    <rect
       transform="translate(0,-280.06667)"
       style="display:inline;fill:#5d5d5d;stroke-width:0.08322186;stroke-dasharray:0.16644373, 0.08322185999999999"
       width="1.6644373"
       height="4.9933119"
       x="14.144361"
       y="269.58185"
       id="rect1111" />
    <rect
       transform="translate(0,-280.06667)"
       y="269.58185"
       x="12.479925"
       height="4.9933119"
       width="1.6644373"
       style="display:inline;fill:#7767c0;stroke:none;stroke-width:0.08322186;stroke-dasharray:0.16644373, 0.08322185999999999;stroke-opacity:1"
       id="rect1113" />
    <rect
       transform="translate(0,-280.06667)"
       y="264.58853"
       x="4.1577382"
       height="4.9933119"
       width="1.6644373"
       style="display:inline;fill:#50beee;stroke-width:0.08322186;stroke-dasharray:0.16644373, 0.08322185999999999"
       id="rect1115" />
    <rect
       transform="translate(0,-280.06667)"
       style="display:inline;fill:#79de7d;stroke-width:0.08322186;stroke-dasharray:0.16644373, 0.08322185999999999"
       width="1.6644373"
       height="4.9933119"
       x="5.8221755"
       y="264.58853"
       id="rect1117" />
    <rect
       transform="translate(0,-280.06667)"
       style="display:inline;fill:#df574d;stroke-width:0.08322186;stroke-dasharray:0.16644373, 0.08322185999999999"
       width="1.6644373"
       height="4.9933119"
       x="7.4866128"
       y="264.58853"
       id="rect1119" />
    <rect
       transform="translate(0,-280.06667)"
       y="264.58853"
       x="9.1510496"
       height="4.9933119"
       width="1.6644373"
       style="display:inline;fill:#ff90b8;stroke-width:0.08322186;stroke-dasharray:0.16644373, 0.08322185999999999"
       id="rect1121" />
    <rect
       transform="translate(0,-280.06667)"
       style="display:inline;fill:#fecd38;stroke-width:0.08322186;stroke-dasharray:0.16644373, 0.08322185999999999"
       width="1.6644373"
       height="4.9933119"
       x="10.815487"
       y="264.58853"
       id="rect1123" />
    <rect
       transform="translate(0,-280.06667)"
       style="display:inline;fill:#9182d7;stroke-width:0.08322186;stroke-dasharray:0.16644373, 0.08322185999999999"
       width="1.6644373"
       height="4.9933119"
       x="12.479925"
       y="264.58853"
       id="rect1125" />
  </g>
</svg>
